<?xml version="1.0" encoding="us-ascii" standalone="no"?><svg xmlns="http://www.w3.org/2000/svg" xmlns:xlink="http://www.w3.org/1999/xlink" contentStyleType="text/css" height="472px" preserveAspectRatio="none" style="width:2167px;height:472px;background:#FFFFFF;" version="1.1" viewBox="0 0 2167 472" width="2167px" zoomAndPan="magnify"><defs/><g><!--class AuthController--><g id="elem_AuthController"><rect codeLine="2" fill="#F1F1F1" height="171.2656" id="AuthController" rx="2.5" ry="2.5" style="stroke:#181818;stroke-width:0.5;" width="379" x="1237.5" y="7"/><ellipse cx="1377.25" cy="23" fill="#ADD1B2" rx="11" ry="11" style="stroke:#181818;stroke-width:1.0;"/><path d="M1380.0156,18.875 Q1380.1719,18.6563 1380.3594,18.5469 Q1380.5469,18.4375 1380.7656,18.4375 Q1381.1406,18.4375 1381.375,18.7031 Q1381.6094,18.9531 1381.6094,19.5625 L1381.6094,21.0156 Q1381.6094,21.625 1381.375,21.8906 Q1381.1406,22.1563 1380.7656,22.1563 Q1380.4219,22.1563 1380.2188,21.9531 Q1380.0156,21.7656 1379.9063,21.25 Q1379.8594,20.8906 1379.6719,20.7031 Q1379.3438,20.3281 1378.7344,20.1094 Q1378.125,19.8906 1377.5,19.8906 Q1376.7344,19.8906 1376.0938,20.2188 Q1375.4688,20.5469 1374.9688,21.2969 Q1374.4844,22.0469 1374.4844,23.0781 L1374.4844,24.1719 Q1374.4844,25.4063 1375.375,26.2344 Q1376.2656,27.0469 1377.8594,27.0469 Q1378.7969,27.0469 1379.4531,26.7969 Q1379.8438,26.6406 1380.2656,26.2031 Q1380.5313,25.9375 1380.6719,25.8594 Q1380.8281,25.7813 1381.0313,25.7813 Q1381.3594,25.7813 1381.6094,26.0469 Q1381.875,26.2969 1381.875,26.6406 Q1381.875,26.9844 1381.5313,27.3906 Q1381.0313,27.9688 1380.2344,28.2969 Q1379.1563,28.75 1377.8594,28.75 Q1376.3438,28.75 1375.1406,28.125 Q1374.1563,27.625 1373.4688,26.5625 Q1372.7813,25.4844 1372.7813,24.2031 L1372.7813,23.0469 Q1372.7813,21.7188 1373.3906,20.5781 Q1374.0156,19.4219 1375.1094,18.8125 Q1376.2031,18.1875 1377.4375,18.1875 Q1378.1719,18.1875 1378.8125,18.3594 Q1379.4688,18.5156 1380.0156,18.875 Z " fill="#000000"/><text fill="#000000" font-family="sans-serif" font-size="14" lengthAdjust="spacing" textLength="91" x="1397.75" y="28.7285">AuthController</text><line style="stroke:#181818;stroke-width:0.5;" x1="1238.5" x2="1615.5" y1="39" y2="39"/><rect fill="none" height="6" style="stroke:#C82930;stroke-width:1.0;" width="6" x="1245.5" y="50.3047"/><text fill="#000000" font-family="sans-serif" font-size="14" lengthAdjust="spacing" textLength="299" x="1257.5" y="57.5332">_userManager: UserManager&lt;ApplicationUser&gt;</text><rect fill="none" height="6" style="stroke:#C82930;stroke-width:1.0;" width="6" x="1245.5" y="67.9141"/><text fill="#000000" font-family="sans-serif" font-size="14" lengthAdjust="spacing" textLength="318" x="1257.5" y="75.1426">_signInManager: SignInManager&lt;ApplicationUser&gt;</text><rect fill="none" height="6" style="stroke:#C82930;stroke-width:1.0;" width="6" x="1245.5" y="85.5234"/><text fill="#000000" font-family="sans-serif" font-size="14" lengthAdjust="spacing" textLength="211" x="1257.5" y="92.752">_logger: ILogger&lt;AuthController&gt;</text><rect fill="none" height="6" style="stroke:#C82930;stroke-width:1.0;" width="6" x="1245.5" y="103.1328"/><text fill="#000000" font-family="sans-serif" font-size="14" lengthAdjust="spacing" textLength="186" x="1257.5" y="110.3613">_configuration: IConfiguration</text><rect fill="none" height="6" style="stroke:#C82930;stroke-width:1.0;" width="6" x="1245.5" y="120.7422"/><text fill="#000000" font-family="sans-serif" font-size="14" lengthAdjust="spacing" textLength="180" x="1257.5" y="127.9707">_emailService: IEmailService</text><line style="stroke:#181818;stroke-width:0.5;" x1="1238.5" x2="1615.5" y1="135.0469" y2="135.0469"/><ellipse cx="1248.5" cy="149.3516" fill="#84BE84" rx="3" ry="3" style="stroke:#038048;stroke-width:1.0;"/><text fill="#000000" font-family="sans-serif" font-size="14" lengthAdjust="spacing" textLength="285" x="1257.5" y="153.5801">Login(model: LoginDto): Task&lt;IActionResult&gt;</text><rect fill="#F24D5C" height="6" style="stroke:#C82930;stroke-width:1.0;" width="6" x="1245.5" y="163.9609"/><text fill="#000000" font-family="sans-serif" font-size="14" lengthAdjust="spacing" textLength="353" x="1257.5" y="171.1895">GenerateJwtToken(user: ApplicationUser): Task&lt;string&gt;</text></g><!--class LoginDto--><g id="elem_LoginDto"><rect codeLine="12" fill="#F1F1F1" height="83.2188" id="LoginDto" rx="2.5" ry="2.5" style="stroke:#181818;stroke-width:0.5;" width="130" x="1624" y="256"/><ellipse cx="1657.45" cy="272" fill="#ADD1B2" rx="11" ry="11" style="stroke:#181818;stroke-width:1.0;"/><path d="M1660.2156,267.875 Q1660.3719,267.6563 1660.5594,267.5469 Q1660.7469,267.4375 1660.9656,267.4375 Q1661.3406,267.4375 1661.575,267.7031 Q1661.8094,267.9531 1661.8094,268.5625 L1661.8094,270.0156 Q1661.8094,270.625 1661.575,270.8906 Q1661.3406,271.1563 1660.9656,271.1563 Q1660.6219,271.1563 1660.4188,270.9531 Q1660.2156,270.7656 1660.1063,270.25 Q1660.0594,269.8906 1659.8719,269.7031 Q1659.5438,269.3281 1658.9344,269.1094 Q1658.325,268.8906 1657.7,268.8906 Q1656.9344,268.8906 1656.2938,269.2188 Q1655.6688,269.5469 1655.1688,270.2969 Q1654.6844,271.0469 1654.6844,272.0781 L1654.6844,273.1719 Q1654.6844,274.4063 1655.575,275.2344 Q1656.4656,276.0469 1658.0594,276.0469 Q1658.9969,276.0469 1659.6531,275.7969 Q1660.0438,275.6406 1660.4656,275.2031 Q1660.7313,274.9375 1660.8719,274.8594 Q1661.0281,274.7813 1661.2313,274.7813 Q1661.5594,274.7813 1661.8094,275.0469 Q1662.075,275.2969 1662.075,275.6406 Q1662.075,275.9844 1661.7313,276.3906 Q1661.2313,276.9688 1660.4344,277.2969 Q1659.3563,277.75 1658.0594,277.75 Q1656.5438,277.75 1655.3406,277.125 Q1654.3563,276.625 1653.6688,275.5625 Q1652.9813,274.4844 1652.9813,273.2031 L1652.9813,272.0469 Q1652.9813,270.7188 1653.5906,269.5781 Q1654.2156,268.4219 1655.3094,267.8125 Q1656.4031,267.1875 1657.6375,267.1875 Q1658.3719,267.1875 1659.0125,267.3594 Q1659.6688,267.5156 1660.2156,267.875 Z " fill="#000000"/><text fill="#000000" font-family="sans-serif" font-size="14" lengthAdjust="spacing" textLength="57" x="1675.55" y="277.7285">LoginDto</text><line style="stroke:#181818;stroke-width:0.5;" x1="1625" x2="1753" y1="288" y2="288"/><ellipse cx="1635" cy="302.3047" fill="none" rx="3" ry="3" style="stroke:#038048;stroke-width:1.0;"/><text fill="#000000" font-family="sans-serif" font-size="14" lengthAdjust="spacing" textLength="77" x="1644" y="306.5332">Email: string</text><ellipse cx="1635" cy="319.9141" fill="none" rx="3" ry="3" style="stroke:#038048;stroke-width:1.0;"/><text fill="#000000" font-family="sans-serif" font-size="14" lengthAdjust="spacing" textLength="104" x="1644" y="324.1426">Password: string</text><line style="stroke:#181818;stroke-width:0.5;" x1="1625" x2="1753" y1="331.2188" y2="331.2188"/></g><!--class IEmailService--><g id="elem_IEmailService"><rect codeLine="17" fill="#F1F1F1" height="65.6094" id="IEmailService" rx="2.5" ry="2.5" style="stroke:#181818;stroke-width:0.5;" width="371" x="1789.5" y="264.5"/><ellipse cx="1928.75" cy="280.5" fill="#B4A7E5" rx="11" ry="11" style="stroke:#181818;stroke-width:1.0;"/><path d="M1929.7031,277.1406 L1929.7031,283.7969 L1931.4219,283.7969 Q1932.0313,283.7969 1932.2969,284.0313 Q1932.5625,284.2656 1932.5625,284.6563 Q1932.5625,285.0313 1932.2969,285.2656 Q1932.0313,285.5 1931.4219,285.5 L1926.2813,285.5 Q1925.6719,285.5 1925.4063,285.2656 Q1925.1406,285.0313 1925.1406,284.6406 Q1925.1406,284.2656 1925.4063,284.0313 Q1925.6719,283.7969 1926.2813,283.7969 L1928,283.7969 L1928,277.1406 L1926.2813,277.1406 Q1925.6719,277.1406 1925.4063,276.9063 Q1925.1406,276.6719 1925.1406,276.2813 Q1925.1406,275.9063 1925.4063,275.6719 Q1925.6719,275.4375 1926.2813,275.4375 L1931.4219,275.4375 Q1932.0313,275.4375 1932.2969,275.6719 Q1932.5625,275.9063 1932.5625,276.2813 Q1932.5625,276.6719 1932.2969,276.9063 Q1932.0313,277.1406 1931.4219,277.1406 L1929.7031,277.1406 Z " fill="#000000"/><text fill="#000000" font-family="sans-serif" font-size="14" font-style="italic" lengthAdjust="spacing" textLength="84" x="1949.25" y="286.2285">IEmailService</text><line style="stroke:#181818;stroke-width:0.5;" x1="1790.5" x2="2159.5" y1="296.5" y2="296.5"/><line style="stroke:#181818;stroke-width:0.5;" x1="1790.5" x2="2159.5" y1="304.5" y2="304.5"/><ellipse cx="1800.5" cy="318.8047" fill="#84BE84" rx="3" ry="3" style="stroke:#038048;stroke-width:1.0;"/><text fill="#000000" font-family="sans-serif" font-size="14" lengthAdjust="spacing" textLength="345" x="1809.5" y="323.0332">SendAdminLockoutNotification(userEmail: string): Task</text></g><!--class SmtpEmailService--><g id="elem_SmtpEmailService"><rect codeLine="21" fill="#F1F1F1" height="65.6094" id="SmtpEmailService" rx="2.5" ry="2.5" style="stroke:#181818;stroke-width:0.5;" width="371" x="1789.5" y="59.5"/><ellipse cx="1914.25" cy="75.5" fill="#ADD1B2" rx="11" ry="11" style="stroke:#181818;stroke-width:1.0;"/><path d="M1917.0156,71.375 Q1917.1719,71.1563 1917.3594,71.0469 Q1917.5469,70.9375 1917.7656,70.9375 Q1918.1406,70.9375 1918.375,71.2031 Q1918.6094,71.4531 1918.6094,72.0625 L1918.6094,73.5156 Q1918.6094,74.125 1918.375,74.3906 Q1918.1406,74.6563 1917.7656,74.6563 Q1917.4219,74.6563 1917.2188,74.4531 Q1917.0156,74.2656 1916.9063,73.75 Q1916.8594,73.3906 1916.6719,73.2031 Q1916.3438,72.8281 1915.7344,72.6094 Q1915.125,72.3906 1914.5,72.3906 Q1913.7344,72.3906 1913.0938,72.7188 Q1912.4688,73.0469 1911.9688,73.7969 Q1911.4844,74.5469 1911.4844,75.5781 L1911.4844,76.6719 Q1911.4844,77.9063 1912.375,78.7344 Q1913.2656,79.5469 1914.8594,79.5469 Q1915.7969,79.5469 1916.4531,79.2969 Q1916.8438,79.1406 1917.2656,78.7031 Q1917.5313,78.4375 1917.6719,78.3594 Q1917.8281,78.2813 1918.0313,78.2813 Q1918.3594,78.2813 1918.6094,78.5469 Q1918.875,78.7969 1918.875,79.1406 Q1918.875,79.4844 1918.5313,79.8906 Q1918.0313,80.4688 1917.2344,80.7969 Q1916.1563,81.25 1914.8594,81.25 Q1913.3438,81.25 1912.1406,80.625 Q1911.1563,80.125 1910.4688,79.0625 Q1909.7813,77.9844 1909.7813,76.7031 L1909.7813,75.5469 Q1909.7813,74.2188 1910.3906,73.0781 Q1911.0156,71.9219 1912.1094,71.3125 Q1913.2031,70.6875 1914.4375,70.6875 Q1915.1719,70.6875 1915.8125,70.8594 Q1916.4688,71.0156 1917.0156,71.375 Z " fill="#000000"/><text fill="#000000" font-family="sans-serif" font-size="14" lengthAdjust="spacing" textLength="113" x="1934.75" y="81.2285">SmtpEmailService</text><line style="stroke:#181818;stroke-width:0.5;" x1="1790.5" x2="2159.5" y1="91.5" y2="91.5"/><line style="stroke:#181818;stroke-width:0.5;" x1="1790.5" x2="2159.5" y1="99.5" y2="99.5"/><ellipse cx="1800.5" cy="113.8047" fill="#84BE84" rx="3" ry="3" style="stroke:#038048;stroke-width:1.0;"/><text fill="#000000" font-family="sans-serif" font-size="14" lengthAdjust="spacing" textLength="345" x="1809.5" y="118.0332">SendAdminLockoutNotification(userEmail: string): Task</text></g><!--class ApplicationUser--><g id="elem_ApplicationUser"><rect codeLine="25" fill="#F1F1F1" height="48" id="ApplicationUser" rx="2.5" ry="2.5" style="stroke:#181818;stroke-width:0.5;" width="130" x="443" y="417"/><ellipse cx="458" cy="433" fill="#ADD1B2" rx="11" ry="11" style="stroke:#181818;stroke-width:1.0;"/><path d="M460.7656,428.875 Q460.9219,428.6563 461.1094,428.5469 Q461.2969,428.4375 461.5156,428.4375 Q461.8906,428.4375 462.125,428.7031 Q462.3594,428.9531 462.3594,429.5625 L462.3594,431.0156 Q462.3594,431.625 462.125,431.8906 Q461.8906,432.1563 461.5156,432.1563 Q461.1719,432.1563 460.9688,431.9531 Q460.7656,431.7656 460.6563,431.25 Q460.6094,430.8906 460.4219,430.7031 Q460.0938,430.3281 459.4844,430.1094 Q458.875,429.8906 458.25,429.8906 Q457.4844,429.8906 456.8438,430.2188 Q456.2188,430.5469 455.7188,431.2969 Q455.2344,432.0469 455.2344,433.0781 L455.2344,434.1719 Q455.2344,435.4063 456.125,436.2344 Q457.0156,437.0469 458.6094,437.0469 Q459.5469,437.0469 460.2031,436.7969 Q460.5938,436.6406 461.0156,436.2031 Q461.2813,435.9375 461.4219,435.8594 Q461.5781,435.7813 461.7813,435.7813 Q462.1094,435.7813 462.3594,436.0469 Q462.625,436.2969 462.625,436.6406 Q462.625,436.9844 462.2813,437.3906 Q461.7813,437.9688 460.9844,438.2969 Q459.9063,438.75 458.6094,438.75 Q457.0938,438.75 455.8906,438.125 Q454.9063,437.625 454.2188,436.5625 Q453.5313,435.4844 453.5313,434.2031 L453.5313,433.0469 Q453.5313,431.7188 454.1406,430.5781 Q454.7656,429.4219 455.8594,428.8125 Q456.9531,428.1875 458.1875,428.1875 Q458.9219,428.1875 459.5625,428.3594 Q460.2188,428.5156 460.7656,428.875 Z " fill="#000000"/><text fill="#000000" font-family="sans-serif" font-size="14" lengthAdjust="spacing" textLength="98" x="472" y="438.7285">ApplicationUser</text><line style="stroke:#181818;stroke-width:0.5;" x1="444" x2="572" y1="449" y2="449"/><line style="stroke:#181818;stroke-width:0.5;" x1="444" x2="572" y1="457" y2="457"/></g><!--class UserManager--><g id="elem_UserManager"><rect codeLine="28" fill="#F1F1F1" height="83.2188" id="UserManager" rx="2.5" ry="2.5" style="stroke:#181818;stroke-width:0.5;" width="398" x="7" y="256"/><ellipse cx="113.75" cy="272" fill="#ADD1B2" rx="11" ry="11" style="stroke:#181818;stroke-width:1.0;"/><path d="M116.5156,267.875 Q116.6719,267.6563 116.8594,267.5469 Q117.0469,267.4375 117.2656,267.4375 Q117.6406,267.4375 117.875,267.7031 Q118.1094,267.9531 118.1094,268.5625 L118.1094,270.0156 Q118.1094,270.625 117.875,270.8906 Q117.6406,271.1563 117.2656,271.1563 Q116.9219,271.1563 116.7188,270.9531 Q116.5156,270.7656 116.4063,270.25 Q116.3594,269.8906 116.1719,269.7031 Q115.8438,269.3281 115.2344,269.1094 Q114.625,268.8906 114,268.8906 Q113.2344,268.8906 112.5938,269.2188 Q111.9688,269.5469 111.4688,270.2969 Q110.9844,271.0469 110.9844,272.0781 L110.9844,273.1719 Q110.9844,274.4063 111.875,275.2344 Q112.7656,276.0469 114.3594,276.0469 Q115.2969,276.0469 115.9531,275.7969 Q116.3438,275.6406 116.7656,275.2031 Q117.0313,274.9375 117.1719,274.8594 Q117.3281,274.7813 117.5313,274.7813 Q117.8594,274.7813 118.1094,275.0469 Q118.375,275.2969 118.375,275.6406 Q118.375,275.9844 118.0313,276.3906 Q117.5313,276.9688 116.7344,277.2969 Q115.6563,277.75 114.3594,277.75 Q112.8438,277.75 111.6406,277.125 Q110.6563,276.625 109.9688,275.5625 Q109.2813,274.4844 109.2813,273.2031 L109.2813,272.0469 Q109.2813,270.7188 109.8906,269.5781 Q110.5156,268.4219 111.6094,267.8125 Q112.7031,267.1875 113.9375,267.1875 Q114.6719,267.1875 115.3125,267.3594 Q115.9688,267.5156 116.5156,267.875 Z " fill="#000000"/><text fill="#000000" font-family="sans-serif" font-size="14" lengthAdjust="spacing" textLength="85" x="134.25" y="277.7285">UserManager</text><rect fill="#FFFFFF" height="17.0938" style="stroke:#181818;stroke-width:1.0;stroke-dasharray:2.0,2.0;" width="89" x="319" y="253"/><text fill="#000000" font-family="sans-serif" font-size="12" font-style="italic" lengthAdjust="spacing" textLength="87" x="320" y="266.457">ApplicationUser</text><line style="stroke:#181818;stroke-width:0.5;" x1="8" x2="404" y1="288" y2="288"/><line style="stroke:#181818;stroke-width:0.5;" x1="8" x2="404" y1="296" y2="296"/><ellipse cx="18" cy="310.3047" fill="#84BE84" rx="3" ry="3" style="stroke:#038048;stroke-width:1.0;"/><text fill="#000000" font-family="sans-serif" font-size="14" lengthAdjust="spacing" textLength="355" x="27" y="314.5332">FindByEmailAsync(email: string): Task&lt;ApplicationUser&gt;</text><ellipse cx="18" cy="327.9141" fill="#84BE84" rx="3" ry="3" style="stroke:#038048;stroke-width:1.0;"/><text fill="#000000" font-family="sans-serif" font-size="14" lengthAdjust="spacing" textLength="372" x="27" y="332.1426">GetRolesAsync(user: ApplicationUser): Task&lt;IList&lt;string&gt;&gt;</text></g><!--class SignInManager--><g id="elem_SignInManager"><rect codeLine="33" fill="#F1F1F1" height="65.6094" id="SignInManager" rx="2.5" ry="2.5" style="stroke:#181818;stroke-width:0.5;" width="744" x="440" y="264.5"/><ellipse cx="714.75" cy="280.5" fill="#ADD1B2" rx="11" ry="11" style="stroke:#181818;stroke-width:1.0;"/><path d="M717.5156,276.375 Q717.6719,276.1563 717.8594,276.0469 Q718.0469,275.9375 718.2656,275.9375 Q718.6406,275.9375 718.875,276.2031 Q719.1094,276.4531 719.1094,277.0625 L719.1094,278.5156 Q719.1094,279.125 718.875,279.3906 Q718.6406,279.6563 718.2656,279.6563 Q717.9219,279.6563 717.7188,279.4531 Q717.5156,279.2656 717.4063,278.75 Q717.3594,278.3906 717.1719,278.2031 Q716.8438,277.8281 716.2344,277.6094 Q715.625,277.3906 715,277.3906 Q714.2344,277.3906 713.5938,277.7188 Q712.9688,278.0469 712.4688,278.7969 Q711.9844,279.5469 711.9844,280.5781 L711.9844,281.6719 Q711.9844,282.9063 712.875,283.7344 Q713.7656,284.5469 715.3594,284.5469 Q716.2969,284.5469 716.9531,284.2969 Q717.3438,284.1406 717.7656,283.7031 Q718.0313,283.4375 718.1719,283.3594 Q718.3281,283.2813 718.5313,283.2813 Q718.8594,283.2813 719.1094,283.5469 Q719.375,283.7969 719.375,284.1406 Q719.375,284.4844 719.0313,284.8906 Q718.5313,285.4688 717.7344,285.7969 Q716.6563,286.25 715.3594,286.25 Q713.8438,286.25 712.6406,285.625 Q711.6563,285.125 710.9688,284.0625 Q710.2813,282.9844 710.2813,281.7031 L710.2813,280.5469 Q710.2813,279.2188 710.8906,278.0781 Q711.5156,276.9219 712.6094,276.3125 Q713.7031,275.6875 714.9375,275.6875 Q715.6719,275.6875 716.3125,275.8594 Q716.9688,276.0156 717.5156,276.375 Z " fill="#000000"/><text fill="#000000" font-family="sans-serif" font-size="14" lengthAdjust="spacing" textLength="95" x="735.25" y="286.2285">SignInManager</text><rect fill="#FFFFFF" height="17.0938" style="stroke:#181818;stroke-width:1.0;stroke-dasharray:2.0,2.0;" width="89" x="1098" y="261.5"/><text fill="#000000" font-family="sans-serif" font-size="12" font-style="italic" lengthAdjust="spacing" textLength="87" x="1099" y="274.957">ApplicationUser</text><line style="stroke:#181818;stroke-width:0.5;" x1="441" x2="1183" y1="296.5" y2="296.5"/><line style="stroke:#181818;stroke-width:0.5;" x1="441" x2="1183" y1="304.5" y2="304.5"/><ellipse cx="451" cy="318.8047" fill="#84BE84" rx="3" ry="3" style="stroke:#038048;stroke-width:1.0;"/><text fill="#000000" font-family="sans-serif" font-size="14" lengthAdjust="spacing" textLength="718" x="460" y="323.0332">CheckPasswordSignInAsync(user: ApplicationUser, password: string, lockoutOnFailure: bool): Task&lt;SignInResult&gt;</text></g><!--class ILogger--><g id="elem_ILogger"><rect codeLine="37" fill="#F1F1F1" height="65.6094" id="ILogger" rx="2.5" ry="2.5" style="stroke:#181818;stroke-width:0.5;" width="213" x="1219.5" y="264.5"/><ellipse cx="1256.55" cy="280.5" fill="#B4A7E5" rx="11" ry="11" style="stroke:#181818;stroke-width:1.0;"/><path d="M1257.5031,277.1406 L1257.5031,283.7969 L1259.2219,283.7969 Q1259.8313,283.7969 1260.0969,284.0313 Q1260.3625,284.2656 1260.3625,284.6563 Q1260.3625,285.0313 1260.0969,285.2656 Q1259.8313,285.5 1259.2219,285.5 L1254.0813,285.5 Q1253.4719,285.5 1253.2063,285.2656 Q1252.9406,285.0313 1252.9406,284.6406 Q1252.9406,284.2656 1253.2063,284.0313 Q1253.4719,283.7969 1254.0813,283.7969 L1255.8,283.7969 L1255.8,277.1406 L1254.0813,277.1406 Q1253.4719,277.1406 1253.2063,276.9063 Q1252.9406,276.6719 1252.9406,276.2813 Q1252.9406,275.9063 1253.2063,275.6719 Q1253.4719,275.4375 1254.0813,275.4375 L1259.2219,275.4375 Q1259.8313,275.4375 1260.0969,275.6719 Q1260.3625,275.9063 1260.3625,276.2813 Q1260.3625,276.6719 1260.0969,276.9063 Q1259.8313,277.1406 1259.2219,277.1406 L1257.5031,277.1406 Z " fill="#000000"/><text fill="#000000" font-family="sans-serif" font-size="14" font-style="italic" lengthAdjust="spacing" textLength="49" x="1275.45" y="286.2285">ILogger</text><rect fill="#FFFFFF" height="17.0938" style="stroke:#181818;stroke-width:1.0;stroke-dasharray:2.0,2.0;" width="81" x="1354.5" y="261.5"/><text fill="#000000" font-family="sans-serif" font-size="12" font-style="italic" lengthAdjust="spacing" textLength="79" x="1355.5" y="274.957">AuthController</text><line style="stroke:#181818;stroke-width:0.5;" x1="1220.5" x2="1431.5" y1="296.5" y2="296.5"/><line style="stroke:#181818;stroke-width:0.5;" x1="1220.5" x2="1431.5" y1="304.5" y2="304.5"/><ellipse cx="1230.5" cy="318.8047" fill="#84BE84" rx="3" ry="3" style="stroke:#038048;stroke-width:1.0;"/><text fill="#000000" font-family="sans-serif" font-size="14" lengthAdjust="spacing" textLength="187" x="1239.5" y="323.0332">LogWarning(message: string)</text></g><!--class IConfiguration--><g id="elem_IConfiguration"><rect codeLine="41" fill="#F1F1F1" height="65.6094" id="IConfiguration" rx="2.5" ry="2.5" style="stroke:#181818;stroke-width:0.5;" width="121" x="1467.5" y="264.5"/><ellipse cx="1482.5" cy="280.5" fill="#B4A7E5" rx="11" ry="11" style="stroke:#181818;stroke-width:1.0;"/><path d="M1483.4531,277.1406 L1483.4531,283.7969 L1485.1719,283.7969 Q1485.7813,283.7969 1486.0469,284.0313 Q1486.3125,284.2656 1486.3125,284.6563 Q1486.3125,285.0313 1486.0469,285.2656 Q1485.7813,285.5 1485.1719,285.5 L1480.0313,285.5 Q1479.4219,285.5 1479.1563,285.2656 Q1478.8906,285.0313 1478.8906,284.6406 Q1478.8906,284.2656 1479.1563,284.0313 Q1479.4219,283.7969 1480.0313,283.7969 L1481.75,283.7969 L1481.75,277.1406 L1480.0313,277.1406 Q1479.4219,277.1406 1479.1563,276.9063 Q1478.8906,276.6719 1478.8906,276.2813 Q1478.8906,275.9063 1479.1563,275.6719 Q1479.4219,275.4375 1480.0313,275.4375 L1485.1719,275.4375 Q1485.7813,275.4375 1486.0469,275.6719 Q1486.3125,275.9063 1486.3125,276.2813 Q1486.3125,276.6719 1486.0469,276.9063 Q1485.7813,277.1406 1485.1719,277.1406 L1483.4531,277.1406 Z " fill="#000000"/><text fill="#000000" font-family="sans-serif" font-size="14" font-style="italic" lengthAdjust="spacing" textLength="89" x="1496.5" y="286.2285">IConfiguration</text><line style="stroke:#181818;stroke-width:0.5;" x1="1468.5" x2="1587.5" y1="296.5" y2="296.5"/><ellipse cx="1478.5" cy="310.8047" fill="none" rx="3" ry="3" style="stroke:#038048;stroke-width:1.0;"/><text fill="#000000" font-family="sans-serif" font-size="14" lengthAdjust="spacing" textLength="51" x="1487.5" y="315.0332">[]: string</text><line style="stroke:#181818;stroke-width:0.5;" x1="1468.5" x2="1587.5" y1="322.1094" y2="322.1094"/></g><!--link AuthController to LoginDto--><g id="link_AuthController_LoginDto"><path codeLine="45" d="M1536.21,178.12 C1570.9,204.99 1602.9272,229.815 1631.7072,252.115 " fill="none" id="AuthController-to-LoginDto" style="stroke:#181818;stroke-width:1.0;"/><polygon fill="#181818" points="1636.45,255.79,1631.7857,247.1157,1632.4976,252.7275,1626.8857,253.4394,1636.45,255.79" style="stroke:#181818;stroke-width:1.0;"/><text fill="#000000" font-family="sans-serif" font-size="13" lengthAdjust="spacing" textLength="28" x="1597" y="222.4951">uses</text></g><!--link AuthController to IEmailService--><g id="link_AuthController_IEmailService"><path codeLine="46" d="M1616.74,163.79 C1709.21,198.04 1810.2336,235.4659 1882.9636,262.4059 " fill="none" id="AuthController-to-IEmailService" style="stroke:#181818;stroke-width:1.0;"/><polygon fill="#181818" points="1888.59,264.49,1881.5398,257.6129,1883.9013,262.7533,1878.761,265.1148,1888.59,264.49" style="stroke:#181818;stroke-width:1.0;"/><text fill="#000000" font-family="sans-serif" font-size="13" lengthAdjust="spacing" textLength="28" x="1783" y="222.4951">uses</text></g><!--link AuthController to UserManager--><g id="link_AuthController_UserManager"><path codeLine="47" d="M1237.36,122.71 C1035.13,154.21 705.59,206.5 422,256 C416.46,256.97 416.737,256.9078 411.067,257.9178 " fill="none" id="AuthController-to-UserManager" style="stroke:#181818;stroke-width:1.0;"/><polygon fill="#181818" points="405.16,258.97,414.722,261.3297,410.0825,258.0932,413.319,253.4537,405.16,258.97" style="stroke:#181818;stroke-width:1.0;"/><text fill="#000000" font-family="sans-serif" font-size="13" lengthAdjust="spacing" textLength="28" x="699" y="222.4951">uses</text></g><!--link AuthController to SignInManager--><g id="link_AuthController_SignInManager"><path codeLine="48" d="M1237.46,156.06 C1128.76,191.94 1002.5677,233.5994 914.7377,262.5894 " fill="none" id="AuthController-to-SignInManager" style="stroke:#181818;stroke-width:1.0;"/><polygon fill="#181818" points="909.04,264.47,918.8402,265.4475,913.788,262.9028,916.3327,257.8506,909.04,264.47" style="stroke:#181818;stroke-width:1.0;"/><text fill="#000000" font-family="sans-serif" font-size="13" lengthAdjust="spacing" textLength="28" x="1066" y="222.4951">uses</text></g><!--link AuthController to ILogger--><g id="link_AuthController_ILogger"><path codeLine="49" d="M1384.9,178.12 C1369.74,208.58 1356.224,235.7588 1344.654,258.9988 " fill="none" id="AuthController-to-ILogger" style="stroke:#181818;stroke-width:1.0;"/><polygon fill="#181818" points="1341.98,264.37,1349.5718,258.0959,1344.2084,259.894,1342.4103,254.5305,1341.98,264.37" style="stroke:#181818;stroke-width:1.0;"/><text fill="#000000" font-family="sans-serif" font-size="13" lengthAdjust="spacing" textLength="28" x="1369" y="222.4951">uses</text></g><!--link AuthController to IConfiguration--><g id="link_AuthController_IConfiguration"><path codeLine="50" d="M1469.1,178.12 C1484.26,208.58 1497.776,235.7588 1509.346,258.9988 " fill="none" id="AuthController-to-IConfiguration" style="stroke:#181818;stroke-width:1.0;"/><polygon fill="#181818" points="1512.02,264.37,1511.5897,254.5305,1509.7916,259.894,1504.4282,258.0959,1512.02,264.37" style="stroke:#181818;stroke-width:1.0;"/><text fill="#000000" font-family="sans-serif" font-size="13" lengthAdjust="spacing" textLength="28" x="1493" y="222.4951">uses</text></g><!--link SmtpEmailService to IEmailService--><g id="link_SmtpEmailService_IEmailService"><path codeLine="51" d="M1975,125.67 C1975,163.68 1975,208.54 1975,246.48 " fill="none" id="SmtpEmailService-to-IEmailService" style="stroke:#181818;stroke-width:1.0;stroke-dasharray:7.0,7.0;"/><polygon fill="none" points="1975,264.48,1981,246.48,1969,246.48,1975,264.48" style="stroke:#181818;stroke-width:1.0;"/></g><!--link UserManager to ApplicationUser--><g id="link_UserManager_ApplicationUser"><path codeLine="52" d="M292.54,339.05 C346.4,364.28 408.297,393.284 453.217,414.334 " fill="none" id="UserManager-to-ApplicationUser" style="stroke:#181818;stroke-width:1.0;"/><polygon fill="#181818" points="458.65,416.88,452.1978,409.439,454.1225,414.7583,448.8031,416.6831,458.65,416.88" style="stroke:#181818;stroke-width:1.0;"/><text fill="#000000" font-family="sans-serif" font-size="13" lengthAdjust="spacing" textLength="53" x="394" y="383.4951">manages</text></g><!--link SignInManager to ApplicationUser--><g id="link_SignInManager_ApplicationUser"><path codeLine="53" d="M743.02,330.61 C686.61,356.86 613.6397,390.8284 563.2097,414.2984 " fill="none" id="SignInManager-to-ApplicationUser" style="stroke:#181818;stroke-width:1.0;"/><polygon fill="#181818" points="557.77,416.83,567.6174,416.659,562.3031,414.7203,564.2419,409.406,557.77,416.83" style="stroke:#181818;stroke-width:1.0;"/><text fill="#000000" font-family="sans-serif" font-size="13" lengthAdjust="spacing" textLength="53" x="661" y="383.4951">manages</text></g><!--SRC=[hLJBRi8m4BpdAtoaul414K9AQK5Kz252rKDLLQcp10jdZMod2BNzzpes2KaQSkhDQy_EZ7VNfZnIYWIPtau5QYau1qc-F4A6xva2UHzXb83qoVCv60VxFMSqqanWlZsnQCKIN6293wjXUmONYOKkbdOnhfjm62fmmv9CsbG3dLPZYu0qOZm4-Sae6C1j9JJdVSFDi9UA6BXFR72ZnPLFrf7QZHS1pNbMe3AkhU0S40mvt1tqMkm0UtaHVDBmN-GhBHac4-_7ywYjOo5WAzYtNdpYKFd6ay4SX8pBFPF8K8FSH1JgtXr321W7SSfmAUXEPFf1QBOv6R7MQX8dMsSxOQht_qxQg8NXB8-wXiHfpnZ6rqSh4AWZqXwqQBMDItyEUYKuA9VMsPR5aYbTDAVIdUwPT0QdMw2xeaykeKDnGFQDbWu8TrLzn9cvMIRDK7u8mGjlZhAOk7h_sz-1ysNENYA9Hg6NWbBc1cNH6Yor9-AINz-g4zTuxCFXf9nRdvXhgZP4RJWlmvwhVyObK5Z_AYvABayVn4N0jFuxMDoVcH-DlXlslOfBIzJegazIUsZ8gawxeRy0]--></g></svg>