<?xml version="1.0" encoding="us-ascii" standalone="no"?><svg xmlns="http://www.w3.org/2000/svg" xmlns:xlink="http://www.w3.org/1999/xlink" contentStyleType="text/css" height="1257px" preserveAspectRatio="none" style="width:1044px;height:1257px;background:#FFFFFF;" version="1.1" viewBox="0 0 1044 1257" width="1044px" zoomAndPan="magnify"><defs/><g><rect fill="#FFFFFF" height="1034.5156" style="stroke:#181818;stroke-width:1.0;" width="10" x="199" y="131.3125"/><rect fill="#FFFFFF" height="1004.1641" style="stroke:#181818;stroke-width:1.0;" width="10" x="417" y="161.6641"/><rect fill="#FFFFFF" height="973.8125" style="stroke:#181818;stroke-width:1.0;" width="10" x="596" y="192.0156"/><rect fill="#FFFFFF" height="701.4609" style="stroke:#181818;stroke-width:1.0;" width="10" x="734" y="464.3672"/><rect fill="#FFFFFF" height="30.3516" style="stroke:#181818;stroke-width:1.0;" width="10" x="871.5" y="910.8281"/><rect fill="none" height="860.7578" style="stroke:#000000;stroke-width:1.5;" width="1027" x="10" y="298.0703"/><rect fill="none" height="581.4063" style="stroke:#000000;stroke-width:1.5;" width="1007" x="20" y="570.4219"/><line style="stroke:#181818;stroke-width:0.5;stroke-dasharray:5.0,5.0;" x1="51" x2="51" y1="82.6094" y2="1175.8281"/><line style="stroke:#181818;stroke-width:0.5;stroke-dasharray:5.0,5.0;" x1="203.5" x2="203.5" y1="82.6094" y2="1175.8281"/><line style="stroke:#181818;stroke-width:0.5;stroke-dasharray:5.0,5.0;" x1="422" x2="422" y1="82.6094" y2="1175.8281"/><line style="stroke:#181818;stroke-width:0.5;stroke-dasharray:5.0,5.0;" x1="601" x2="601" y1="82.6094" y2="1175.8281"/><line style="stroke:#181818;stroke-width:0.5;stroke-dasharray:5.0,5.0;" x1="739" x2="739" y1="82.6094" y2="1175.8281"/><line style="stroke:#181818;stroke-width:0.5;stroke-dasharray:5.0,5.0;" x1="876" x2="876" y1="82.6094" y2="1175.8281"/><line style="stroke:#181818;stroke-width:0.5;stroke-dasharray:5.0,5.0;" x1="983" x2="983" y1="82.6094" y2="1175.8281"/><text fill="#000000" font-family="sans-serif" font-size="14" lengthAdjust="spacing" textLength="36" x="30" y="79.5332">Client</text><ellipse cx="51" cy="13.5" fill="#E2E2F0" rx="8" ry="8" style="stroke:#181818;stroke-width:0.5;"/><path d="M51,21.5 L51,48.5 M38,29.5 L64,29.5 M51,48.5 L38,63.5 M51,48.5 L64,63.5 " fill="none" style="stroke:#181818;stroke-width:0.5;"/><text fill="#000000" font-family="sans-serif" font-size="14" lengthAdjust="spacing" textLength="36" x="30" y="1189.3613">Client</text><ellipse cx="51" cy="1200.9375" fill="#E2E2F0" rx="8" ry="8" style="stroke:#181818;stroke-width:0.5;"/><path d="M51,1208.9375 L51,1235.9375 M38,1216.9375 L64,1216.9375 M51,1235.9375 L38,1250.9375 M51,1235.9375 L64,1250.9375 " fill="none" style="stroke:#181818;stroke-width:0.5;"/><rect fill="#E2E2F0" height="31.6094" rx="2.5" ry="2.5" style="stroke:#181818;stroke-width:0.5;" width="105" x="151.5" y="50"/><text fill="#000000" font-family="sans-serif" font-size="14" lengthAdjust="spacing" textLength="91" x="158.5" y="71.5332">AuthController</text><rect fill="#E2E2F0" height="31.6094" rx="2.5" ry="2.5" style="stroke:#181818;stroke-width:0.5;" width="105" x="151.5" y="1174.8281"/><text fill="#000000" font-family="sans-serif" font-size="14" lengthAdjust="spacing" textLength="91" x="158.5" y="1196.3613">AuthController</text><rect fill="#E2E2F0" height="31.6094" rx="2.5" ry="2.5" style="stroke:#181818;stroke-width:0.5;" width="90" x="377" y="50"/><text fill="#000000" font-family="sans-serif" font-size="14" lengthAdjust="spacing" textLength="76" x="384" y="71.5332">AuthService</text><rect fill="#E2E2F0" height="31.6094" rx="2.5" ry="2.5" style="stroke:#181818;stroke-width:0.5;" width="90" x="377" y="1174.8281"/><text fill="#000000" font-family="sans-serif" font-size="14" lengthAdjust="spacing" textLength="76" x="384" y="1196.3613">AuthService</text><rect fill="#E2E2F0" height="49.2188" rx="2.5" ry="2.5" style="stroke:#181818;stroke-width:0.5;" width="128" x="537" y="32.3906"/><text fill="#000000" font-family="sans-serif" font-size="14" lengthAdjust="spacing" textLength="85" x="558.5" y="53.9238">UserManager</text><text fill="#000000" font-family="sans-serif" font-size="14" lengthAdjust="spacing" textLength="114" x="544" y="71.5332">&lt;ApplicationUser&gt;</text><rect fill="#E2E2F0" height="49.2188" rx="2.5" ry="2.5" style="stroke:#181818;stroke-width:0.5;" width="128" x="537" y="1174.8281"/><text fill="#000000" font-family="sans-serif" font-size="14" lengthAdjust="spacing" textLength="85" x="558.5" y="1196.3613">UserManager</text><text fill="#000000" font-family="sans-serif" font-size="14" lengthAdjust="spacing" textLength="114" x="544" y="1213.9707">&lt;ApplicationUser&gt;</text><rect fill="#E2E2F0" height="49.2188" rx="2.5" ry="2.5" style="stroke:#181818;stroke-width:0.5;" width="128" x="675" y="32.3906"/><text fill="#000000" font-family="sans-serif" font-size="14" lengthAdjust="spacing" textLength="95" x="691.5" y="53.9238">SignInManager</text><text fill="#000000" font-family="sans-serif" font-size="14" lengthAdjust="spacing" textLength="114" x="682" y="71.5332">&lt;ApplicationUser&gt;</text><rect fill="#E2E2F0" height="49.2188" rx="2.5" ry="2.5" style="stroke:#181818;stroke-width:0.5;" width="128" x="675" y="1174.8281"/><text fill="#000000" font-family="sans-serif" font-size="14" lengthAdjust="spacing" textLength="95" x="691.5" y="1196.3613">SignInManager</text><text fill="#000000" font-family="sans-serif" font-size="14" lengthAdjust="spacing" textLength="114" x="682" y="1213.9707">&lt;ApplicationUser&gt;</text><rect fill="#E2E2F0" height="31.6094" rx="2.5" ry="2.5" style="stroke:#181818;stroke-width:0.5;" width="127" x="813" y="50"/><text fill="#000000" font-family="sans-serif" font-size="14" lengthAdjust="spacing" textLength="113" x="820" y="71.5332">SmtpEmailService</text><rect fill="#E2E2F0" height="31.6094" rx="2.5" ry="2.5" style="stroke:#181818;stroke-width:0.5;" width="127" x="813" y="1174.8281"/><text fill="#000000" font-family="sans-serif" font-size="14" lengthAdjust="spacing" textLength="113" x="820" y="1196.3613">SmtpEmailService</text><text fill="#000000" font-family="sans-serif" font-size="14" lengthAdjust="spacing" textLength="61" x="950" y="79.5332">Database</text><path d="M965.5,29 C965.5,19 983.5,19 983.5,19 C983.5,19 1001.5,19 1001.5,29 L1001.5,55 C1001.5,65 983.5,65 983.5,65 C983.5,65 965.5,65 965.5,55 L965.5,29 " fill="#E2E2F0" style="stroke:#181818;stroke-width:1.5;"/><path d="M965.5,29 C965.5,39 983.5,39 983.5,39 C983.5,39 1001.5,39 1001.5,29 " fill="none" style="stroke:#181818;stroke-width:1.5;"/><text fill="#000000" font-family="sans-serif" font-size="14" lengthAdjust="spacing" textLength="61" x="950" y="1189.3613">Database</text><path d="M965.5,1202.4375 C965.5,1192.4375 983.5,1192.4375 983.5,1192.4375 C983.5,1192.4375 1001.5,1192.4375 1001.5,1202.4375 L1001.5,1228.4375 C1001.5,1238.4375 983.5,1238.4375 983.5,1238.4375 C983.5,1238.4375 965.5,1238.4375 965.5,1228.4375 L965.5,1202.4375 " fill="#E2E2F0" style="stroke:#181818;stroke-width:1.5;"/><path d="M965.5,1202.4375 C965.5,1212.4375 983.5,1212.4375 983.5,1212.4375 C983.5,1212.4375 1001.5,1212.4375 1001.5,1202.4375 " fill="none" style="stroke:#181818;stroke-width:1.5;"/><rect fill="#FFFFFF" height="1034.5156" style="stroke:#181818;stroke-width:1.0;" width="10" x="199" y="131.3125"/><rect fill="#FFFFFF" height="1004.1641" style="stroke:#181818;stroke-width:1.0;" width="10" x="417" y="161.6641"/><rect fill="#FFFFFF" height="973.8125" style="stroke:#181818;stroke-width:1.0;" width="10" x="596" y="192.0156"/><rect fill="#FFFFFF" height="701.4609" style="stroke:#181818;stroke-width:1.0;" width="10" x="734" y="464.3672"/><rect fill="#FFFFFF" height="30.3516" style="stroke:#181818;stroke-width:1.0;" width="10" x="871.5" y="910.8281"/><polygon fill="#181818" points="187,127.3125,197,131.3125,187,135.3125,191,131.3125" style="stroke:#181818;stroke-width:1.0;"/><line style="stroke:#181818;stroke-width:1.0;" x1="51" x2="193" y1="131.3125" y2="131.3125"/><text fill="#000000" font-family="sans-serif" font-size="13" lengthAdjust="spacing" textLength="120" x="58" y="110.1045">POST /api/auth/login</text><text fill="#000000" font-family="sans-serif" font-size="13" lengthAdjust="spacing" textLength="59" x="58" y="126.4561">(LoginDto)</text><polygon fill="#181818" points="405,157.6641,415,161.6641,405,165.6641,409,161.6641" style="stroke:#181818;stroke-width:1.0;"/><line style="stroke:#181818;stroke-width:1.0;" x1="209" x2="411" y1="161.6641" y2="161.6641"/><text fill="#000000" font-family="sans-serif" font-size="13" lengthAdjust="spacing" textLength="111" x="216" y="156.8076">LoginAsync(model)</text><polygon fill="#181818" points="584,188.0156,594,192.0156,584,196.0156,588,192.0156" style="stroke:#181818;stroke-width:1.0;"/><line style="stroke:#181818;stroke-width:1.0;" x1="427" x2="590" y1="192.0156" y2="192.0156"/><text fill="#000000" font-family="sans-serif" font-size="13" lengthAdjust="spacing" textLength="150" x="434" y="187.1592">FindByEmailAsync(email)</text><polygon fill="#181818" points="971.5,218.3672,981.5,222.3672,971.5,226.3672,975.5,222.3672" style="stroke:#181818;stroke-width:1.0;"/><line style="stroke:#181818;stroke-width:1.0;" x1="606" x2="977.5" y1="222.3672" y2="222.3672"/><text fill="#000000" font-family="sans-serif" font-size="13" lengthAdjust="spacing" textLength="167" x="613" y="217.5107">SELECT user WHERE email</text><polygon fill="#181818" points="617,248.7188,607,252.7188,617,256.7188,613,252.7188" style="stroke:#181818;stroke-width:1.0;"/><line style="stroke:#181818;stroke-width:1.0;stroke-dasharray:2.0,2.0;" x1="611" x2="982.5" y1="252.7188" y2="252.7188"/><text fill="#000000" font-family="sans-serif" font-size="13" lengthAdjust="spacing" textLength="25" x="623" y="247.8623">user</text><polygon fill="#181818" points="438,279.0703,428,283.0703,438,287.0703,434,283.0703" style="stroke:#181818;stroke-width:1.0;"/><line style="stroke:#181818;stroke-width:1.0;stroke-dasharray:2.0,2.0;" x1="432" x2="595" y1="283.0703" y2="283.0703"/><text fill="#000000" font-family="sans-serif" font-size="13" lengthAdjust="spacing" textLength="91" x="444" y="278.2139">ApplicationUser</text><path d="M10,298.0703 L71,298.0703 L71,306.4219 L61,316.4219 L10,316.4219 L10,298.0703 " fill="#EEEEEE" style="stroke:#000000;stroke-width:1.5;"/><rect fill="none" height="860.7578" style="stroke:#000000;stroke-width:1.5;" width="1027" x="10" y="298.0703"/><text fill="#000000" font-family="sans-serif" font-size="13" font-weight="bold" lengthAdjust="spacing" textLength="16" x="25" y="312.5654">alt</text><text fill="#000000" font-family="sans-serif" font-size="11" font-weight="bold" lengthAdjust="spacing" textLength="72" x="86" y="311.4893">[user == null]</text><polygon fill="#181818" points="220,351.125,210,355.125,220,359.125,216,355.125" style="stroke:#181818;stroke-width:1.0;"/><line style="stroke:#181818;stroke-width:1.0;stroke-dasharray:2.0,2.0;" x1="214" x2="416" y1="355.125" y2="355.125"/><text fill="#000000" font-family="sans-serif" font-size="13" lengthAdjust="spacing" textLength="184" x="226" y="333.917">throw InvalidOperationException</text><text fill="#000000" font-family="sans-serif" font-size="13" lengthAdjust="spacing" textLength="102" x="226" y="350.2686">("User not found")</text><polygon fill="#181818" points="62,397.8281,52,401.8281,62,405.8281,58,401.8281" style="stroke:#181818;stroke-width:1.0;"/><line style="stroke:#181818;stroke-width:1.0;stroke-dasharray:2.0,2.0;" x1="56" x2="198" y1="401.8281" y2="401.8281"/><text fill="#000000" font-family="sans-serif" font-size="13" lengthAdjust="spacing" textLength="101" x="68" y="380.6201">401 Unauthorized</text><text fill="#000000" font-family="sans-serif" font-size="13" lengthAdjust="spacing" textLength="94" x="68" y="396.9717">"User not found"</text><line style="stroke:#000000;stroke-width:1.0;stroke-dasharray:2.0,2.0;" x1="10" x2="1037" y1="410.8281" y2="410.8281"/><text fill="#000000" font-family="sans-serif" font-size="11" font-weight="bold" lengthAdjust="spacing" textLength="69" x="15" y="422.2471">[user found]</text><polygon fill="#181818" points="722,460.3672,732,464.3672,722,468.3672,726,464.3672" style="stroke:#181818;stroke-width:1.0;"/><line style="stroke:#181818;stroke-width:1.0;" x1="427" x2="728" y1="464.3672" y2="464.3672"/><text fill="#000000" font-family="sans-serif" font-size="13" lengthAdjust="spacing" textLength="195" x="434" y="443.1592">PasswordSignInAsync(username,</text><text fill="#000000" font-family="sans-serif" font-size="13" lengthAdjust="spacing" textLength="124" x="434" y="459.5107">password, false, true)</text><polygon fill="#181818" points="971.5,490.7188,981.5,494.7188,971.5,498.7188,975.5,494.7188" style="stroke:#181818;stroke-width:1.0;"/><line style="stroke:#181818;stroke-width:1.0;" x1="744" x2="977.5" y1="494.7188" y2="494.7188"/><text fill="#000000" font-family="sans-serif" font-size="13" lengthAdjust="spacing" textLength="114" x="751" y="489.8623">Validate credentials</text><polygon fill="#181818" points="755,521.0703,745,525.0703,755,529.0703,751,525.0703" style="stroke:#181818;stroke-width:1.0;"/><line style="stroke:#181818;stroke-width:1.0;stroke-dasharray:2.0,2.0;" x1="749" x2="982.5" y1="525.0703" y2="525.0703"/><text fill="#000000" font-family="sans-serif" font-size="13" lengthAdjust="spacing" textLength="32" x="761" y="520.2139">result</text><polygon fill="#181818" points="438,551.4219,428,555.4219,438,559.4219,434,555.4219" style="stroke:#181818;stroke-width:1.0;"/><line style="stroke:#181818;stroke-width:1.0;stroke-dasharray:2.0,2.0;" x1="432" x2="733" y1="555.4219" y2="555.4219"/><text fill="#000000" font-family="sans-serif" font-size="13" lengthAdjust="spacing" textLength="73" x="444" y="550.5654">SignInResult</text><path d="M20,570.4219 L81,570.4219 L81,578.7734 L71,588.7734 L20,588.7734 L20,570.4219 " fill="#EEEEEE" style="stroke:#000000;stroke-width:1.5;"/><rect fill="none" height="581.4063" style="stroke:#000000;stroke-width:1.5;" width="1007" x="20" y="570.4219"/><text fill="#000000" font-family="sans-serif" font-size="13" font-weight="bold" lengthAdjust="spacing" textLength="16" x="35" y="584.917">alt</text><text fill="#000000" font-family="sans-serif" font-size="11" font-weight="bold" lengthAdjust="spacing" textLength="105" x="96" y="583.8408">[result.Succeeded]</text><polygon fill="#181818" points="584,607.125,594,611.125,584,615.125,588,611.125" style="stroke:#181818;stroke-width:1.0;"/><line style="stroke:#181818;stroke-width:1.0;" x1="427" x2="590" y1="611.125" y2="611.125"/><text fill="#000000" font-family="sans-serif" font-size="13" lengthAdjust="spacing" textLength="124" x="434" y="606.2686">GetRolesAsync(user)</text><polygon fill="#181818" points="971.5,637.4766,981.5,641.4766,971.5,645.4766,975.5,641.4766" style="stroke:#181818;stroke-width:1.0;"/><line style="stroke:#181818;stroke-width:1.0;" x1="606" x2="977.5" y1="641.4766" y2="641.4766"/><text fill="#000000" font-family="sans-serif" font-size="13" lengthAdjust="spacing" textLength="82" x="613" y="636.6201">SELECT roles</text><polygon fill="#181818" points="617,667.8281,607,671.8281,617,675.8281,613,671.8281" style="stroke:#181818;stroke-width:1.0;"/><line style="stroke:#181818;stroke-width:1.0;stroke-dasharray:2.0,2.0;" x1="611" x2="982.5" y1="671.8281" y2="671.8281"/><text fill="#000000" font-family="sans-serif" font-size="13" lengthAdjust="spacing" textLength="57" x="623" y="666.9717">user roles</text><polygon fill="#181818" points="438,698.1797,428,702.1797,438,706.1797,434,702.1797" style="stroke:#181818;stroke-width:1.0;"/><line style="stroke:#181818;stroke-width:1.0;stroke-dasharray:2.0,2.0;" x1="432" x2="595" y1="702.1797" y2="702.1797"/><text fill="#000000" font-family="sans-serif" font-size="13" lengthAdjust="spacing" textLength="49" x="444" y="697.3232">roles list</text><line style="stroke:#181818;stroke-width:1.0;" x1="427" x2="469" y1="753.5586" y2="753.5586"/><line style="stroke:#181818;stroke-width:1.0;" x1="469" x2="469" y1="753.5586" y2="766.5586"/><line style="stroke:#181818;stroke-width:1.0;" x1="428" x2="469" y1="766.5586" y2="766.5586"/><polygon fill="#181818" points="438,762.5586,428,766.5586,438,770.5586,434,766.5586" style="stroke:#181818;stroke-width:1.0;"/><text fill="#000000" font-family="sans-serif" font-size="13" lengthAdjust="spacing" textLength="140" x="434" y="748.7021">GenerateJwtToken(user)</text><path d="M586,715.1797 L586,790.1797 L713,790.1797 L713,725.1797 L703,715.1797 L586,715.1797 " fill="#FEFFDD" style="stroke:#181818;stroke-width:0.5;"/><path d="M703,715.1797 L703,725.1797 L713,725.1797 L703,715.1797 " fill="#FEFFDD" style="stroke:#181818;stroke-width:0.5;"/><text fill="#000000" font-family="sans-serif" font-size="13" lengthAdjust="spacing" textLength="106" x="592" y="733.6748">Creates JWT with:</text><text fill="#000000" font-family="sans-serif" font-size="13" lengthAdjust="spacing" textLength="77" x="592" y="750.0264">- User claims</text><text fill="#000000" font-family="sans-serif" font-size="13" lengthAdjust="spacing" textLength="41" x="592" y="766.3779">- Roles</text><text fill="#000000" font-family="sans-serif" font-size="13" lengthAdjust="spacing" textLength="95" x="592" y="782.7295">- Expiration time</text><polygon fill="#181818" points="220,813.9375,210,817.9375,220,821.9375,216,817.9375" style="stroke:#181818;stroke-width:1.0;"/><line style="stroke:#181818;stroke-width:1.0;stroke-dasharray:2.0,2.0;" x1="214" x2="416" y1="817.9375" y2="817.9375"/><text fill="#000000" font-family="sans-serif" font-size="13" lengthAdjust="spacing" textLength="62" x="226" y="813.0811">JWT token</text><polygon fill="#181818" points="62,860.6406,52,864.6406,62,868.6406,58,864.6406" style="stroke:#181818;stroke-width:1.0;"/><line style="stroke:#181818;stroke-width:1.0;stroke-dasharray:2.0,2.0;" x1="56" x2="198" y1="864.6406" y2="864.6406"/><text fill="#000000" font-family="sans-serif" font-size="13" lengthAdjust="spacing" textLength="44" x="68" y="843.4326">200 OK</text><text fill="#000000" font-family="sans-serif" font-size="13" lengthAdjust="spacing" textLength="110" x="68" y="859.7842">{token: "jwt-token"}</text><line style="stroke:#000000;stroke-width:1.0;stroke-dasharray:2.0,2.0;" x1="20" x2="1027" y1="873.6406" y2="873.6406"/><text fill="#000000" font-family="sans-serif" font-size="11" font-weight="bold" lengthAdjust="spacing" textLength="114" x="25" y="885.0596">[result.IsLockedOut]</text><polygon fill="#181818" points="859.5,906.8281,869.5,910.8281,859.5,914.8281,863.5,910.8281" style="stroke:#181818;stroke-width:1.0;"/><line style="stroke:#181818;stroke-width:1.0;" x1="427" x2="865.5" y1="910.8281" y2="910.8281"/><text fill="#000000" font-family="sans-serif" font-size="13" lengthAdjust="spacing" textLength="216" x="434" y="905.9717">SendAdminLockoutNotification(email)</text><polygon fill="#181818" points="438,937.1797,428,941.1797,438,945.1797,434,941.1797" style="stroke:#181818;stroke-width:1.0;"/><line style="stroke:#181818;stroke-width:1.0;stroke-dasharray:2.0,2.0;" x1="432" x2="875.5" y1="941.1797" y2="941.1797"/><text fill="#000000" font-family="sans-serif" font-size="13" lengthAdjust="spacing" textLength="91" x="444" y="936.3232">notification sent</text><polygon fill="#181818" points="220,983.8828,210,987.8828,220,991.8828,216,987.8828" style="stroke:#181818;stroke-width:1.0;"/><line style="stroke:#181818;stroke-width:1.0;stroke-dasharray:2.0,2.0;" x1="214" x2="416" y1="987.8828" y2="987.8828"/><text fill="#000000" font-family="sans-serif" font-size="13" lengthAdjust="spacing" textLength="184" x="226" y="966.6748">throw InvalidOperationException</text><text fill="#000000" font-family="sans-serif" font-size="13" lengthAdjust="spacing" textLength="108" x="226" y="983.0264">("Account locked")</text><polygon fill="#181818" points="62,1030.5859,52,1034.5859,62,1038.5859,58,1034.5859" style="stroke:#181818;stroke-width:1.0;"/><line style="stroke:#181818;stroke-width:1.0;stroke-dasharray:2.0,2.0;" x1="56" x2="198" y1="1034.5859" y2="1034.5859"/><text fill="#000000" font-family="sans-serif" font-size="13" lengthAdjust="spacing" textLength="101" x="68" y="1013.3779">401 Unauthorized</text><text fill="#000000" font-family="sans-serif" font-size="13" lengthAdjust="spacing" textLength="100" x="68" y="1029.7295">"Account locked"</text><line style="stroke:#000000;stroke-width:1.0;stroke-dasharray:2.0,2.0;" x1="20" x2="1027" y1="1043.5859" y2="1043.5859"/><text fill="#000000" font-family="sans-serif" font-size="11" font-weight="bold" lengthAdjust="spacing" textLength="108" x="25" y="1055.0049">[invalid credentials]</text><polygon fill="#181818" points="220,1093.125,210,1097.125,220,1101.125,216,1097.125" style="stroke:#181818;stroke-width:1.0;"/><line style="stroke:#181818;stroke-width:1.0;stroke-dasharray:2.0,2.0;" x1="214" x2="416" y1="1097.125" y2="1097.125"/><text fill="#000000" font-family="sans-serif" font-size="13" lengthAdjust="spacing" textLength="184" x="226" y="1075.917">throw InvalidOperationException</text><text fill="#000000" font-family="sans-serif" font-size="13" lengthAdjust="spacing" textLength="84" x="226" y="1092.2686">("Invalid login")</text><polygon fill="#181818" points="62,1139.8281,52,1143.8281,62,1147.8281,58,1143.8281" style="stroke:#181818;stroke-width:1.0;"/><line style="stroke:#181818;stroke-width:1.0;stroke-dasharray:2.0,2.0;" x1="56" x2="198" y1="1143.8281" y2="1143.8281"/><text fill="#000000" font-family="sans-serif" font-size="13" lengthAdjust="spacing" textLength="101" x="68" y="1122.6201">401 Unauthorized</text><text fill="#000000" font-family="sans-serif" font-size="13" lengthAdjust="spacing" textLength="124" x="68" y="1138.9717">"Invalid login attempt"</text><!--SRC=[bLHTRzCm57tFhxZAqogjR22UAZOfJSFeM2bQMlRI5-FSjMQE7JatAmFnt_57sgRP45gbAhRlEVQvvrwRST86KYbGKLGnGuABYYc2E6beasf5Hak99WPMGv8-X-He7WN74C-FuyiQpOmfjaQpKX-IgfA2Cn9QkS2bfondnvHShDLK_OUKJ_kiaggiP49srMHvL31YtrcD44_QaOzCnb4KKeRXfSrg15_d-GBEM2NEcCtfJEgrK2jrSkE-4zA3A6ASn2CZT2OagUVb8_20f7vI_AJK1Sf11vT7KP8xu78sWez25UCdhp70qGqxS6l4SkRGa_48ykmcInVGs8pXxbDscu67HvCn3DiDNSmpMYKzewnWIM63YmjGZPGHs9yJrAPC6wEtC5MFJ8fYNg7ntEmdnyeDRFQ-Vg0qmRrkL14FmXQftoBuDuBtvszXgPnhseXVMAnKdnQXj1NmKlp2NiYbAwJrdjNrLfiYb3wuuz2AbNYwKbKRFeLxPZSw1J8D1Ybxyrn3k0NxtLdupQNbOjnWOPKAI_QOraD_jC6waNIWjbu69RSX64woPWRmcxpX7EsM8Oz3BgueLqYtMc9zI6AmHpshhd78VRXNsbwqKsWV02dgLjf1WOjUeNALnEijBVG3gfu8MnK48zORMxdKe0NMS7stWAsWpMYbXk1hnoKJPUscFXito7vM8dG8a2Zn-EYsezn6v0uz18zxvTtvESm_hzHlZnf1_6DBGp-E_tYExvJMvsbze_a35lE6UdbchaIeYgGeXN8WtT0NJUA-xV_TtTgnzcrYNuJTMfRl3LKTAjJk7To12do9-hexb71kcvv0-cJYmR-yUU4UzQW7XqGuy5bhlrvT6mJ_uBrAt14J616M5RKQxHrt_wZZdxkXdUdoQ6QVokuiZVu2]--></g></svg>