<?xml version="1.0" encoding="us-ascii" standalone="no"?><svg xmlns="http://www.w3.org/2000/svg" xmlns:xlink="http://www.w3.org/1999/xlink" contentStyleType="text/css" height="898px" preserveAspectRatio="none" style="width:2218px;height:898px;background:#FFFFFF;" version="1.1" viewBox="0 0 2218 898" width="2218px" zoomAndPan="magnify"><defs/><g><!--class PatientController--><g id="elem_PatientController"><rect codeLine="2" fill="#F1F1F1" height="83.2188" id="PatientController" rx="2.5" ry="2.5" style="stroke:#181818;stroke-width:0.5;" width="515" x="1407" y="7"/><ellipse cx="1607.25" cy="23" fill="#ADD1B2" rx="11" ry="11" style="stroke:#181818;stroke-width:1.0;"/><path d="M1610.0156,18.875 Q1610.1719,18.6563 1610.3594,18.5469 Q1610.5469,18.4375 1610.7656,18.4375 Q1611.1406,18.4375 1611.375,18.7031 Q1611.6094,18.9531 1611.6094,19.5625 L1611.6094,21.0156 Q1611.6094,21.625 1611.375,21.8906 Q1611.1406,22.1563 1610.7656,22.1563 Q1610.4219,22.1563 1610.2188,21.9531 Q1610.0156,21.7656 1609.9063,21.25 Q1609.8594,20.8906 1609.6719,20.7031 Q1609.3438,20.3281 1608.7344,20.1094 Q1608.125,19.8906 1607.5,19.8906 Q1606.7344,19.8906 1606.0938,20.2188 Q1605.4688,20.5469 1604.9688,21.2969 Q1604.4844,22.0469 1604.4844,23.0781 L1604.4844,24.1719 Q1604.4844,25.4063 1605.375,26.2344 Q1606.2656,27.0469 1607.8594,27.0469 Q1608.7969,27.0469 1609.4531,26.7969 Q1609.8438,26.6406 1610.2656,26.2031 Q1610.5313,25.9375 1610.6719,25.8594 Q1610.8281,25.7813 1611.0313,25.7813 Q1611.3594,25.7813 1611.6094,26.0469 Q1611.875,26.2969 1611.875,26.6406 Q1611.875,26.9844 1611.5313,27.3906 Q1611.0313,27.9688 1610.2344,28.2969 Q1609.1563,28.75 1607.8594,28.75 Q1606.3438,28.75 1605.1406,28.125 Q1604.1563,27.625 1603.4688,26.5625 Q1602.7813,25.4844 1602.7813,24.2031 L1602.7813,23.0469 Q1602.7813,21.7188 1603.3906,20.5781 Q1604.0156,19.4219 1605.1094,18.8125 Q1606.2031,18.1875 1607.4375,18.1875 Q1608.1719,18.1875 1608.8125,18.3594 Q1609.4688,18.5156 1610.0156,18.875 Z " fill="#000000"/><text fill="#000000" font-family="sans-serif" font-size="14" lengthAdjust="spacing" textLength="106" x="1627.75" y="28.7285">PatientController</text><line style="stroke:#181818;stroke-width:0.5;" x1="1408" x2="1921" y1="39" y2="39"/><rect fill="none" height="6" style="stroke:#C82930;stroke-width:1.0;" width="6" x="1415" y="50.3047"/><text fill="#000000" font-family="sans-serif" font-size="14" lengthAdjust="spacing" textLength="152" x="1427" y="57.5332">_service: PatientService</text><line style="stroke:#181818;stroke-width:0.5;" x1="1408" x2="1921" y1="64.6094" y2="64.6094"/><ellipse cx="1418" cy="78.9141" fill="#84BE84" rx="3" ry="3" style="stroke:#038048;stroke-width:1.0;"/><text fill="#000000" font-family="sans-serif" font-size="14" lengthAdjust="spacing" textLength="489" x="1427" y="83.1426">GetPatients(filter: PatientFilterDTO): ActionResult&lt;IEnumerable&lt;PatientDto&gt;&gt;</text></g><!--class PatientService--><g id="elem_PatientService"><rect codeLine="7" fill="#F1F1F1" height="83.2188" id="PatientService" rx="2.5" ry="2.5" style="stroke:#181818;stroke-width:0.5;" width="461" x="811" y="169"/><ellipse cx="991.75" cy="185" fill="#ADD1B2" rx="11" ry="11" style="stroke:#181818;stroke-width:1.0;"/><path d="M994.5156,180.875 Q994.6719,180.6563 994.8594,180.5469 Q995.0469,180.4375 995.2656,180.4375 Q995.6406,180.4375 995.875,180.7031 Q996.1094,180.9531 996.1094,181.5625 L996.1094,183.0156 Q996.1094,183.625 995.875,183.8906 Q995.6406,184.1563 995.2656,184.1563 Q994.9219,184.1563 994.7188,183.9531 Q994.5156,183.7656 994.4063,183.25 Q994.3594,182.8906 994.1719,182.7031 Q993.8438,182.3281 993.2344,182.1094 Q992.625,181.8906 992,181.8906 Q991.2344,181.8906 990.5938,182.2188 Q989.9688,182.5469 989.4688,183.2969 Q988.9844,184.0469 988.9844,185.0781 L988.9844,186.1719 Q988.9844,187.4063 989.875,188.2344 Q990.7656,189.0469 992.3594,189.0469 Q993.2969,189.0469 993.9531,188.7969 Q994.3438,188.6406 994.7656,188.2031 Q995.0313,187.9375 995.1719,187.8594 Q995.3281,187.7813 995.5313,187.7813 Q995.8594,187.7813 996.1094,188.0469 Q996.375,188.2969 996.375,188.6406 Q996.375,188.9844 996.0313,189.3906 Q995.5313,189.9688 994.7344,190.2969 Q993.6563,190.75 992.3594,190.75 Q990.8438,190.75 989.6406,190.125 Q988.6563,189.625 987.9688,188.5625 Q987.2813,187.4844 987.2813,186.2031 L987.2813,185.0469 Q987.2813,183.7188 987.8906,182.5781 Q988.5156,181.4219 989.6094,180.8125 Q990.7031,180.1875 991.9375,180.1875 Q992.6719,180.1875 993.3125,180.3594 Q993.9688,180.5156 994.5156,180.875 Z " fill="#000000"/><text fill="#000000" font-family="sans-serif" font-size="14" lengthAdjust="spacing" textLength="91" x="1012.25" y="190.7285">PatientService</text><line style="stroke:#181818;stroke-width:0.5;" x1="812" x2="1271" y1="201" y2="201"/><rect fill="none" height="6" style="stroke:#C82930;stroke-width:1.0;" width="6" x="819" y="212.3047"/><text fill="#000000" font-family="sans-serif" font-size="14" lengthAdjust="spacing" textLength="194" x="831" y="219.5332">_repository: IPatientRepository</text><line style="stroke:#181818;stroke-width:0.5;" x1="812" x2="1271" y1="226.6094" y2="226.6094"/><ellipse cx="822" cy="240.9141" fill="#84BE84" rx="3" ry="3" style="stroke:#038048;stroke-width:1.0;"/><text fill="#000000" font-family="sans-serif" font-size="14" lengthAdjust="spacing" textLength="435" x="831" y="245.1426">GetFilteredPatient(filter: PatientFilterDTO): IEnumerable&lt;PatientDto&gt;</text></g><!--class IPatientRepository--><g id="elem_IPatientRepository"><rect codeLine="12" fill="#F1F1F1" height="65.6094" id="IPatientRepository" rx="2.5" ry="2.5" style="stroke:#181818;stroke-width:0.5;" width="477" x="363" y="418"/><ellipse cx="539.25" cy="434" fill="#B4A7E5" rx="11" ry="11" style="stroke:#181818;stroke-width:1.0;"/><path d="M540.2031,430.6406 L540.2031,437.2969 L541.9219,437.2969 Q542.5313,437.2969 542.7969,437.5313 Q543.0625,437.7656 543.0625,438.1563 Q543.0625,438.5313 542.7969,438.7656 Q542.5313,439 541.9219,439 L536.7813,439 Q536.1719,439 535.9063,438.7656 Q535.6406,438.5313 535.6406,438.1406 Q535.6406,437.7656 535.9063,437.5313 Q536.1719,437.2969 536.7813,437.2969 L538.5,437.2969 L538.5,430.6406 L536.7813,430.6406 Q536.1719,430.6406 535.9063,430.4063 Q535.6406,430.1719 535.6406,429.7813 Q535.6406,429.4063 535.9063,429.1719 Q536.1719,428.9375 536.7813,428.9375 L541.9219,428.9375 Q542.5313,428.9375 542.7969,429.1719 Q543.0625,429.4063 543.0625,429.7813 Q543.0625,430.1719 542.7969,430.4063 Q542.5313,430.6406 541.9219,430.6406 L540.2031,430.6406 Z " fill="#000000"/><text fill="#000000" font-family="sans-serif" font-size="14" font-style="italic" lengthAdjust="spacing" textLength="116" x="559.75" y="439.7285">IPatientRepository</text><line style="stroke:#181818;stroke-width:0.5;" x1="364" x2="839" y1="450" y2="450"/><line style="stroke:#181818;stroke-width:0.5;" x1="364" x2="839" y1="458" y2="458"/><ellipse cx="374" cy="472.3047" fill="#84BE84" rx="3" ry="3" style="stroke:#038048;stroke-width:1.0;"/><text fill="#000000" font-family="sans-serif" font-size="14" lengthAdjust="spacing" textLength="451" x="383" y="476.5332">GetFilteredPatientAsync(filter: PatientFilterDTO): IEnumerable&lt;Patient&gt;</text></g><!--class PatientRepository--><g id="elem_PatientRepository"><rect codeLine="16" fill="#F1F1F1" height="83.2188" id="PatientRepository" rx="2.5" ry="2.5" style="stroke:#181818;stroke-width:0.5;" width="477" x="7" y="169"/><ellipse cx="185.25" cy="185" fill="#ADD1B2" rx="11" ry="11" style="stroke:#181818;stroke-width:1.0;"/><path d="M188.0156,180.875 Q188.1719,180.6563 188.3594,180.5469 Q188.5469,180.4375 188.7656,180.4375 Q189.1406,180.4375 189.375,180.7031 Q189.6094,180.9531 189.6094,181.5625 L189.6094,183.0156 Q189.6094,183.625 189.375,183.8906 Q189.1406,184.1563 188.7656,184.1563 Q188.4219,184.1563 188.2188,183.9531 Q188.0156,183.7656 187.9063,183.25 Q187.8594,182.8906 187.6719,182.7031 Q187.3438,182.3281 186.7344,182.1094 Q186.125,181.8906 185.5,181.8906 Q184.7344,181.8906 184.0938,182.2188 Q183.4688,182.5469 182.9688,183.2969 Q182.4844,184.0469 182.4844,185.0781 L182.4844,186.1719 Q182.4844,187.4063 183.375,188.2344 Q184.2656,189.0469 185.8594,189.0469 Q186.7969,189.0469 187.4531,188.7969 Q187.8438,188.6406 188.2656,188.2031 Q188.5313,187.9375 188.6719,187.8594 Q188.8281,187.7813 189.0313,187.7813 Q189.3594,187.7813 189.6094,188.0469 Q189.875,188.2969 189.875,188.6406 Q189.875,188.9844 189.5313,189.3906 Q189.0313,189.9688 188.2344,190.2969 Q187.1563,190.75 185.8594,190.75 Q184.3438,190.75 183.1406,190.125 Q182.1563,189.625 181.4688,188.5625 Q180.7813,187.4844 180.7813,186.2031 L180.7813,185.0469 Q180.7813,183.7188 181.3906,182.5781 Q182.0156,181.4219 183.1094,180.8125 Q184.2031,180.1875 185.4375,180.1875 Q186.1719,180.1875 186.8125,180.3594 Q187.4688,180.5156 188.0156,180.875 Z " fill="#000000"/><text fill="#000000" font-family="sans-serif" font-size="14" lengthAdjust="spacing" textLength="112" x="205.75" y="190.7285">PatientRepository</text><line style="stroke:#181818;stroke-width:0.5;" x1="8" x2="483" y1="201" y2="201"/><rect fill="none" height="6" style="stroke:#C82930;stroke-width:1.0;" width="6" x="15" y="212.3047"/><text fill="#000000" font-family="sans-serif" font-size="14" lengthAdjust="spacing" textLength="212" x="27" y="219.5332">_context: DDDSample1DbContext</text><line style="stroke:#181818;stroke-width:0.5;" x1="8" x2="483" y1="226.6094" y2="226.6094"/><ellipse cx="18" cy="240.9141" fill="#84BE84" rx="3" ry="3" style="stroke:#038048;stroke-width:1.0;"/><text fill="#000000" font-family="sans-serif" font-size="14" lengthAdjust="spacing" textLength="451" x="27" y="245.1426">GetFilteredPatientAsync(filter: PatientFilterDTO): IEnumerable&lt;Patient&gt;</text></g><!--class DDDSample1DbContext--><g id="elem_DDDSample1DbContext"><rect codeLine="21" fill="#F1F1F1" height="65.6094" id="DDDSample1DbContext" rx="2.5" ry="2.5" style="stroke:#181818;stroke-width:0.5;" width="184" x="31.5" y="418"/><ellipse cx="46.95" cy="434" fill="#ADD1B2" rx="11" ry="11" style="stroke:#181818;stroke-width:1.0;"/><path d="M49.7156,429.875 Q49.8719,429.6563 50.0594,429.5469 Q50.2469,429.4375 50.4656,429.4375 Q50.8406,429.4375 51.075,429.7031 Q51.3094,429.9531 51.3094,430.5625 L51.3094,432.0156 Q51.3094,432.625 51.075,432.8906 Q50.8406,433.1563 50.4656,433.1563 Q50.1219,433.1563 49.9188,432.9531 Q49.7156,432.7656 49.6063,432.25 Q49.5594,431.8906 49.3719,431.7031 Q49.0438,431.3281 48.4344,431.1094 Q47.825,430.8906 47.2,430.8906 Q46.4344,430.8906 45.7938,431.2188 Q45.1688,431.5469 44.6688,432.2969 Q44.1844,433.0469 44.1844,434.0781 L44.1844,435.1719 Q44.1844,436.4063 45.075,437.2344 Q45.9656,438.0469 47.5594,438.0469 Q48.4969,438.0469 49.1531,437.7969 Q49.5438,437.6406 49.9656,437.2031 Q50.2313,436.9375 50.3719,436.8594 Q50.5281,436.7813 50.7313,436.7813 Q51.0594,436.7813 51.3094,437.0469 Q51.575,437.2969 51.575,437.6406 Q51.575,437.9844 51.2313,438.3906 Q50.7313,438.9688 49.9344,439.2969 Q48.8563,439.75 47.5594,439.75 Q46.0438,439.75 44.8406,439.125 Q43.8563,438.625 43.1688,437.5625 Q42.4813,436.4844 42.4813,435.2031 L42.4813,434.0469 Q42.4813,432.7188 43.0906,431.5781 Q43.7156,430.4219 44.8094,429.8125 Q45.9031,429.1875 47.1375,429.1875 Q47.8719,429.1875 48.5125,429.3594 Q49.1688,429.5156 49.7156,429.875 Z " fill="#000000"/><text fill="#000000" font-family="sans-serif" font-size="14" lengthAdjust="spacing" textLength="151" x="61.05" y="439.7285">DDDSample1DbContext</text><line style="stroke:#181818;stroke-width:0.5;" x1="32.5" x2="214.5" y1="450" y2="450"/><ellipse cx="42.5" cy="464.3047" fill="none" rx="3" ry="3" style="stroke:#038048;stroke-width:1.0;"/><text fill="#000000" font-family="sans-serif" font-size="14" lengthAdjust="spacing" textLength="158" x="51.5" y="468.5332">Patients: DbSet&lt;Patient&gt;</text><line style="stroke:#181818;stroke-width:0.5;" x1="32.5" x2="214.5" y1="475.6094" y2="475.6094"/></g><!--class Patient--><g id="elem_Patient"><rect codeLine="25" fill="#F1F1F1" height="241.7031" id="Patient" rx="2.5" ry="2.5" style="stroke:#181818;stroke-width:0.5;" width="191" x="269" y="650"/><ellipse cx="338.25" cy="666" fill="#ADD1B2" rx="11" ry="11" style="stroke:#181818;stroke-width:1.0;"/><path d="M341.0156,661.875 Q341.1719,661.6563 341.3594,661.5469 Q341.5469,661.4375 341.7656,661.4375 Q342.1406,661.4375 342.375,661.7031 Q342.6094,661.9531 342.6094,662.5625 L342.6094,664.0156 Q342.6094,664.625 342.375,664.8906 Q342.1406,665.1563 341.7656,665.1563 Q341.4219,665.1563 341.2188,664.9531 Q341.0156,664.7656 340.9063,664.25 Q340.8594,663.8906 340.6719,663.7031 Q340.3438,663.3281 339.7344,663.1094 Q339.125,662.8906 338.5,662.8906 Q337.7344,662.8906 337.0938,663.2188 Q336.4688,663.5469 335.9688,664.2969 Q335.4844,665.0469 335.4844,666.0781 L335.4844,667.1719 Q335.4844,668.4063 336.375,669.2344 Q337.2656,670.0469 338.8594,670.0469 Q339.7969,670.0469 340.4531,669.7969 Q340.8438,669.6406 341.2656,669.2031 Q341.5313,668.9375 341.6719,668.8594 Q341.8281,668.7813 342.0313,668.7813 Q342.3594,668.7813 342.6094,669.0469 Q342.875,669.2969 342.875,669.6406 Q342.875,669.9844 342.5313,670.3906 Q342.0313,670.9688 341.2344,671.2969 Q340.1563,671.75 338.8594,671.75 Q337.3438,671.75 336.1406,671.125 Q335.1563,670.625 334.4688,669.5625 Q333.7813,668.4844 333.7813,667.2031 L333.7813,666.0469 Q333.7813,664.7188 334.3906,663.5781 Q335.0156,662.4219 336.1094,661.8125 Q337.2031,661.1875 338.4375,661.1875 Q339.1719,661.1875 339.8125,661.3594 Q340.4688,661.5156 341.0156,661.875 Z " fill="#000000"/><text fill="#000000" font-family="sans-serif" font-size="14" lengthAdjust="spacing" textLength="44" x="358.75" y="671.7285">Patient</text><line style="stroke:#181818;stroke-width:0.5;" x1="270" x2="459" y1="682" y2="682"/><ellipse cx="280" cy="696.3047" fill="none" rx="3" ry="3" style="stroke:#038048;stroke-width:1.0;"/><text fill="#000000" font-family="sans-serif" font-size="14" lengthAdjust="spacing" textLength="83" x="289" y="700.5332">UserId: string</text><ellipse cx="280" cy="713.9141" fill="none" rx="3" ry="3" style="stroke:#038048;stroke-width:1.0;"/><text fill="#000000" font-family="sans-serif" font-size="14" lengthAdjust="spacing" textLength="107" x="289" y="718.1426">FirstName: string</text><ellipse cx="280" cy="731.5234" fill="none" rx="3" ry="3" style="stroke:#038048;stroke-width:1.0;"/><text fill="#000000" font-family="sans-serif" font-size="14" lengthAdjust="spacing" textLength="106" x="289" y="735.752">LastName: string</text><ellipse cx="280" cy="749.1328" fill="none" rx="3" ry="3" style="stroke:#038048;stroke-width:1.0;"/><text fill="#000000" font-family="sans-serif" font-size="14" lengthAdjust="spacing" textLength="77" x="289" y="753.3613">Email: string</text><ellipse cx="280" cy="766.7422" fill="none" rx="3" ry="3" style="stroke:#038048;stroke-width:1.0;"/><text fill="#000000" font-family="sans-serif" font-size="14" lengthAdjust="spacing" textLength="133" x="289" y="770.9707">PhoneNumber: string</text><ellipse cx="280" cy="784.3516" fill="none" rx="3" ry="3" style="stroke:#038048;stroke-width:1.0;"/><text fill="#000000" font-family="sans-serif" font-size="14" lengthAdjust="spacing" textLength="140" x="289" y="788.5801">DateofBirth: DateTime</text><ellipse cx="280" cy="801.9609" fill="none" rx="3" ry="3" style="stroke:#038048;stroke-width:1.0;"/><text fill="#000000" font-family="sans-serif" font-size="14" lengthAdjust="spacing" textLength="115" x="289" y="806.1895">ContactInfo: string</text><ellipse cx="280" cy="819.5703" fill="none" rx="3" ry="3" style="stroke:#038048;stroke-width:1.0;"/><text fill="#000000" font-family="sans-serif" font-size="14" lengthAdjust="spacing" textLength="163" x="289" y="823.7988">EmergencyContact: string</text><ellipse cx="280" cy="837.1797" fill="none" rx="3" ry="3" style="stroke:#038048;stroke-width:1.0;"/><text fill="#000000" font-family="sans-serif" font-size="14" lengthAdjust="spacing" textLength="165" x="289" y="841.4082">AppointmentHistory: string</text><ellipse cx="280" cy="854.7891" fill="none" rx="3" ry="3" style="stroke:#038048;stroke-width:1.0;"/><text fill="#000000" font-family="sans-serif" font-size="14" lengthAdjust="spacing" textLength="134" x="289" y="859.0176">MedicalHistory: string</text><ellipse cx="280" cy="872.3984" fill="none" rx="3" ry="3" style="stroke:#038048;stroke-width:1.0;"/><text fill="#000000" font-family="sans-serif" font-size="14" lengthAdjust="spacing" textLength="105" x="289" y="876.627">MedicalNr: string</text><line style="stroke:#181818;stroke-width:0.5;" x1="270" x2="459" y1="883.7031" y2="883.7031"/></g><!--class PatientFilterDTO--><g id="elem_PatientFilterDTO"><rect codeLine="39" fill="#F1F1F1" height="100.8281" id="PatientFilterDTO" rx="2.5" ry="2.5" style="stroke:#181818;stroke-width:0.5;" width="138" x="1067.5" y="720.5"/><ellipse cx="1082.5" cy="736.5" fill="#ADD1B2" rx="11" ry="11" style="stroke:#181818;stroke-width:1.0;"/><path d="M1085.2656,732.375 Q1085.4219,732.1563 1085.6094,732.0469 Q1085.7969,731.9375 1086.0156,731.9375 Q1086.3906,731.9375 1086.625,732.2031 Q1086.8594,732.4531 1086.8594,733.0625 L1086.8594,734.5156 Q1086.8594,735.125 1086.625,735.3906 Q1086.3906,735.6563 1086.0156,735.6563 Q1085.6719,735.6563 1085.4688,735.4531 Q1085.2656,735.2656 1085.1563,734.75 Q1085.1094,734.3906 1084.9219,734.2031 Q1084.5938,733.8281 1083.9844,733.6094 Q1083.375,733.3906 1082.75,733.3906 Q1081.9844,733.3906 1081.3438,733.7188 Q1080.7188,734.0469 1080.2188,734.7969 Q1079.7344,735.5469 1079.7344,736.5781 L1079.7344,737.6719 Q1079.7344,738.9063 1080.625,739.7344 Q1081.5156,740.5469 1083.1094,740.5469 Q1084.0469,740.5469 1084.7031,740.2969 Q1085.0938,740.1406 1085.5156,739.7031 Q1085.7813,739.4375 1085.9219,739.3594 Q1086.0781,739.2813 1086.2813,739.2813 Q1086.6094,739.2813 1086.8594,739.5469 Q1087.125,739.7969 1087.125,740.1406 Q1087.125,740.4844 1086.7813,740.8906 Q1086.2813,741.4688 1085.4844,741.7969 Q1084.4063,742.25 1083.1094,742.25 Q1081.5938,742.25 1080.3906,741.625 Q1079.4063,741.125 1078.7188,740.0625 Q1078.0313,738.9844 1078.0313,737.7031 L1078.0313,736.5469 Q1078.0313,735.2188 1078.6406,734.0781 Q1079.2656,732.9219 1080.3594,732.3125 Q1081.4531,731.6875 1082.6875,731.6875 Q1083.4219,731.6875 1084.0625,731.8594 Q1084.7188,732.0156 1085.2656,732.375 Z " fill="#000000"/><text fill="#000000" font-family="sans-serif" font-size="14" lengthAdjust="spacing" textLength="106" x="1096.5" y="742.2285">PatientFilterDTO</text><line style="stroke:#181818;stroke-width:0.5;" x1="1068.5" x2="1204.5" y1="752.5" y2="752.5"/><ellipse cx="1078.5" cy="766.8047" fill="none" rx="3" ry="3" style="stroke:#038048;stroke-width:1.0;"/><text fill="#000000" font-family="sans-serif" font-size="14" lengthAdjust="spacing" textLength="107" x="1087.5" y="771.0332">FirstName: string</text><ellipse cx="1078.5" cy="784.4141" fill="none" rx="3" ry="3" style="stroke:#038048;stroke-width:1.0;"/><text fill="#000000" font-family="sans-serif" font-size="14" lengthAdjust="spacing" textLength="106" x="1087.5" y="788.6426">LastName: string</text><ellipse cx="1078.5" cy="802.0234" fill="none" rx="3" ry="3" style="stroke:#038048;stroke-width:1.0;"/><text fill="#000000" font-family="sans-serif" font-size="14" lengthAdjust="spacing" textLength="77" x="1087.5" y="806.252">Email: string</text><line style="stroke:#181818;stroke-width:0.5;" x1="1068.5" x2="1204.5" y1="813.3281" y2="813.3281"/></g><!--class PatientDto--><g id="elem_PatientDto"><rect codeLine="45" fill="#F1F1F1" height="241.7031" id="PatientDto" rx="2.5" ry="2.5" style="stroke:#181818;stroke-width:0.5;" width="191" x="1463" y="330"/><ellipse cx="1521.25" cy="346" fill="#ADD1B2" rx="11" ry="11" style="stroke:#181818;stroke-width:1.0;"/><path d="M1524.0156,341.875 Q1524.1719,341.6563 1524.3594,341.5469 Q1524.5469,341.4375 1524.7656,341.4375 Q1525.1406,341.4375 1525.375,341.7031 Q1525.6094,341.9531 1525.6094,342.5625 L1525.6094,344.0156 Q1525.6094,344.625 1525.375,344.8906 Q1525.1406,345.1563 1524.7656,345.1563 Q1524.4219,345.1563 1524.2188,344.9531 Q1524.0156,344.7656 1523.9063,344.25 Q1523.8594,343.8906 1523.6719,343.7031 Q1523.3438,343.3281 1522.7344,343.1094 Q1522.125,342.8906 1521.5,342.8906 Q1520.7344,342.8906 1520.0938,343.2188 Q1519.4688,343.5469 1518.9688,344.2969 Q1518.4844,345.0469 1518.4844,346.0781 L1518.4844,347.1719 Q1518.4844,348.4063 1519.375,349.2344 Q1520.2656,350.0469 1521.8594,350.0469 Q1522.7969,350.0469 1523.4531,349.7969 Q1523.8438,349.6406 1524.2656,349.2031 Q1524.5313,348.9375 1524.6719,348.8594 Q1524.8281,348.7813 1525.0313,348.7813 Q1525.3594,348.7813 1525.6094,349.0469 Q1525.875,349.2969 1525.875,349.6406 Q1525.875,349.9844 1525.5313,350.3906 Q1525.0313,350.9688 1524.2344,351.2969 Q1523.1563,351.75 1521.8594,351.75 Q1520.3438,351.75 1519.1406,351.125 Q1518.1563,350.625 1517.4688,349.5625 Q1516.7813,348.4844 1516.7813,347.2031 L1516.7813,346.0469 Q1516.7813,344.7188 1517.3906,343.5781 Q1518.0156,342.4219 1519.1094,341.8125 Q1520.2031,341.1875 1521.4375,341.1875 Q1522.1719,341.1875 1522.8125,341.3594 Q1523.4688,341.5156 1524.0156,341.875 Z " fill="#000000"/><text fill="#000000" font-family="sans-serif" font-size="14" lengthAdjust="spacing" textLength="66" x="1541.75" y="351.7285">PatientDto</text><line style="stroke:#181818;stroke-width:0.5;" x1="1464" x2="1653" y1="362" y2="362"/><ellipse cx="1474" cy="376.3047" fill="none" rx="3" ry="3" style="stroke:#038048;stroke-width:1.0;"/><text fill="#000000" font-family="sans-serif" font-size="14" lengthAdjust="spacing" textLength="54" x="1483" y="380.5332">Id: string</text><ellipse cx="1474" cy="393.9141" fill="none" rx="3" ry="3" style="stroke:#038048;stroke-width:1.0;"/><text fill="#000000" font-family="sans-serif" font-size="14" lengthAdjust="spacing" textLength="107" x="1483" y="398.1426">FirstName: string</text><ellipse cx="1474" cy="411.5234" fill="none" rx="3" ry="3" style="stroke:#038048;stroke-width:1.0;"/><text fill="#000000" font-family="sans-serif" font-size="14" lengthAdjust="spacing" textLength="106" x="1483" y="415.752">LastName: string</text><ellipse cx="1474" cy="429.1328" fill="none" rx="3" ry="3" style="stroke:#038048;stroke-width:1.0;"/><text fill="#000000" font-family="sans-serif" font-size="14" lengthAdjust="spacing" textLength="77" x="1483" y="433.3613">Email: string</text><ellipse cx="1474" cy="446.7422" fill="none" rx="3" ry="3" style="stroke:#038048;stroke-width:1.0;"/><text fill="#000000" font-family="sans-serif" font-size="14" lengthAdjust="spacing" textLength="133" x="1483" y="450.9707">PhoneNumber: string</text><ellipse cx="1474" cy="464.3516" fill="none" rx="3" ry="3" style="stroke:#038048;stroke-width:1.0;"/><text fill="#000000" font-family="sans-serif" font-size="14" lengthAdjust="spacing" textLength="140" x="1483" y="468.5801">DateofBirth: DateTime</text><ellipse cx="1474" cy="481.9609" fill="none" rx="3" ry="3" style="stroke:#038048;stroke-width:1.0;"/><text fill="#000000" font-family="sans-serif" font-size="14" lengthAdjust="spacing" textLength="115" x="1483" y="486.1895">ContactInfo: string</text><ellipse cx="1474" cy="499.5703" fill="none" rx="3" ry="3" style="stroke:#038048;stroke-width:1.0;"/><text fill="#000000" font-family="sans-serif" font-size="14" lengthAdjust="spacing" textLength="163" x="1483" y="503.7988">EmergencyContact: string</text><ellipse cx="1474" cy="517.1797" fill="none" rx="3" ry="3" style="stroke:#038048;stroke-width:1.0;"/><text fill="#000000" font-family="sans-serif" font-size="14" lengthAdjust="spacing" textLength="165" x="1483" y="521.4082">AppointmentHistory: string</text><ellipse cx="1474" cy="534.7891" fill="none" rx="3" ry="3" style="stroke:#038048;stroke-width:1.0;"/><text fill="#000000" font-family="sans-serif" font-size="14" lengthAdjust="spacing" textLength="134" x="1483" y="539.0176">MedicalHistory: string</text><ellipse cx="1474" cy="552.3984" fill="none" rx="3" ry="3" style="stroke:#038048;stroke-width:1.0;"/><text fill="#000000" font-family="sans-serif" font-size="14" lengthAdjust="spacing" textLength="105" x="1483" y="556.627">MedicalNr: string</text><line style="stroke:#181818;stroke-width:0.5;" x1="1464" x2="1653" y1="563.7031" y2="563.7031"/></g><path d="M1957.5,6 L1957.5,39.7031 L1916,77.4141 L1957.5,47.7031 L1957.5,81.4063 A0,0 0 0 0 1957.5,81.4063 L2211.5,81.4063 A0,0 0 0 0 2211.5,81.4063 L2211.5,16 L2201.5,6 L1957.5,6 A0,0 0 0 0 1957.5,6 " fill="#FEFFDD" style="stroke:#181818;stroke-width:0.5;"/><path d="M2201.5,6 L2201.5,16 L2211.5,16 L2201.5,6 " fill="#FEFFDD" style="stroke:#181818;stroke-width:0.5;"/><text fill="#000000" font-family="sans-serif" font-size="13" lengthAdjust="spacing" textLength="167" x="1963.5" y="24.4951">1. Receives PatientFilterDTO</text><text fill="#000000" font-family="sans-serif" font-size="13" lengthAdjust="spacing" textLength="212" x="1963.5" y="40.8467">2. Calls _service.GetFilteredPatient()</text><text fill="#000000" font-family="sans-serif" font-size="13" lengthAdjust="spacing" textLength="154" x="1963.5" y="57.1982">3. Checks if patients found</text><text fill="#000000" font-family="sans-serif" font-size="13" lengthAdjust="spacing" textLength="233" x="1963.5" y="73.5498">4. Returns NotFound or Ok with patients</text><path d="M1307,176 L1307,201.5273 L1266,239.4141 L1307,209.5273 L1307,235.0547 A0,0 0 0 0 1307,235.0547 L1594,235.0547 A0,0 0 0 0 1594,235.0547 L1594,186 L1584,176 L1307,176 A0,0 0 0 0 1307,176 " fill="#FEFFDD" style="stroke:#181818;stroke-width:0.5;"/><path d="M1584,176 L1584,186 L1594,186 L1584,176 " fill="#FEFFDD" style="stroke:#181818;stroke-width:0.5;"/><text fill="#000000" font-family="sans-serif" font-size="13" lengthAdjust="spacing" textLength="266" x="1313" y="194.4951">1. Calls _repository.GetFilteredPatientAsync()</text><text fill="#000000" font-family="sans-serif" font-size="13" lengthAdjust="spacing" textLength="204" x="1313" y="210.8467">2. Transforms Patient to PatientDto</text><text fill="#000000" font-family="sans-serif" font-size="13" lengthAdjust="spacing" textLength="213" x="1313" y="227.1982">3. Returns IEnumerable&lt;PatientDto&gt;</text><path d="M519.5,176 L519.5,201.5273 L478,239.4141 L519.5,209.5273 L519.5,235.0547 A0,0 0 0 0 519.5,235.0547 L775.5,235.0547 A0,0 0 0 0 775.5,235.0547 L775.5,186 L765.5,176 L519.5,176 A0,0 0 0 0 519.5,176 " fill="#FEFFDD" style="stroke:#181818;stroke-width:0.5;"/><path d="M765.5,176 L765.5,186 L775.5,186 L765.5,176 " fill="#FEFFDD" style="stroke:#181818;stroke-width:0.5;"/><text fill="#000000" font-family="sans-serif" font-size="13" lengthAdjust="spacing" textLength="166" x="525.5" y="194.4951">1. Queries _context.Patients</text><text fill="#000000" font-family="sans-serif" font-size="13" lengthAdjust="spacing" textLength="222" x="525.5" y="210.8467">2. Applies filters from PatientFilterDTO</text><text fill="#000000" font-family="sans-serif" font-size="13" lengthAdjust="spacing" textLength="235" x="525.5" y="227.1982">3. Returns filtered IEnumerable&lt;Patient&gt;</text><!--link PatientController to PatientService--><g id="link_PatientController_PatientService"><path codeLine="59" d="M1506.49,90.08 C1412.4,114.25 1299.2115,143.3177 1205.1615,167.4677 " fill="none" id="PatientController-to-PatientService" style="stroke:#181818;stroke-width:1.0;"/><polygon fill="#181818" points="1199.35,168.96,1209.062,170.5959,1204.1929,167.7165,1207.0724,162.8473,1199.35,168.96" style="stroke:#181818;stroke-width:1.0;"/><text fill="#000000" font-family="sans-serif" font-size="13" lengthAdjust="spacing" textLength="28" x="1372.5" y="135.4951">uses</text></g><!--link PatientService to IPatientRepository--><g id="link_PatientService_IPatientRepository"><path codeLine="60" d="M966.36,252.23 C879.96,299.06 745.1851,372.1211 666.0851,414.9911 " fill="none" id="PatientService-to-IPatientRepository" style="stroke:#181818;stroke-width:1.0;"/><polygon fill="#181818" points="660.81,417.85,670.6286,417.0783,665.2059,415.4675,666.8167,410.0449,660.81,417.85" style="stroke:#181818;stroke-width:1.0;"/><text fill="#000000" font-family="sans-serif" font-size="13" lengthAdjust="spacing" textLength="28" x="900.5" y="296.4951">uses</text></g><!--link PatientRepository to IPatientRepository--><g id="link_PatientRepository_IPatientRepository"><path codeLine="61" d="M306.29,252.23 C376.2,299.06 474.5551,364.9625 538.5551,407.8325 " fill="none" id="PatientRepository-to-IPatientRepository" style="stroke:#181818;stroke-width:1.0;stroke-dasharray:7.0,7.0;"/><polygon fill="none" points="553.51,417.85,541.8942,402.8475,535.2159,412.8175,553.51,417.85" style="stroke:#181818;stroke-width:1.0;"/><text fill="#000000" font-family="sans-serif" font-size="13" lengthAdjust="spacing" textLength="67" x="372.5" y="296.4951">implements</text></g><!--link PatientRepository to DDDSample1DbContext--><g id="link_PatientRepository_DDDSample1DbContext"><path codeLine="62" d="M224.67,252.23 C200.71,299.06 164.6125,369.6383 142.6825,412.5083 " fill="none" id="PatientRepository-to-DDDSample1DbContext" style="stroke:#181818;stroke-width:1.0;"/><polygon fill="#181818" points="139.95,417.85,147.6099,411.6592,142.2271,413.3986,140.4877,408.0158,139.95,417.85" style="stroke:#181818;stroke-width:1.0;"/><text fill="#000000" font-family="sans-serif" font-size="13" lengthAdjust="spacing" textLength="28" x="207.5" y="296.4951">uses</text></g><!--link DDDSample1DbContext to Patient--><g id="link_DDDSample1DbContext_Patient"><path codeLine="63" d="M135.93,484.15 C150.39,519.38 176.43,576.63 208.5,620 C226.04,643.72 243.2043,662.7908 264.5143,683.6708 " fill="none" id="DDDSample1DbContext-to-Patient" style="stroke:#181818;stroke-width:1.0;"/><polygon fill="#181818" points="268.8,687.87,265.171,678.7141,265.2286,684.3707,259.5721,684.4283,268.8,687.87" style="stroke:#181818;stroke-width:1.0;"/><text fill="#000000" font-family="sans-serif" font-size="13" lengthAdjust="spacing" textLength="49" x="209.5" y="616.4951">contains</text></g><!--link PatientController to PatientFilterDTO--><g id="link_PatientController_PatientFilterDTO"><path codeLine="65" d="M1679.87,90.31 C1712.73,185.19 1778.51,423.79 1671.5,572 C1562.22,723.36 1329.785,758.7464 1211.665,767.1064 " fill="none" id="PatientController-to-PatientFilterDTO" style="stroke:#181818;stroke-width:1.0;stroke-dasharray:7.0,7.0;"/><polygon fill="#181818" points="1205.68,767.53,1214.9399,770.8846,1210.6675,767.177,1214.3751,762.9046,1205.68,767.53" style="stroke:#181818;stroke-width:1.0;"/><text fill="#000000" font-family="sans-serif" font-size="13" lengthAdjust="spacing" textLength="28" x="1727.5" y="296.4951">uses</text></g><!--link PatientController to PatientDto--><g id="link_PatientController_PatientDto"><path codeLine="66" d="M1653.91,90.24 C1643.26,131.15 1626.33,195.97 1611.5,252 C1604.83,277.2 1599.19,298.3937 1592.32,324.0837 " fill="none" id="PatientController-to-PatientDto" style="stroke:#181818;stroke-width:1.0;stroke-dasharray:7.0,7.0;"/><polygon fill="#181818" points="1590.77,329.88,1596.9593,322.2189,1592.0617,325.0497,1589.2309,320.1522,1590.77,329.88" style="stroke:#181818;stroke-width:1.0;"/><text fill="#000000" font-family="sans-serif" font-size="13" lengthAdjust="spacing" textLength="40" x="1633.5" y="215.9951">returns</text></g><!--link PatientService to PatientFilterDTO--><g id="link_PatientService_PatientFilterDTO"><path codeLine="67" d="M1099.42,252.01 C1123.43,272.34 1148.63,299.2 1161.5,330 C1216.74,462.19 1179.5051,630.6574 1154.5951,714.6974 " fill="none" id="PatientService-to-PatientFilterDTO" style="stroke:#181818;stroke-width:1.0;stroke-dasharray:7.0,7.0;"/><polygon fill="#181818" points="1152.89,720.45,1159.2827,712.9578,1154.3109,715.6562,1151.6126,710.6843,1152.89,720.45" style="stroke:#181818;stroke-width:1.0;"/><text fill="#000000" font-family="sans-serif" font-size="13" lengthAdjust="spacing" textLength="28" x="1191.5" y="456.4951">uses</text></g><!--link PatientService to PatientDto--><g id="link_PatientService_PatientDto"><path codeLine="68" d="M1172.35,252.03 C1198.23,261.11 1224.96,271.26 1249.5,282 C1323.2,314.24 1397.6957,354.7967 1457.6757,389.4767 " fill="none" id="PatientService-to-PatientDto" style="stroke:#181818;stroke-width:1.0;stroke-dasharray:7.0,7.0;"/><polygon fill="#181818" points="1462.87,392.48,1457.0808,384.5122,1458.5415,389.9773,1453.0764,391.4379,1462.87,392.48" style="stroke:#181818;stroke-width:1.0;"/><text fill="#000000" font-family="sans-serif" font-size="13" lengthAdjust="spacing" textLength="40" x="1285.5" y="296.4951">returns</text></g><!--link PatientService to Patient--><g id="link_PatientService_Patient"><path codeLine="69" d="M1030.83,252.07 C1024.83,274.95 1017.22,304.06 1010.5,330 C976.22,462.41 1022.9,546.57 907.5,620 C767.43,709.13 580.3207,745.2424 466.1307,759.9724 " fill="none" id="PatientService-to-Patient" style="stroke:#181818;stroke-width:1.0;stroke-dasharray:7.0,7.0;"/><polygon fill="#181818" points="460.18,760.74,469.6178,763.5557,465.1389,760.1003,468.5943,755.6215,460.18,760.74" style="stroke:#181818;stroke-width:1.0;"/><text fill="#000000" font-family="sans-serif" font-size="13" lengthAdjust="spacing" textLength="141" x="1011.5" y="456.4951">transforms to PatientDto</text></g><!--link IPatientRepository to PatientFilterDTO--><g id="link_IPatientRepository_PatientFilterDTO"><path codeLine="70" d="M655.74,484.24 C753.63,542.43 954.4923,661.8143 1062.2823,725.8843 " fill="none" id="IPatientRepository-to-PatientFilterDTO" style="stroke:#181818;stroke-width:1.0;stroke-dasharray:7.0,7.0;"/><polygon fill="#181818" points="1067.44,728.95,1061.7473,720.913,1063.1419,726.3953,1057.6597,727.7899,1067.44,728.95" style="stroke:#181818;stroke-width:1.0;"/><text fill="#000000" font-family="sans-serif" font-size="13" lengthAdjust="spacing" textLength="28" x="870.5" y="616.4951">uses</text></g><!--link IPatientRepository to Patient--><g id="link_IPatientRepository_Patient"><path codeLine="71" d="M577.47,484.24 C548.58,523.01 502.0158,585.4894 457.6358,645.0294 " fill="none" id="IPatientRepository-to-Patient" style="stroke:#181818;stroke-width:1.0;stroke-dasharray:7.0,7.0;"/><polygon fill="#181818" points="454.05,649.84,462.6357,645.0145,457.0381,645.8311,456.2215,640.2335,454.05,649.84" style="stroke:#181818;stroke-width:1.0;"/><text fill="#000000" font-family="sans-serif" font-size="13" lengthAdjust="spacing" textLength="40" x="484.5" y="616.4951">returns</text></g><!--link PatientRepository to PatientFilterDTO--><g id="link_PatientRepository_PatientFilterDTO"><path codeLine="72" d="M484.23,249.89 C490.04,250.63 495.8,251.33 501.5,252 C544.33,257.04 857.36,252.16 888.5,282 C935.37,326.91 894.04,514.16 923.5,572 C956.15,636.11 1013.5907,686.6804 1062.4107,722.0404 " fill="none" id="PatientRepository-to-PatientFilterDTO" style="stroke:#181818;stroke-width:1.0;stroke-dasharray:7.0,7.0;"/><polygon fill="#181818" points="1067.27,725.56,1062.3274,717.0411,1063.2206,722.627,1057.6347,723.5202,1067.27,725.56" style="stroke:#181818;stroke-width:1.0;"/><text fill="#000000" font-family="sans-serif" font-size="13" lengthAdjust="spacing" textLength="28" x="924.5" y="456.4951">uses</text></g><!--link PatientRepository to Patient--><g id="link_PatientRepository_Patient"><path codeLine="73" d="M250.16,252.14 C258.28,319.27 276.75,457.33 303.5,572 C309.42,597.4 315.1659,618.543 322.8159,644.043 " fill="none" id="PatientRepository-to-Patient" style="stroke:#181818;stroke-width:1.0;stroke-dasharray:7.0,7.0;"/><polygon fill="#181818" points="324.54,649.79,325.7852,640.0202,323.1033,645.0009,318.1226,642.319,324.54,649.79" style="stroke:#181818;stroke-width:1.0;"/><text fill="#000000" font-family="sans-serif" font-size="13" lengthAdjust="spacing" textLength="40" x="304.5" y="456.4951">returns</text></g><!--SRC=[xLLDZzCm4BtdLyoH2ZNI0gTeLQaqMwW4tQLRpiXr9wsrZbtPpa85_7Vin6dpuPI2n8rJv9ddcVTc9XxAYTRmG0n3OMPI62KvHmNV8u0nVD6edXd5f4OyLcVhV0dlq7YhVf4nRb2TOFFocAxlHmbCgM5Ih50NtDmkxaIHeo8RZhSUcnevcKG_euWsgVX4DG-51wcPaUgOmC93LYTRJQTAYriFkCHgW8ZZmOH5PSGcxsSg-OHoJVLHq3zCs5VTIMI5KziI_6OIIDFqaUG7ZZVfPbOP_msLG2Alkkws9RDvH3Cim-C_s-bPR1FGHZ6nAqrpfhHPaXnRrWyaOBpB2UCjoyDU2bmM-SRfQjXJOb1cRvao-wGyh5bUZQZZJwXPY4nsOgFQeQ173sWvfuU3j3EGMo7lcQvchk7-Y5j62R_WMfxfTIjpQeClqL_NenlO3gyF-R_Y_TTiF9vq7vO42eqwwbWTCF3Njy4DHnp_6BZ0t2_a58MkkJIX_ypd2RaQ4YpCFGk42HqI6yUJ_hYr5OJHReOIK6WA9NgLkI9g07fjI0ioYWYTIPLhi9VEzwD5gEp3P2x3-sok37jjr4X8Ww3ORcz0PltDcYIDlMbd-2Q65L9apzX_9ApxLGmpmha-hU8uiET65lZQ0lT8dpIm30u-FcIo45lhVUEob0HXAStSMK4gk7-2hypiJ_W8hTq9693XErTgw92ef7YkvtKT3-sdKILkVUvwNSjszqjbDVUXhVqRskUcXPYNV2hwdmfKp3QYNhjner6Mh7sdk7DNkzL-bSn3JMimpdokyDAjUVy2]--></g></svg>