<?xml version="1.0" encoding="us-ascii" standalone="no"?><svg xmlns="http://www.w3.org/2000/svg" xmlns:xlink="http://www.w3.org/1999/xlink" contentStyleType="text/css" height="1041px" preserveAspectRatio="none" style="width:886px;height:1041px;background:#FFFFFF;" version="1.1" viewBox="0 0 886 1041" width="886px" zoomAndPan="magnify"><defs/><g><rect fill="none" height="279" style="stroke:#000000;stroke-width:1.5;" width="869.5" x="10" y="281.7188"/><rect fill="none" height="79.0547" style="stroke:#000000;stroke-width:1.5;" width="359.5" x="393" y="307.0703"/><rect fill="none" height="185.9453" style="stroke:#000000;stroke-width:1.5;" width="869.5" x="10" y="756.8281"/><line style="stroke:#181818;stroke-width:0.5;stroke-dasharray:5.0,5.0;" x1="42" x2="42" y1="82.6094" y2="959.7734"/><line style="stroke:#181818;stroke-width:0.5;stroke-dasharray:5.0,5.0;" x1="275.5" x2="275.5" y1="82.6094" y2="959.7734"/><line style="stroke:#181818;stroke-width:0.5;stroke-dasharray:5.0,5.0;" x1="455" x2="455" y1="82.6094" y2="959.7734"/><line style="stroke:#181818;stroke-width:0.5;stroke-dasharray:5.0,5.0;" x1="581.5" x2="581.5" y1="82.6094" y2="959.7734"/><line style="stroke:#181818;stroke-width:0.5;stroke-dasharray:5.0,5.0;" x1="698.5" x2="698.5" y1="82.6094" y2="959.7734"/><line style="stroke:#181818;stroke-width:0.5;stroke-dasharray:5.0,5.0;" x1="851.5" x2="851.5" y1="82.6094" y2="959.7734"/><text fill="#000000" font-family="sans-serif" font-size="14" lengthAdjust="spacing" textLength="39" x="20" y="79.5332">Admin</text><ellipse cx="42.5" cy="13.5" fill="#E2E2F0" rx="8" ry="8" style="stroke:#181818;stroke-width:0.5;"/><path d="M42.5,21.5 L42.5,48.5 M29.5,29.5 L55.5,29.5 M42.5,48.5 L29.5,63.5 M42.5,48.5 L55.5,63.5 " fill="none" style="stroke:#181818;stroke-width:0.5;"/><text fill="#000000" font-family="sans-serif" font-size="14" lengthAdjust="spacing" textLength="39" x="20" y="973.3066">Admin</text><ellipse cx="42.5" cy="984.8828" fill="#E2E2F0" rx="8" ry="8" style="stroke:#181818;stroke-width:0.5;"/><path d="M42.5,992.8828 L42.5,1019.8828 M29.5,1000.8828 L55.5,1000.8828 M42.5,1019.8828 L29.5,1034.8828 M42.5,1019.8828 L55.5,1034.8828 " fill="none" style="stroke:#181818;stroke-width:0.5;"/><rect fill="#E2E2F0" height="31.6094" rx="2.5" ry="2.5" style="stroke:#181818;stroke-width:0.5;" width="76" x="237.5" y="50"/><text fill="#000000" font-family="sans-serif" font-size="14" lengthAdjust="spacing" textLength="62" x="244.5" y="71.5332">Controller</text><rect fill="#E2E2F0" height="31.6094" rx="2.5" ry="2.5" style="stroke:#181818;stroke-width:0.5;" width="76" x="237.5" y="958.7734"/><text fill="#000000" font-family="sans-serif" font-size="14" lengthAdjust="spacing" textLength="62" x="244.5" y="980.3066">Controller</text><rect fill="#E2E2F0" height="31.6094" rx="2.5" ry="2.5" style="stroke:#181818;stroke-width:0.5;" width="105" x="403" y="50"/><text fill="#000000" font-family="sans-serif" font-size="14" lengthAdjust="spacing" textLength="91" x="410" y="71.5332">PatientService</text><rect fill="#E2E2F0" height="31.6094" rx="2.5" ry="2.5" style="stroke:#181818;stroke-width:0.5;" width="105" x="403" y="958.7734"/><text fill="#000000" font-family="sans-serif" font-size="14" lengthAdjust="spacing" textLength="91" x="410" y="980.3066">PatientService</text><rect fill="#E2E2F0" height="31.6094" rx="2.5" ry="2.5" style="stroke:#181818;stroke-width:0.5;" width="126" x="518.5" y="50"/><text fill="#000000" font-family="sans-serif" font-size="14" lengthAdjust="spacing" textLength="112" x="525.5" y="71.5332">PatientRepository</text><rect fill="#E2E2F0" height="31.6094" rx="2.5" ry="2.5" style="stroke:#181818;stroke-width:0.5;" width="126" x="518.5" y="958.7734"/><text fill="#000000" font-family="sans-serif" font-size="14" lengthAdjust="spacing" textLength="112" x="525.5" y="980.3066">PatientRepository</text><rect fill="#E2E2F0" height="31.6094" rx="2.5" ry="2.5" style="stroke:#181818;stroke-width:0.5;" width="88" x="654.5" y="50"/><text fill="#000000" font-family="sans-serif" font-size="14" lengthAdjust="spacing" textLength="74" x="661.5" y="71.5332">PatientDTO</text><rect fill="#E2E2F0" height="31.6094" rx="2.5" ry="2.5" style="stroke:#181818;stroke-width:0.5;" width="88" x="654.5" y="958.7734"/><text fill="#000000" font-family="sans-serif" font-size="14" lengthAdjust="spacing" textLength="74" x="661.5" y="980.3066">PatientDTO</text><text fill="#000000" font-family="sans-serif" font-size="14" lengthAdjust="spacing" textLength="19" x="839" y="79.5332">DB</text><path d="M833.5,29 C833.5,19 851.5,19 851.5,19 C851.5,19 869.5,19 869.5,29 L869.5,55 C869.5,65 851.5,65 851.5,65 C851.5,65 833.5,65 833.5,55 L833.5,29 " fill="#E2E2F0" style="stroke:#181818;stroke-width:1.5;"/><path d="M833.5,29 C833.5,39 851.5,39 851.5,39 C851.5,39 869.5,39 869.5,29 " fill="none" style="stroke:#181818;stroke-width:1.5;"/><text fill="#000000" font-family="sans-serif" font-size="14" lengthAdjust="spacing" textLength="19" x="839" y="973.3066">DB</text><path d="M833.5,986.3828 C833.5,976.3828 851.5,976.3828 851.5,976.3828 C851.5,976.3828 869.5,976.3828 869.5,986.3828 L869.5,1012.3828 C869.5,1022.3828 851.5,1022.3828 851.5,1022.3828 C851.5,1022.3828 833.5,1022.3828 833.5,1012.3828 L833.5,986.3828 " fill="#E2E2F0" style="stroke:#181818;stroke-width:1.5;"/><path d="M833.5,986.3828 C833.5,996.3828 851.5,996.3828 851.5,996.3828 C851.5,996.3828 869.5,996.3828 869.5,986.3828 " fill="none" style="stroke:#181818;stroke-width:1.5;"/><polygon fill="#181818" points="263.5,110.9609,273.5,114.9609,263.5,118.9609,267.5,114.9609" style="stroke:#181818;stroke-width:1.0;"/><line style="stroke:#181818;stroke-width:1.0;" x1="42.5" x2="269.5" y1="114.9609" y2="114.9609"/><text fill="#000000" font-family="sans-serif" font-size="13" lengthAdjust="spacing" textLength="125" x="49.5" y="110.1045">GET api/patients/filter</text><polygon fill="#181818" points="443.5,141.3125,453.5,145.3125,443.5,149.3125,447.5,145.3125" style="stroke:#181818;stroke-width:1.0;"/><line style="stroke:#181818;stroke-width:1.0;" x1="275.5" x2="449.5" y1="145.3125" y2="145.3125"/><text fill="#000000" font-family="sans-serif" font-size="13" lengthAdjust="spacing" textLength="156" x="282.5" y="140.4561">GetFilterPatients(filterDTO)</text><polygon fill="#181818" points="569.5,171.6641,579.5,175.6641,569.5,179.6641,573.5,175.6641" style="stroke:#181818;stroke-width:1.0;"/><line style="stroke:#181818;stroke-width:1.0;" x1="455.5" x2="575.5" y1="175.6641" y2="175.6641"/><text fill="#000000" font-family="sans-serif" font-size="13" lengthAdjust="spacing" textLength="95" x="462.5" y="170.8076">GetFilterAsync()</text><polygon fill="#181818" points="839.5,202.0156,849.5,206.0156,839.5,210.0156,843.5,206.0156" style="stroke:#181818;stroke-width:1.0;"/><line style="stroke:#181818;stroke-width:1.0;" x1="581.5" x2="845.5" y1="206.0156" y2="206.0156"/><text fill="#000000" font-family="sans-serif" font-size="13" lengthAdjust="spacing" textLength="153" x="588.5" y="201.1592">SELECT * FROM Patients</text><polygon fill="#181818" points="592.5,232.3672,582.5,236.3672,592.5,240.3672,588.5,236.3672" style="stroke:#181818;stroke-width:1.0;"/><line style="stroke:#181818;stroke-width:1.0;stroke-dasharray:2.0,2.0;" x1="586.5" x2="850.5" y1="236.3672" y2="236.3672"/><text fill="#000000" font-family="sans-serif" font-size="13" lengthAdjust="spacing" textLength="48" x="598.5" y="231.5107">Patients</text><polygon fill="#181818" points="466.5,262.7188,456.5,266.7188,466.5,270.7188,462.5,266.7188" style="stroke:#181818;stroke-width:1.0;"/><line style="stroke:#181818;stroke-width:1.0;stroke-dasharray:2.0,2.0;" x1="460.5" x2="580.5" y1="266.7188" y2="266.7188"/><text fill="#000000" font-family="sans-serif" font-size="13" lengthAdjust="spacing" textLength="48" x="472.5" y="261.8623">Patients</text><path d="M10,281.7188 L71,281.7188 L71,290.0703 L61,300.0703 L10,300.0703 L10,281.7188 " fill="#EEEEEE" style="stroke:#000000;stroke-width:1.5;"/><rect fill="none" height="279" style="stroke:#000000;stroke-width:1.5;" width="869.5" x="10" y="281.7188"/><text fill="#000000" font-family="sans-serif" font-size="13" font-weight="bold" lengthAdjust="spacing" textLength="16" x="25" y="296.2139">alt</text><text fill="#000000" font-family="sans-serif" font-size="11" font-weight="bold" lengthAdjust="spacing" textLength="88" x="86" y="295.1377">[Patients found]</text><path d="M393,307.0703 L466,307.0703 L466,315.4219 L456,325.4219 L393,325.4219 L393,307.0703 " fill="#EEEEEE" style="stroke:#000000;stroke-width:1.5;"/><rect fill="none" height="79.0547" style="stroke:#000000;stroke-width:1.5;" width="359.5" x="393" y="307.0703"/><text fill="#000000" font-family="sans-serif" font-size="13" font-weight="bold" lengthAdjust="spacing" textLength="28" x="408" y="321.5654">loop</text><text fill="#000000" font-family="sans-serif" font-size="11" font-weight="bold" lengthAdjust="spacing" textLength="155" x="481" y="320.4893">[for each patient in Patients]</text><polygon fill="#181818" points="686.5,343.7734,696.5,347.7734,686.5,351.7734,690.5,347.7734" style="stroke:#181818;stroke-width:1.0;"/><line style="stroke:#181818;stroke-width:1.0;" x1="455.5" x2="692.5" y1="347.7734" y2="347.7734"/><text fill="#000000" font-family="sans-serif" font-size="13" lengthAdjust="spacing" textLength="37" x="462.5" y="342.917">creat()</text><polygon fill="#181818" points="466.5,374.125,456.5,378.125,466.5,382.125,462.5,378.125" style="stroke:#181818;stroke-width:1.0;"/><line style="stroke:#181818;stroke-width:1.0;" x1="460.5" x2="697.5" y1="378.125" y2="378.125"/><text fill="#000000" font-family="sans-serif" font-size="13" lengthAdjust="spacing" textLength="67" x="472.5" y="373.2686">PatientDTO</text><polygon fill="#181818" points="286.5,411.4766,276.5,415.4766,286.5,419.4766,282.5,415.4766" style="stroke:#181818;stroke-width:1.0;"/><line style="stroke:#181818;stroke-width:1.0;stroke-dasharray:2.0,2.0;" x1="280.5" x2="454.5" y1="415.4766" y2="415.4766"/><text fill="#000000" font-family="sans-serif" font-size="13" lengthAdjust="spacing" textLength="48" x="292.5" y="410.6201">Patients</text><polygon fill="#181818" points="53.5,441.8281,43.5,445.8281,53.5,449.8281,49.5,445.8281" style="stroke:#181818;stroke-width:1.0;"/><line style="stroke:#181818;stroke-width:1.0;stroke-dasharray:2.0,2.0;" x1="47.5" x2="274.5" y1="445.8281" y2="445.8281"/><text fill="#000000" font-family="sans-serif" font-size="13" lengthAdjust="spacing" textLength="104" x="59.5" y="440.9717">200 OK (Patients)</text><line style="stroke:#000000;stroke-width:1.0;stroke-dasharray:2.0,2.0;" x1="10" x2="879.5" y1="454.8281" y2="454.8281"/><text fill="#000000" font-family="sans-serif" font-size="11" font-weight="bold" lengthAdjust="spacing" textLength="105" x="15" y="466.2471">[No patients found]</text><polygon fill="#181818" points="592.5,488.0156,582.5,492.0156,592.5,496.0156,588.5,492.0156" style="stroke:#181818;stroke-width:1.0;"/><line style="stroke:#181818;stroke-width:1.0;stroke-dasharray:2.0,2.0;" x1="586.5" x2="850.5" y1="492.0156" y2="492.0156"/><text fill="#000000" font-family="sans-serif" font-size="13" lengthAdjust="spacing" textLength="66" x="598.5" y="487.1592">No patients</text><polygon fill="#181818" points="286.5,518.3672,276.5,522.3672,286.5,526.3672,282.5,522.3672" style="stroke:#181818;stroke-width:1.0;"/><line style="stroke:#181818;stroke-width:1.0;stroke-dasharray:2.0,2.0;" x1="280.5" x2="580.5" y1="522.3672" y2="522.3672"/><text fill="#000000" font-family="sans-serif" font-size="13" lengthAdjust="spacing" textLength="66" x="292.5" y="517.5107">No patients</text><polygon fill="#181818" points="53.5,548.7188,43.5,552.7188,53.5,556.7188,49.5,552.7188" style="stroke:#181818;stroke-width:1.0;"/><line style="stroke:#181818;stroke-width:1.0;stroke-dasharray:2.0,2.0;" x1="47.5" x2="274.5" y1="552.7188" y2="552.7188"/><text fill="#000000" font-family="sans-serif" font-size="13" lengthAdjust="spacing" textLength="163" x="59.5" y="547.8623">404 Not Found (No patients)</text><polygon fill="#181818" points="263.5,586.0703,273.5,590.0703,263.5,594.0703,267.5,590.0703" style="stroke:#181818;stroke-width:1.0;"/><line style="stroke:#181818;stroke-width:1.0;" x1="42.5" x2="269.5" y1="590.0703" y2="590.0703"/><text fill="#000000" font-family="sans-serif" font-size="13" lengthAdjust="spacing" textLength="209" x="49.5" y="585.2139">GET api/patients/{id/licenseNumber}</text><polygon fill="#181818" points="443.5,616.4219,453.5,620.4219,443.5,624.4219,447.5,620.4219" style="stroke:#181818;stroke-width:1.0;"/><line style="stroke:#181818;stroke-width:1.0;" x1="275.5" x2="449.5" y1="620.4219" y2="620.4219"/><text fill="#000000" font-family="sans-serif" font-size="13" lengthAdjust="spacing" textLength="106" x="282.5" y="615.5654">GetPatientById(id)</text><polygon fill="#181818" points="569.5,646.7734,579.5,650.7734,569.5,654.7734,573.5,650.7734" style="stroke:#181818;stroke-width:1.0;"/><line style="stroke:#181818;stroke-width:1.0;" x1="455.5" x2="575.5" y1="650.7734" y2="650.7734"/><text fill="#000000" font-family="sans-serif" font-size="13" lengthAdjust="spacing" textLength="102" x="462.5" y="645.917">GetByIdAsync(id)</text><polygon fill="#181818" points="839.5,677.125,849.5,681.125,839.5,685.125,843.5,681.125" style="stroke:#181818;stroke-width:1.0;"/><line style="stroke:#181818;stroke-width:1.0;" x1="581.5" x2="845.5" y1="681.125" y2="681.125"/><text fill="#000000" font-family="sans-serif" font-size="13" lengthAdjust="spacing" textLength="246" x="588.5" y="676.2686">SELECT * FROM Patients WHERE Id = id</text><polygon fill="#181818" points="592.5,707.4766,582.5,711.4766,592.5,715.4766,588.5,711.4766" style="stroke:#181818;stroke-width:1.0;"/><line style="stroke:#181818;stroke-width:1.0;stroke-dasharray:2.0,2.0;" x1="586.5" x2="850.5" y1="711.4766" y2="711.4766"/><text fill="#000000" font-family="sans-serif" font-size="13" lengthAdjust="spacing" textLength="41" x="598.5" y="706.6201">Patient</text><polygon fill="#181818" points="466.5,737.8281,456.5,741.8281,466.5,745.8281,462.5,741.8281" style="stroke:#181818;stroke-width:1.0;"/><line style="stroke:#181818;stroke-width:1.0;stroke-dasharray:2.0,2.0;" x1="460.5" x2="580.5" y1="741.8281" y2="741.8281"/><text fill="#000000" font-family="sans-serif" font-size="13" lengthAdjust="spacing" textLength="41" x="472.5" y="736.9717">Patient</text><path d="M10,756.8281 L71,756.8281 L71,765.1797 L61,775.1797 L10,775.1797 L10,756.8281 " fill="#EEEEEE" style="stroke:#000000;stroke-width:1.5;"/><rect fill="none" height="185.9453" style="stroke:#000000;stroke-width:1.5;" width="869.5" x="10" y="756.8281"/><text fill="#000000" font-family="sans-serif" font-size="13" font-weight="bold" lengthAdjust="spacing" textLength="16" x="25" y="771.3232">alt</text><text fill="#000000" font-family="sans-serif" font-size="11" font-weight="bold" lengthAdjust="spacing" textLength="81" x="86" y="770.2471">[Patient found]</text><polygon fill="#181818" points="286.5,793.5313,276.5,797.5313,286.5,801.5313,282.5,797.5313" style="stroke:#181818;stroke-width:1.0;"/><line style="stroke:#181818;stroke-width:1.0;stroke-dasharray:2.0,2.0;" x1="280.5" x2="454.5" y1="797.5313" y2="797.5313"/><text fill="#000000" font-family="sans-serif" font-size="13" lengthAdjust="spacing" textLength="41" x="292.5" y="792.6748">Patient</text><polygon fill="#181818" points="53.5,823.8828,43.5,827.8828,53.5,831.8828,49.5,827.8828" style="stroke:#181818;stroke-width:1.0;"/><line style="stroke:#181818;stroke-width:1.0;stroke-dasharray:2.0,2.0;" x1="47.5" x2="274.5" y1="827.8828" y2="827.8828"/><text fill="#000000" font-family="sans-serif" font-size="13" lengthAdjust="spacing" textLength="97" x="59.5" y="823.0264">200 OK (Patient)</text><line style="stroke:#000000;stroke-width:1.0;stroke-dasharray:2.0,2.0;" x1="10" x2="879.5" y1="836.8828" y2="836.8828"/><text fill="#000000" font-family="sans-serif" font-size="11" font-weight="bold" lengthAdjust="spacing" textLength="98" x="15" y="848.3018">[No patient found]</text><polygon fill="#181818" points="592.5,870.0703,582.5,874.0703,592.5,878.0703,588.5,874.0703" style="stroke:#181818;stroke-width:1.0;"/><line style="stroke:#181818;stroke-width:1.0;stroke-dasharray:2.0,2.0;" x1="586.5" x2="850.5" y1="874.0703" y2="874.0703"/><text fill="#000000" font-family="sans-serif" font-size="13" lengthAdjust="spacing" textLength="59" x="598.5" y="869.2139">No patient</text><polygon fill="#181818" points="286.5,900.4219,276.5,904.4219,286.5,908.4219,282.5,904.4219" style="stroke:#181818;stroke-width:1.0;"/><line style="stroke:#181818;stroke-width:1.0;stroke-dasharray:2.0,2.0;" x1="280.5" x2="580.5" y1="904.4219" y2="904.4219"/><text fill="#000000" font-family="sans-serif" font-size="13" lengthAdjust="spacing" textLength="59" x="292.5" y="899.5654">No patient</text><polygon fill="#181818" points="53.5,930.7734,43.5,934.7734,53.5,938.7734,49.5,934.7734" style="stroke:#181818;stroke-width:1.0;"/><line style="stroke:#181818;stroke-width:1.0;stroke-dasharray:2.0,2.0;" x1="47.5" x2="274.5" y1="934.7734" y2="934.7734"/><text fill="#000000" font-family="sans-serif" font-size="13" lengthAdjust="spacing" textLength="156" x="59.5" y="929.917">404 Not Found (No patient)</text><!--SRC=[ZPBHQy8m4CRVyrSSFjM1ACEdmGQrrassgRJ2djCcia1DIX87ClQ_xvAshjLkphVUxylTT_T9Swiq34As5t80r418Iggjo4L9fOL8IQjLKN3jMDHX6se5bpRb-aFatF5DsYT8UAcCm357hqb8dsY-NNjA6BKqeuR3O3xpXbX6I0YZ1uZW3XxZBT1IZClgbHdlH66v9f4JR5Adu7RXQtLZ4rGI730ag72wfAqBpL7cmP0GB2Da6S8qVecZBTp08bc_DXOD8O0_58oQ9YVYW7lVkEW0GelJdWPswY1PrQfGgiHl3Ppcxr3l149sd_lUbN7id6jEBTez4JYRYOjwo9ifxcrzlaxVo9T3BDzE9h1-Xg31Gy8BJ62b6a-Dw_FzMuhs2Q8Uz3DjEfaYjR1mBI5e2N6kCrt7tPFsfs3Z0lziql3LOPzn_TLDlbvWTbooGB3pl5svIjkpQt73srESnB1aS0-2aPxSIK_axR1RLxiCuUyCBYAuci3l0Vpt_lNvlm40]--></g></svg>