<?xml version="1.0" encoding="us-ascii" standalone="no"?><svg xmlns="http://www.w3.org/2000/svg" xmlns:xlink="http://www.w3.org/1999/xlink" contentStyleType="text/css" height="613px" preserveAspectRatio="none" style="width:1783px;height:613px;background:#FFFFFF;" version="1.1" viewBox="0 0 1783 613" width="1783px" zoomAndPan="magnify"><defs/><g><!--class OperationTypeController--><g id="elem_OperationTypeController"><rect codeLine="2" fill="#F1F1F1" height="100.8281" id="OperationTypeController" rx="2.5" ry="2.5" style="stroke:#181818;stroke-width:0.5;" width="745" x="598.5" y="7"/><ellipse cx="888.25" cy="23" fill="#ADD1B2" rx="11" ry="11" style="stroke:#181818;stroke-width:1.0;"/><path d="M891.0156,18.875 Q891.1719,18.6563 891.3594,18.5469 Q891.5469,18.4375 891.7656,18.4375 Q892.1406,18.4375 892.375,18.7031 Q892.6094,18.9531 892.6094,19.5625 L892.6094,21.0156 Q892.6094,21.625 892.375,21.8906 Q892.1406,22.1563 891.7656,22.1563 Q891.4219,22.1563 891.2188,21.9531 Q891.0156,21.7656 890.9063,21.25 Q890.8594,20.8906 890.6719,20.7031 Q890.3438,20.3281 889.7344,20.1094 Q889.125,19.8906 888.5,19.8906 Q887.7344,19.8906 887.0938,20.2188 Q886.4688,20.5469 885.9688,21.2969 Q885.4844,22.0469 885.4844,23.0781 L885.4844,24.1719 Q885.4844,25.4063 886.375,26.2344 Q887.2656,27.0469 888.8594,27.0469 Q889.7969,27.0469 890.4531,26.7969 Q890.8438,26.6406 891.2656,26.2031 Q891.5313,25.9375 891.6719,25.8594 Q891.8281,25.7813 892.0313,25.7813 Q892.3594,25.7813 892.6094,26.0469 Q892.875,26.2969 892.875,26.6406 Q892.875,26.9844 892.5313,27.3906 Q892.0313,27.9688 891.2344,28.2969 Q890.1563,28.75 888.8594,28.75 Q887.3438,28.75 886.1406,28.125 Q885.1563,27.625 884.4688,26.5625 Q883.7813,25.4844 883.7813,24.2031 L883.7813,23.0469 Q883.7813,21.7188 884.3906,20.5781 Q885.0156,19.4219 886.1094,18.8125 Q887.2031,18.1875 888.4375,18.1875 Q889.1719,18.1875 889.8125,18.3594 Q890.4688,18.5156 891.0156,18.875 Z " fill="#000000"/><text fill="#000000" font-family="sans-serif" font-size="14" lengthAdjust="spacing" textLength="157" x="908.75" y="28.7285">OperationTypeController</text><line style="stroke:#181818;stroke-width:0.5;" x1="599.5" x2="1342.5" y1="39" y2="39"/><rect fill="none" height="6" style="stroke:#C82930;stroke-width:1.0;" width="6" x="606.5" y="50.3047"/><text fill="#000000" font-family="sans-serif" font-size="14" lengthAdjust="spacing" textLength="199" x="618.5" y="57.5332">OperationTypeService _service</text><line style="stroke:#181818;stroke-width:0.5;" x1="599.5" x2="1342.5" y1="64.6094" y2="64.6094"/><ellipse cx="609.5" cy="78.9141" fill="#84BE84" rx="3" ry="3" style="stroke:#038048;stroke-width:1.0;"/><text fill="#000000" font-family="sans-serif" font-size="14" lengthAdjust="spacing" textLength="603" x="618.5" y="83.1426">CreateOperationType(dto: CreateOperationTypeDto): Task&lt;ActionResult&lt;OperationTypeDto&gt;&gt;</text><ellipse cx="609.5" cy="96.5234" fill="#84BE84" rx="3" ry="3" style="stroke:#038048;stroke-width:1.0;"/><text fill="#000000" font-family="sans-serif" font-size="14" lengthAdjust="spacing" textLength="719" x="618.5" y="100.752">UpdateOperationType(id: Guid, patchDoc: JsonPatchDocument&lt;UpdateOperationTypeDto&gt;): Task&lt;IActionResult&gt;</text></g><!--class OperationTypeService--><g id="elem_OperationTypeService"><rect codeLine="8" fill="#F1F1F1" height="171.2656" id="OperationTypeService" rx="2.5" ry="2.5" style="stroke:#181818;stroke-width:0.5;" width="856" x="543" y="186"/><ellipse cx="895.75" cy="202" fill="#ADD1B2" rx="11" ry="11" style="stroke:#181818;stroke-width:1.0;"/><path d="M898.5156,197.875 Q898.6719,197.6563 898.8594,197.5469 Q899.0469,197.4375 899.2656,197.4375 Q899.6406,197.4375 899.875,197.7031 Q900.1094,197.9531 900.1094,198.5625 L900.1094,200.0156 Q900.1094,200.625 899.875,200.8906 Q899.6406,201.1563 899.2656,201.1563 Q898.9219,201.1563 898.7188,200.9531 Q898.5156,200.7656 898.4063,200.25 Q898.3594,199.8906 898.1719,199.7031 Q897.8438,199.3281 897.2344,199.1094 Q896.625,198.8906 896,198.8906 Q895.2344,198.8906 894.5938,199.2188 Q893.9688,199.5469 893.4688,200.2969 Q892.9844,201.0469 892.9844,202.0781 L892.9844,203.1719 Q892.9844,204.4063 893.875,205.2344 Q894.7656,206.0469 896.3594,206.0469 Q897.2969,206.0469 897.9531,205.7969 Q898.3438,205.6406 898.7656,205.2031 Q899.0313,204.9375 899.1719,204.8594 Q899.3281,204.7813 899.5313,204.7813 Q899.8594,204.7813 900.1094,205.0469 Q900.375,205.2969 900.375,205.6406 Q900.375,205.9844 900.0313,206.3906 Q899.5313,206.9688 898.7344,207.2969 Q897.6563,207.75 896.3594,207.75 Q894.8438,207.75 893.6406,207.125 Q892.6563,206.625 891.9688,205.5625 Q891.2813,204.4844 891.2813,203.2031 L891.2813,202.0469 Q891.2813,200.7188 891.8906,199.5781 Q892.5156,198.4219 893.6094,197.8125 Q894.7031,197.1875 895.9375,197.1875 Q896.6719,197.1875 897.3125,197.3594 Q897.9688,197.5156 898.5156,197.875 Z " fill="#000000"/><text fill="#000000" font-family="sans-serif" font-size="14" lengthAdjust="spacing" textLength="142" x="916.25" y="207.7285">OperationTypeService</text><line style="stroke:#181818;stroke-width:0.5;" x1="544" x2="1398" y1="218" y2="218"/><rect fill="none" height="6" style="stroke:#C82930;stroke-width:1.0;" width="6" x="551" y="229.3047"/><text fill="#000000" font-family="sans-serif" font-size="14" lengthAdjust="spacing" textLength="207" x="563" y="236.5332">IOperationTypeRepository _repo</text><rect fill="none" height="6" style="stroke:#C82930;stroke-width:1.0;" width="6" x="551" y="246.9141"/><text fill="#000000" font-family="sans-serif" font-size="14" lengthAdjust="spacing" textLength="158" x="563" y="254.1426">IUnitOfWork _unitOfWork</text><rect fill="none" height="6" style="stroke:#C82930;stroke-width:1.0;" width="6" x="551" y="264.5234"/><text fill="#000000" font-family="sans-serif" font-size="14" lengthAdjust="spacing" textLength="206" x="563" y="271.752">ILoggingService _loggingService</text><line style="stroke:#181818;stroke-width:0.5;" x1="544" x2="1398" y1="278.8281" y2="278.8281"/><ellipse cx="554" cy="293.1328" fill="#84BE84" rx="3" ry="3" style="stroke:#038048;stroke-width:1.0;"/><text fill="#000000" font-family="sans-serif" font-size="14" lengthAdjust="spacing" textLength="433" x="563" y="297.3613">AddAsync(dto: CreateOperationTypeDto): Task&lt;OperationTypeDto&gt;</text><ellipse cx="554" cy="310.7422" fill="#84BE84" rx="3" ry="3" style="stroke:#038048;stroke-width:1.0;"/><text fill="#000000" font-family="sans-serif" font-size="14" lengthAdjust="spacing" textLength="353" x="563" y="314.9707">GetAllAsync(): Task&lt;IEnumerable&lt;OperationTypeDto&gt;&gt;</text><ellipse cx="554" cy="328.3516" fill="#84BE84" rx="3" ry="3" style="stroke:#038048;stroke-width:1.0;"/><text fill="#000000" font-family="sans-serif" font-size="14" lengthAdjust="spacing" textLength="830" x="563" y="332.5801">UpdateOperationType(id: OperationTypeId, patchDoc: JsonPatchDocument&lt;UpdateOperationTypeDto&gt;): Task&lt;OperationTypeDto&gt;</text><rect fill="#F24D5C" height="6" style="stroke:#C82930;stroke-width:1.0;" width="6" x="551" y="342.9609"/><text fill="#000000" font-family="sans-serif" font-size="14" lengthAdjust="spacing" textLength="464" x="563" y="350.1895">ConvertToDto(operationType: OperationType): UpdateOperationTypeDto</text></g><!--class IOperationTypeRepository--><g id="elem_IOperationTypeRepository"><rect codeLine="18" fill="#F1F1F1" height="136.0469" id="IOperationTypeRepository" rx="2.5" ry="2.5" style="stroke:#181818;stroke-width:0.5;" width="464" x="7" y="452.5"/><ellipse cx="151.25" cy="468.5" fill="#B4A7E5" rx="11" ry="11" style="stroke:#181818;stroke-width:1.0;"/><path d="M152.2031,465.1406 L152.2031,471.7969 L153.9219,471.7969 Q154.5313,471.7969 154.7969,472.0313 Q155.0625,472.2656 155.0625,472.6563 Q155.0625,473.0313 154.7969,473.2656 Q154.5313,473.5 153.9219,473.5 L148.7813,473.5 Q148.1719,473.5 147.9063,473.2656 Q147.6406,473.0313 147.6406,472.6406 Q147.6406,472.2656 147.9063,472.0313 Q148.1719,471.7969 148.7813,471.7969 L150.5,471.7969 L150.5,465.1406 L148.7813,465.1406 Q148.1719,465.1406 147.9063,464.9063 Q147.6406,464.6719 147.6406,464.2813 Q147.6406,463.9063 147.9063,463.6719 Q148.1719,463.4375 148.7813,463.4375 L153.9219,463.4375 Q154.5313,463.4375 154.7969,463.6719 Q155.0625,463.9063 155.0625,464.2813 Q155.0625,464.6719 154.7969,464.9063 Q154.5313,465.1406 153.9219,465.1406 L152.2031,465.1406 Z " fill="#000000"/><text fill="#000000" font-family="sans-serif" font-size="14" font-style="italic" lengthAdjust="spacing" textLength="167" x="171.75" y="474.2285">IOperationTypeRepository</text><line style="stroke:#181818;stroke-width:0.5;" x1="8" x2="470" y1="484.5" y2="484.5"/><line style="stroke:#181818;stroke-width:0.5;" x1="8" x2="470" y1="492.5" y2="492.5"/><ellipse cx="18" cy="506.8047" fill="#84BE84" rx="3" ry="3" style="stroke:#038048;stroke-width:1.0;"/><text fill="#000000" font-family="sans-serif" font-size="14" lengthAdjust="spacing" textLength="418" x="27" y="511.0332">AddAsync(operationType: OperationType): Task&lt;OperationType&gt;</text><ellipse cx="18" cy="524.4141" fill="#84BE84" rx="3" ry="3" style="stroke:#038048;stroke-width:1.0;"/><text fill="#000000" font-family="sans-serif" font-size="14" lengthAdjust="spacing" textLength="351" x="27" y="528.6426">GetByNameAsync(name: string): Task&lt;OperationType&gt;</text><ellipse cx="18" cy="542.0234" fill="#84BE84" rx="3" ry="3" style="stroke:#038048;stroke-width:1.0;"/><text fill="#000000" font-family="sans-serif" font-size="14" lengthAdjust="spacing" textLength="296" x="27" y="546.252">ExistsByNameAsync(name: string): Task&lt;bool&gt;</text><ellipse cx="18" cy="559.6328" fill="#84BE84" rx="3" ry="3" style="stroke:#038048;stroke-width:1.0;"/><text fill="#000000" font-family="sans-serif" font-size="14" lengthAdjust="spacing" textLength="438" x="27" y="563.8613">UpdateAsync(operationType: OperationType): Task&lt;OperationType&gt;</text><ellipse cx="18" cy="577.2422" fill="#84BE84" rx="3" ry="3" style="stroke:#038048;stroke-width:1.0;"/><text fill="#000000" font-family="sans-serif" font-size="14" lengthAdjust="spacing" textLength="373" x="27" y="581.4707">GetByIdAsync(id: OperationTypeId): Task&lt;OperationType&gt;</text></g><!--class OperationType--><g id="elem_OperationType"><rect codeLine="26" fill="#F1F1F1" height="171.2656" id="OperationType" rx="2.5" ry="2.5" style="stroke:#181818;stroke-width:0.5;" width="475" x="506.5" y="435"/><ellipse cx="692.25" cy="451" fill="#ADD1B2" rx="11" ry="11" style="stroke:#181818;stroke-width:1.0;"/><path d="M695.0156,446.875 Q695.1719,446.6563 695.3594,446.5469 Q695.5469,446.4375 695.7656,446.4375 Q696.1406,446.4375 696.375,446.7031 Q696.6094,446.9531 696.6094,447.5625 L696.6094,449.0156 Q696.6094,449.625 696.375,449.8906 Q696.1406,450.1563 695.7656,450.1563 Q695.4219,450.1563 695.2188,449.9531 Q695.0156,449.7656 694.9063,449.25 Q694.8594,448.8906 694.6719,448.7031 Q694.3438,448.3281 693.7344,448.1094 Q693.125,447.8906 692.5,447.8906 Q691.7344,447.8906 691.0938,448.2188 Q690.4688,448.5469 689.9688,449.2969 Q689.4844,450.0469 689.4844,451.0781 L689.4844,452.1719 Q689.4844,453.4063 690.375,454.2344 Q691.2656,455.0469 692.8594,455.0469 Q693.7969,455.0469 694.4531,454.7969 Q694.8438,454.6406 695.2656,454.2031 Q695.5313,453.9375 695.6719,453.8594 Q695.8281,453.7813 696.0313,453.7813 Q696.3594,453.7813 696.6094,454.0469 Q696.875,454.2969 696.875,454.6406 Q696.875,454.9844 696.5313,455.3906 Q696.0313,455.9688 695.2344,456.2969 Q694.1563,456.75 692.8594,456.75 Q691.3438,456.75 690.1406,456.125 Q689.1563,455.625 688.4688,454.5625 Q687.7813,453.4844 687.7813,452.2031 L687.7813,451.0469 Q687.7813,449.7188 688.3906,448.5781 Q689.0156,447.4219 690.1094,446.8125 Q691.2031,446.1875 692.4375,446.1875 Q693.1719,446.1875 693.8125,446.3594 Q694.4688,446.5156 695.0156,446.875 Z " fill="#000000"/><text fill="#000000" font-family="sans-serif" font-size="14" lengthAdjust="spacing" textLength="95" x="712.75" y="456.7285">OperationType</text><line style="stroke:#181818;stroke-width:0.5;" x1="507.5" x2="980.5" y1="467" y2="467"/><ellipse cx="517.5" cy="481.3047" fill="none" rx="3" ry="3" style="stroke:#038048;stroke-width:1.0;"/><text fill="#000000" font-family="sans-serif" font-size="14" lengthAdjust="spacing" textLength="125" x="526.5" y="485.5332">Id: OperationTypeId</text><ellipse cx="517.5" cy="498.9141" fill="none" rx="3" ry="3" style="stroke:#038048;stroke-width:1.0;"/><text fill="#000000" font-family="sans-serif" font-size="14" lengthAdjust="spacing" textLength="79" x="526.5" y="503.1426">Name: string</text><ellipse cx="517.5" cy="516.5234" fill="none" rx="3" ry="3" style="stroke:#038048;stroke-width:1.0;"/><text fill="#000000" font-family="sans-serif" font-size="14" lengthAdjust="spacing" textLength="336" x="526.5" y="520.752">RequiredStaffBySpecialization: Dictionary&lt;String, int&gt;</text><ellipse cx="517.5" cy="534.1328" fill="none" rx="3" ry="3" style="stroke:#038048;stroke-width:1.0;"/><text fill="#000000" font-family="sans-serif" font-size="14" lengthAdjust="spacing" textLength="172" x="526.5" y="538.3613">Duration: OperationPhases</text><line style="stroke:#181818;stroke-width:0.5;" x1="507.5" x2="980.5" y1="545.4375" y2="545.4375"/><ellipse cx="517.5" cy="559.7422" fill="#84BE84" rx="3" ry="3" style="stroke:#038048;stroke-width:1.0;"/><text fill="#000000" font-family="sans-serif" font-size="14" lengthAdjust="spacing" textLength="145" x="526.5" y="563.9707">SetName(name: string)</text><ellipse cx="517.5" cy="577.3516" fill="#84BE84" rx="3" ry="3" style="stroke:#038048;stroke-width:1.0;"/><text fill="#000000" font-family="sans-serif" font-size="14" lengthAdjust="spacing" textLength="449" x="526.5" y="581.5801">SetRequiredStaffBySpecialization(requiredStaff: Dictionary&lt;String, int&gt;)</text><ellipse cx="517.5" cy="594.9609" fill="#84BE84" rx="3" ry="3" style="stroke:#038048;stroke-width:1.0;"/><text fill="#000000" font-family="sans-serif" font-size="14" lengthAdjust="spacing" textLength="317" x="526.5" y="599.1895">SetEstimatedDuration(duration: OperationPhases)</text></g><!--class OperationTypeDto--><g id="elem_OperationTypeDto"><rect codeLine="36" fill="#F1F1F1" height="118.4375" id="OperationTypeDto" rx="2.5" ry="2.5" style="stroke:#181818;stroke-width:0.5;" width="362" x="1017" y="461.5"/><ellipse cx="1135.25" cy="477.5" fill="#ADD1B2" rx="11" ry="11" style="stroke:#181818;stroke-width:1.0;"/><path d="M1138.0156,473.375 Q1138.1719,473.1563 1138.3594,473.0469 Q1138.5469,472.9375 1138.7656,472.9375 Q1139.1406,472.9375 1139.375,473.2031 Q1139.6094,473.4531 1139.6094,474.0625 L1139.6094,475.5156 Q1139.6094,476.125 1139.375,476.3906 Q1139.1406,476.6563 1138.7656,476.6563 Q1138.4219,476.6563 1138.2188,476.4531 Q1138.0156,476.2656 1137.9063,475.75 Q1137.8594,475.3906 1137.6719,475.2031 Q1137.3438,474.8281 1136.7344,474.6094 Q1136.125,474.3906 1135.5,474.3906 Q1134.7344,474.3906 1134.0938,474.7188 Q1133.4688,475.0469 1132.9688,475.7969 Q1132.4844,476.5469 1132.4844,477.5781 L1132.4844,478.6719 Q1132.4844,479.9063 1133.375,480.7344 Q1134.2656,481.5469 1135.8594,481.5469 Q1136.7969,481.5469 1137.4531,481.2969 Q1137.8438,481.1406 1138.2656,480.7031 Q1138.5313,480.4375 1138.6719,480.3594 Q1138.8281,480.2813 1139.0313,480.2813 Q1139.3594,480.2813 1139.6094,480.5469 Q1139.875,480.7969 1139.875,481.1406 Q1139.875,481.4844 1139.5313,481.8906 Q1139.0313,482.4688 1138.2344,482.7969 Q1137.1563,483.25 1135.8594,483.25 Q1134.3438,483.25 1133.1406,482.625 Q1132.1563,482.125 1131.4688,481.0625 Q1130.7813,479.9844 1130.7813,478.7031 L1130.7813,477.5469 Q1130.7813,476.2188 1131.3906,475.0781 Q1132.0156,473.9219 1133.1094,473.3125 Q1134.2031,472.6875 1135.4375,472.6875 Q1136.1719,472.6875 1136.8125,472.8594 Q1137.4688,473.0156 1138.0156,473.375 Z " fill="#000000"/><text fill="#000000" font-family="sans-serif" font-size="14" lengthAdjust="spacing" textLength="117" x="1155.75" y="483.2285">OperationTypeDto</text><line style="stroke:#181818;stroke-width:0.5;" x1="1018" x2="1378" y1="493.5" y2="493.5"/><ellipse cx="1028" cy="507.8047" fill="none" rx="3" ry="3" style="stroke:#038048;stroke-width:1.0;"/><text fill="#000000" font-family="sans-serif" font-size="14" lengthAdjust="spacing" textLength="125" x="1037" y="512.0332">Id: OperationTypeId</text><ellipse cx="1028" cy="525.4141" fill="none" rx="3" ry="3" style="stroke:#038048;stroke-width:1.0;"/><text fill="#000000" font-family="sans-serif" font-size="14" lengthAdjust="spacing" textLength="79" x="1037" y="529.6426">Name: string</text><ellipse cx="1028" cy="543.0234" fill="none" rx="3" ry="3" style="stroke:#038048;stroke-width:1.0;"/><text fill="#000000" font-family="sans-serif" font-size="14" lengthAdjust="spacing" textLength="336" x="1037" y="547.252">RequiredStaffBySpecialization: Dictionary&lt;String, int&gt;</text><ellipse cx="1028" cy="560.6328" fill="none" rx="3" ry="3" style="stroke:#038048;stroke-width:1.0;"/><text fill="#000000" font-family="sans-serif" font-size="14" lengthAdjust="spacing" textLength="172" x="1037" y="564.8613">Duration: OperationPhases</text><line style="stroke:#181818;stroke-width:0.5;" x1="1018" x2="1378" y1="571.9375" y2="571.9375"/></g><!--class UpdateOperationTypeDto--><g id="elem_UpdateOperationTypeDto"><rect codeLine="43" fill="#F1F1F1" height="136.0469" id="UpdateOperationTypeDto" rx="2.5" ry="2.5" style="stroke:#181818;stroke-width:0.5;" width="362" x="1414" y="452.5"/><ellipse cx="1509.75" cy="468.5" fill="#ADD1B2" rx="11" ry="11" style="stroke:#181818;stroke-width:1.0;"/><path d="M1512.5156,464.375 Q1512.6719,464.1563 1512.8594,464.0469 Q1513.0469,463.9375 1513.2656,463.9375 Q1513.6406,463.9375 1513.875,464.2031 Q1514.1094,464.4531 1514.1094,465.0625 L1514.1094,466.5156 Q1514.1094,467.125 1513.875,467.3906 Q1513.6406,467.6563 1513.2656,467.6563 Q1512.9219,467.6563 1512.7188,467.4531 Q1512.5156,467.2656 1512.4063,466.75 Q1512.3594,466.3906 1512.1719,466.2031 Q1511.8438,465.8281 1511.2344,465.6094 Q1510.625,465.3906 1510,465.3906 Q1509.2344,465.3906 1508.5938,465.7188 Q1507.9688,466.0469 1507.4688,466.7969 Q1506.9844,467.5469 1506.9844,468.5781 L1506.9844,469.6719 Q1506.9844,470.9063 1507.875,471.7344 Q1508.7656,472.5469 1510.3594,472.5469 Q1511.2969,472.5469 1511.9531,472.2969 Q1512.3438,472.1406 1512.7656,471.7031 Q1513.0313,471.4375 1513.1719,471.3594 Q1513.3281,471.2813 1513.5313,471.2813 Q1513.8594,471.2813 1514.1094,471.5469 Q1514.375,471.7969 1514.375,472.1406 Q1514.375,472.4844 1514.0313,472.8906 Q1513.5313,473.4688 1512.7344,473.7969 Q1511.6563,474.25 1510.3594,474.25 Q1508.8438,474.25 1507.6406,473.625 Q1506.6563,473.125 1505.9688,472.0625 Q1505.2813,470.9844 1505.2813,469.7031 L1505.2813,468.5469 Q1505.2813,467.2188 1505.8906,466.0781 Q1506.5156,464.9219 1507.6094,464.3125 Q1508.7031,463.6875 1509.9375,463.6875 Q1510.6719,463.6875 1511.3125,463.8594 Q1511.9688,464.0156 1512.5156,464.375 Z " fill="#000000"/><text fill="#000000" font-family="sans-serif" font-size="14" lengthAdjust="spacing" textLength="162" x="1530.25" y="474.2285">UpdateOperationTypeDto</text><line style="stroke:#181818;stroke-width:0.5;" x1="1415" x2="1775" y1="484.5" y2="484.5"/><ellipse cx="1425" cy="498.8047" fill="none" rx="3" ry="3" style="stroke:#038048;stroke-width:1.0;"/><text fill="#000000" font-family="sans-serif" font-size="14" lengthAdjust="spacing" textLength="79" x="1434" y="503.0332">Name: string</text><ellipse cx="1425" cy="516.4141" fill="none" rx="3" ry="3" style="stroke:#038048;stroke-width:1.0;"/><text fill="#000000" font-family="sans-serif" font-size="14" lengthAdjust="spacing" textLength="336" x="1434" y="520.6426">RequiredStaffBySpecialization: Dictionary&lt;String, int&gt;</text><ellipse cx="1425" cy="534.0234" fill="none" rx="3" ry="3" style="stroke:#038048;stroke-width:1.0;"/><text fill="#000000" font-family="sans-serif" font-size="14" lengthAdjust="spacing" textLength="216" x="1434" y="538.252">AnesthesiaPreparation: TimeSpan</text><ellipse cx="1425" cy="551.6328" fill="none" rx="3" ry="3" style="stroke:#038048;stroke-width:1.0;"/><text fill="#000000" font-family="sans-serif" font-size="14" lengthAdjust="spacing" textLength="122" x="1434" y="555.8613">Surgery: TimeSpan</text><ellipse cx="1425" cy="569.2422" fill="none" rx="3" ry="3" style="stroke:#038048;stroke-width:1.0;"/><text fill="#000000" font-family="sans-serif" font-size="14" lengthAdjust="spacing" textLength="128" x="1434" y="573.4707">Cleaning: TimeSpan</text><line style="stroke:#181818;stroke-width:0.5;" x1="1415" x2="1775" y1="580.5469" y2="580.5469"/></g><!--class OperationPhases--><g id="elem_OperationPhases"><rect codeLine="51" fill="#F1F1F1" height="100.8281" id="OperationPhases" rx="2.5" ry="2.5" style="stroke:#181818;stroke-width:0.5;" width="242" x="1379" y="7"/><ellipse cx="1440.75" cy="23" fill="#ADD1B2" rx="11" ry="11" style="stroke:#181818;stroke-width:1.0;"/><path d="M1443.5156,18.875 Q1443.6719,18.6563 1443.8594,18.5469 Q1444.0469,18.4375 1444.2656,18.4375 Q1444.6406,18.4375 1444.875,18.7031 Q1445.1094,18.9531 1445.1094,19.5625 L1445.1094,21.0156 Q1445.1094,21.625 1444.875,21.8906 Q1444.6406,22.1563 1444.2656,22.1563 Q1443.9219,22.1563 1443.7188,21.9531 Q1443.5156,21.7656 1443.4063,21.25 Q1443.3594,20.8906 1443.1719,20.7031 Q1442.8438,20.3281 1442.2344,20.1094 Q1441.625,19.8906 1441,19.8906 Q1440.2344,19.8906 1439.5938,20.2188 Q1438.9688,20.5469 1438.4688,21.2969 Q1437.9844,22.0469 1437.9844,23.0781 L1437.9844,24.1719 Q1437.9844,25.4063 1438.875,26.2344 Q1439.7656,27.0469 1441.3594,27.0469 Q1442.2969,27.0469 1442.9531,26.7969 Q1443.3438,26.6406 1443.7656,26.2031 Q1444.0313,25.9375 1444.1719,25.8594 Q1444.3281,25.7813 1444.5313,25.7813 Q1444.8594,25.7813 1445.1094,26.0469 Q1445.375,26.2969 1445.375,26.6406 Q1445.375,26.9844 1445.0313,27.3906 Q1444.5313,27.9688 1443.7344,28.2969 Q1442.6563,28.75 1441.3594,28.75 Q1439.8438,28.75 1438.6406,28.125 Q1437.6563,27.625 1436.9688,26.5625 Q1436.2813,25.4844 1436.2813,24.2031 L1436.2813,23.0469 Q1436.2813,21.7188 1436.8906,20.5781 Q1437.5156,19.4219 1438.6094,18.8125 Q1439.7031,18.1875 1440.9375,18.1875 Q1441.6719,18.1875 1442.3125,18.3594 Q1442.9688,18.5156 1443.5156,18.875 Z " fill="#000000"/><text fill="#000000" font-family="sans-serif" font-size="14" lengthAdjust="spacing" textLength="110" x="1461.25" y="28.7285">OperationPhases</text><line style="stroke:#181818;stroke-width:0.5;" x1="1380" x2="1620" y1="39" y2="39"/><ellipse cx="1390" cy="53.3047" fill="none" rx="3" ry="3" style="stroke:#038048;stroke-width:1.0;"/><text fill="#000000" font-family="sans-serif" font-size="14" lengthAdjust="spacing" textLength="216" x="1399" y="57.5332">AnesthesiaPreparation: TimeSpan</text><ellipse cx="1390" cy="70.9141" fill="none" rx="3" ry="3" style="stroke:#038048;stroke-width:1.0;"/><text fill="#000000" font-family="sans-serif" font-size="14" lengthAdjust="spacing" textLength="122" x="1399" y="75.1426">Surgery: TimeSpan</text><ellipse cx="1390" cy="88.5234" fill="none" rx="3" ry="3" style="stroke:#038048;stroke-width:1.0;"/><text fill="#000000" font-family="sans-serif" font-size="14" lengthAdjust="spacing" textLength="128" x="1399" y="92.752">Cleaning: TimeSpan</text><line style="stroke:#181818;stroke-width:0.5;" x1="1380" x2="1620" y1="99.8281" y2="99.8281"/></g><!--link OperationTypeController to OperationTypeService--><g id="link_OperationTypeController_OperationTypeService"><path codeLine="57" d="M971,108.2 C971,131.34 971,153.5 971,179.84 " fill="none" id="OperationTypeController-to-OperationTypeService" style="stroke:#181818;stroke-width:1.0;"/><polygon fill="#181818" points="971,185.84,975,176.84,971,180.84,967,176.84,971,185.84" style="stroke:#181818;stroke-width:1.0;"/><text fill="#000000" font-family="sans-serif" font-size="13" lengthAdjust="spacing" textLength="28" x="972" y="152.4951">uses</text></g><!--link OperationTypeService to IOperationTypeRepository--><g id="link_OperationTypeService_IOperationTypeRepository"><path codeLine="58" d="M720.2,357.01 C645.78,382.1 564.09,409.65 489,435 C472.18,440.68 460.4039,444.6483 442.8939,450.5683 " fill="none" id="OperationTypeService-to-IOperationTypeRepository" style="stroke:#181818;stroke-width:1.0;"/><polygon fill="#181818" points="437.21,452.49,447.017,453.3967,441.9466,450.8886,444.4548,445.8182,437.21,452.49" style="stroke:#181818;stroke-width:1.0;"/><text fill="#000000" font-family="sans-serif" font-size="13" lengthAdjust="spacing" textLength="50" x="623" y="401.4951">interacts</text></g><!--link OperationTypeService to OperationType--><g id="link_OperationTypeService_OperationType"><path codeLine="59" d="M893.2,357.16 C870.1,382.3 848.8605,405.4027 825.7605,430.5327 " fill="none" id="OperationTypeService-to-OperationType" style="stroke:#181818;stroke-width:1.0;"/><polygon fill="#181818" points="821.7,434.95,830.7356,431.031,825.0837,431.2689,824.8458,425.6171,821.7,434.95" style="stroke:#181818;stroke-width:1.0;"/><text fill="#000000" font-family="sans-serif" font-size="13" lengthAdjust="spacing" textLength="70" x="866" y="401.4951">manipulates</text></g><!--link OperationTypeService to OperationTypeDto--><g id="link_OperationTypeService_OperationTypeDto"><path codeLine="60" d="M1048.8,357.16 C1080.38,391.51 1111.9896,425.9126 1140.5396,456.9726 " fill="none" id="OperationTypeService-to-OperationTypeDto" style="stroke:#181818;stroke-width:1.0;"/><polygon fill="#181818" points="1144.6,461.39,1141.4543,452.057,1141.2163,457.7089,1135.5645,457.4709,1144.6,461.39" style="stroke:#181818;stroke-width:1.0;"/><text fill="#000000" font-family="sans-serif" font-size="13" lengthAdjust="spacing" textLength="63" x="1093" y="401.4951">converts to</text></g><!--link OperationTypeService to UpdateOperationTypeDto--><g id="link_OperationTypeService_UpdateOperationTypeDto"><path codeLine="61" d="M1196.57,357 C1261.17,381.67 1331.53,409 1396,435 C1409.84,440.58 1418.6289,444.1686 1432.9789,450.1286 " fill="none" id="OperationTypeService-to-UpdateOperationTypeDto" style="stroke:#181818;stroke-width:1.0;"/><polygon fill="#181818" points="1438.52,452.43,1431.7426,445.2839,1433.9024,450.5122,1428.6741,452.672,1438.52,452.43" style="stroke:#181818;stroke-width:1.0;"/><text fill="#000000" font-family="sans-serif" font-size="13" lengthAdjust="spacing" textLength="63" x="1317" y="401.4951">converts to</text></g><!--SRC=[pLNRRjim37tFL_0nnPeV4880RX8K7eOsY5FiCL1j9X4gIvv45_EA_VlaQ-tOJbki0-OdcUGX3mzr2IMt5kuJD9o4LhiimQLMPBIKQE1b0kwRTVq1ccSH8knjkIXYli3I82ViH4uZqcp8iI9znM37xTFS2tFZ5cqgQNuUj5XKoH-Ig9TSH0nkKn5TGy8fFArqoE2hrMfJ_QKnAfeF8FF4TNc_NNyn-JsPX7r5wevhEVoETuk9jeAqoM1ltBeEUb22xW_VjNc2VTgiQ-ytVJmATMp4b9t_gcqlYZoRgV0zGlPQh7BS8dbIbccQhjVAgMFueyIFQzwn-7yd_p3f6RWz-8o6TjhPfheTT5RV9HekaOzIA49pu4xUqOczd2lzHh4-wvREDzaTZx7CezoAWINZXdeHj_ufBDcte8zQo-vWFeEkNpKzCDOHyF01QMJq-uagprshgSgqnH-fC1W5n0-7con8C1HSYby5cC5A54UJcsmU5B1hS0Ej-QzIKyKrzJOdRj5M_W0fBzaLyzLtiVRKjBsZJ5hfrfP4x8OIrRIcqHY_gn4DtPxzhsHiM0wVhuRhPpFo55eweHLyusvJNjFRYHY3XAjQyzGSqMGz-r8YLovboz6Nk-pmzUp_WufZB-fijXX-MnYakUg3lXmqUeCnAAuv7j85TFUqCeWTvIILRgxl1UKZPn2Mzx85Ty6EuaOsJ1Vz1m00]--></g></svg>