<?xml version="1.0" encoding="us-ascii" standalone="no"?><svg xmlns="http://www.w3.org/2000/svg" xmlns:xlink="http://www.w3.org/1999/xlink" contentStyleType="text/css" height="1337px" preserveAspectRatio="none" style="width:1388px;height:1337px;background:#FFFFFF;" version="1.1" viewBox="0 0 1388 1337" width="1388px" zoomAndPan="magnify"><defs/><g><rect fill="#FFFFFF" height="1130.1094" style="stroke:#181818;stroke-width:1.0;" width="10" x="364.5" y="114.9609"/><rect fill="#FFFFFF" height="925.5156" style="stroke:#181818;stroke-width:1.0;" width="10" x="628.5" y="260.2031"/><rect fill="#FFFFFF" height="91.0547" style="stroke:#181818;stroke-width:1.0;" width="10" x="845.5" y="290.5547"/><rect fill="#FFFFFF" height="91.0547" style="stroke:#181818;stroke-width:1.0;" width="10" x="845.5" y="600.5547"/><rect fill="#FFFFFF" height="91.0547" style="stroke:#181818;stroke-width:1.0;" width="10" x="845.5" y="914.9063"/><rect fill="#FFFFFF" height="74.7031" style="stroke:#181818;stroke-width:1.0;" width="10" x="988.5" y="1036.3125"/><rect fill="#FFFFFF" height="14" style="stroke:#181818;stroke-width:1.0;" width="10" x="1097.5" y="1141.3672"/><rect fill="none" height="1064.7578" style="stroke:#000000;stroke-width:1.5;" width="1371.5" x="10" y="173.3125"/><rect fill="none" height="834.4609" style="stroke:#000000;stroke-width:1.5;" width="1351.5" x="20" y="396.6094"/><rect fill="none" height="517.4609" style="stroke:#000000;stroke-width:1.5;" width="1331.5" x="30" y="706.6094"/><line style="stroke:#181818;stroke-width:0.5;stroke-dasharray:5.0,5.0;" x1="62" x2="62" y1="82.6094" y2="1255.0703"/><line style="stroke:#181818;stroke-width:0.5;stroke-dasharray:5.0,5.0;" x1="369" x2="369" y1="82.6094" y2="1255.0703"/><line style="stroke:#181818;stroke-width:0.5;stroke-dasharray:5.0,5.0;" x1="633.5" x2="633.5" y1="82.6094" y2="1255.0703"/><line style="stroke:#181818;stroke-width:0.5;stroke-dasharray:5.0,5.0;" x1="850.5" x2="850.5" y1="82.6094" y2="1255.0703"/><line style="stroke:#181818;stroke-width:0.5;stroke-dasharray:5.0,5.0;" x1="993.5" x2="993.5" y1="82.6094" y2="1255.0703"/><line style="stroke:#181818;stroke-width:0.5;stroke-dasharray:5.0,5.0;" x1="1102.5" x2="1102.5" y1="82.6094" y2="1255.0703"/><line style="stroke:#181818;stroke-width:0.5;stroke-dasharray:5.0,5.0;" x1="1201.5" x2="1201.5" y1="82.6094" y2="1255.0703"/><line style="stroke:#181818;stroke-width:0.5;stroke-dasharray:5.0,5.0;" x1="1298.5" x2="1298.5" y1="82.6094" y2="1255.0703"/><text fill="#000000" font-family="sans-serif" font-size="14" lengthAdjust="spacing" textLength="39" x="40" y="79.5332">Admin</text><ellipse cx="62.5" cy="13.5" fill="#E2E2F0" rx="8" ry="8" style="stroke:#181818;stroke-width:0.5;"/><path d="M62.5,21.5 L62.5,48.5 M49.5,29.5 L75.5,29.5 M62.5,48.5 L49.5,63.5 M62.5,48.5 L75.5,63.5 " fill="none" style="stroke:#181818;stroke-width:0.5;"/><text fill="#000000" font-family="sans-serif" font-size="14" lengthAdjust="spacing" textLength="39" x="40" y="1268.6035">Admin</text><ellipse cx="62.5" cy="1280.1797" fill="#E2E2F0" rx="8" ry="8" style="stroke:#181818;stroke-width:0.5;"/><path d="M62.5,1288.1797 L62.5,1315.1797 M49.5,1296.1797 L75.5,1296.1797 M62.5,1315.1797 L49.5,1330.1797 M62.5,1315.1797 L75.5,1330.1797 " fill="none" style="stroke:#181818;stroke-width:0.5;"/><rect fill="#E2E2F0" height="31.6094" rx="2.5" ry="2.5" style="stroke:#181818;stroke-width:0.5;" width="171" x="284" y="50"/><text fill="#000000" font-family="sans-serif" font-size="14" lengthAdjust="spacing" textLength="157" x="291" y="71.5332">OperationTypeController</text><rect fill="#E2E2F0" height="31.6094" rx="2.5" ry="2.5" style="stroke:#181818;stroke-width:0.5;" width="171" x="284" y="1254.0703"/><text fill="#000000" font-family="sans-serif" font-size="14" lengthAdjust="spacing" textLength="157" x="291" y="1275.6035">OperationTypeController</text><rect fill="#E2E2F0" height="31.6094" rx="2.5" ry="2.5" style="stroke:#181818;stroke-width:0.5;" width="156" x="555.5" y="50"/><text fill="#000000" font-family="sans-serif" font-size="14" lengthAdjust="spacing" textLength="142" x="562.5" y="71.5332">OperationTypeService</text><rect fill="#E2E2F0" height="31.6094" rx="2.5" ry="2.5" style="stroke:#181818;stroke-width:0.5;" width="156" x="555.5" y="1254.0703"/><text fill="#000000" font-family="sans-serif" font-size="14" lengthAdjust="spacing" textLength="142" x="562.5" y="1275.6035">OperationTypeService</text><rect fill="#E2E2F0" height="31.6094" rx="2.5" ry="2.5" style="stroke:#181818;stroke-width:0.5;" width="180" x="760.5" y="50"/><text fill="#000000" font-family="sans-serif" font-size="14" lengthAdjust="spacing" textLength="166" x="767.5" y="71.5332">IOperationTypeRepository</text><rect fill="#E2E2F0" height="31.6094" rx="2.5" ry="2.5" style="stroke:#181818;stroke-width:0.5;" width="180" x="760.5" y="1254.0703"/><text fill="#000000" font-family="sans-serif" font-size="14" lengthAdjust="spacing" textLength="166" x="767.5" y="1275.6035">IOperationTypeRepository</text><rect fill="#E2E2F0" height="31.6094" rx="2.5" ry="2.5" style="stroke:#181818;stroke-width:0.5;" width="86" x="950.5" y="50"/><text fill="#000000" font-family="sans-serif" font-size="14" lengthAdjust="spacing" textLength="72" x="957.5" y="71.5332">UnitOfWork</text><rect fill="#E2E2F0" height="31.6094" rx="2.5" ry="2.5" style="stroke:#181818;stroke-width:0.5;" width="86" x="950.5" y="1254.0703"/><text fill="#000000" font-family="sans-serif" font-size="14" lengthAdjust="spacing" textLength="72" x="957.5" y="1275.6035">UnitOfWork</text><rect fill="#E2E2F0" height="31.6094" rx="2.5" ry="2.5" style="stroke:#181818;stroke-width:0.5;" width="112" x="1046.5" y="50"/><text fill="#000000" font-family="sans-serif" font-size="14" lengthAdjust="spacing" textLength="98" x="1053.5" y="71.5332">LoggingService</text><rect fill="#E2E2F0" height="31.6094" rx="2.5" ry="2.5" style="stroke:#181818;stroke-width:0.5;" width="112" x="1046.5" y="1254.0703"/><text fill="#000000" font-family="sans-serif" font-size="14" lengthAdjust="spacing" textLength="98" x="1053.5" y="1275.6035">LoggingService</text><text fill="#000000" font-family="sans-serif" font-size="14" lengthAdjust="spacing" textLength="61" x="1168.5" y="79.5332">Database</text><path d="M1184,29 C1184,19 1202,19 1202,19 C1202,19 1220,19 1220,29 L1220,55 C1220,65 1202,65 1202,65 C1202,65 1184,65 1184,55 L1184,29 " fill="#E2E2F0" style="stroke:#181818;stroke-width:1.5;"/><path d="M1184,29 C1184,39 1202,39 1202,39 C1202,39 1220,39 1220,29 " fill="none" style="stroke:#181818;stroke-width:1.5;"/><text fill="#000000" font-family="sans-serif" font-size="14" lengthAdjust="spacing" textLength="61" x="1168.5" y="1268.6035">Database</text><path d="M1184,1281.6797 C1184,1271.6797 1202,1271.6797 1202,1271.6797 C1202,1271.6797 1220,1271.6797 1220,1281.6797 L1220,1307.6797 C1220,1317.6797 1202,1317.6797 1202,1317.6797 C1202,1317.6797 1184,1317.6797 1184,1307.6797 L1184,1281.6797 " fill="#E2E2F0" style="stroke:#181818;stroke-width:1.5;"/><path d="M1184,1281.6797 C1184,1291.6797 1202,1291.6797 1202,1291.6797 C1202,1291.6797 1220,1291.6797 1220,1281.6797 " fill="none" style="stroke:#181818;stroke-width:1.5;"/><rect fill="#E2E2F0" height="31.6094" rx="2.5" ry="2.5" style="stroke:#181818;stroke-width:0.5;" width="106" x="1245.5" y="50"/><text fill="#000000" font-family="sans-serif" font-size="14" lengthAdjust="spacing" textLength="92" x="1252.5" y="71.5332">operationType</text><rect fill="#E2E2F0" height="31.6094" rx="2.5" ry="2.5" style="stroke:#181818;stroke-width:0.5;" width="106" x="1245.5" y="1254.0703"/><text fill="#000000" font-family="sans-serif" font-size="14" lengthAdjust="spacing" textLength="92" x="1252.5" y="1275.6035">operationType</text><rect fill="#FFFFFF" height="1130.1094" style="stroke:#181818;stroke-width:1.0;" width="10" x="364.5" y="114.9609"/><rect fill="#FFFFFF" height="925.5156" style="stroke:#181818;stroke-width:1.0;" width="10" x="628.5" y="260.2031"/><rect fill="#FFFFFF" height="91.0547" style="stroke:#181818;stroke-width:1.0;" width="10" x="845.5" y="290.5547"/><rect fill="#FFFFFF" height="91.0547" style="stroke:#181818;stroke-width:1.0;" width="10" x="845.5" y="600.5547"/><rect fill="#FFFFFF" height="91.0547" style="stroke:#181818;stroke-width:1.0;" width="10" x="845.5" y="914.9063"/><rect fill="#FFFFFF" height="74.7031" style="stroke:#181818;stroke-width:1.0;" width="10" x="988.5" y="1036.3125"/><rect fill="#FFFFFF" height="14" style="stroke:#181818;stroke-width:1.0;" width="10" x="1097.5" y="1141.3672"/><polygon fill="#181818" points="352.5,110.9609,362.5,114.9609,352.5,118.9609,356.5,114.9609" style="stroke:#181818;stroke-width:1.0;"/><line style="stroke:#181818;stroke-width:1.0;" x1="62.5" x2="358.5" y1="114.9609" y2="114.9609"/><text fill="#000000" font-family="sans-serif" font-size="13" lengthAdjust="spacing" textLength="283" x="69.5" y="110.1045">PATCH /api/operationtype/edit-operation-type/{id}</text><line style="stroke:#181818;stroke-width:1.0;" x1="374.5" x2="416.5" y1="145.3125" y2="145.3125"/><line style="stroke:#181818;stroke-width:1.0;" x1="416.5" x2="416.5" y1="145.3125" y2="158.3125"/><line style="stroke:#181818;stroke-width:1.0;" x1="375.5" x2="416.5" y1="158.3125" y2="158.3125"/><polygon fill="#181818" points="385.5,154.3125,375.5,158.3125,385.5,162.3125,381.5,158.3125" style="stroke:#181818;stroke-width:1.0;"/><text fill="#000000" font-family="sans-serif" font-size="13" lengthAdjust="spacing" textLength="117" x="381.5" y="140.4561">Validate ModelState</text><path d="M10,173.3125 L71,173.3125 L71,181.6641 L61,191.6641 L10,191.6641 L10,173.3125 " fill="#EEEEEE" style="stroke:#000000;stroke-width:1.5;"/><rect fill="none" height="1064.7578" style="stroke:#000000;stroke-width:1.5;" width="1371.5" x="10" y="173.3125"/><text fill="#000000" font-family="sans-serif" font-size="13" font-weight="bold" lengthAdjust="spacing" textLength="16" x="25" y="187.8076">alt</text><text fill="#000000" font-family="sans-serif" font-size="11" font-weight="bold" lengthAdjust="spacing" textLength="132" x="86" y="186.7314">[ModelState is not valid]</text><polygon fill="#181818" points="73.5,210.0156,63.5,214.0156,73.5,218.0156,69.5,214.0156" style="stroke:#181818;stroke-width:1.0;"/><line style="stroke:#181818;stroke-width:1.0;stroke-dasharray:2.0,2.0;" x1="67.5" x2="363.5" y1="214.0156" y2="214.0156"/><text fill="#000000" font-family="sans-serif" font-size="13" lengthAdjust="spacing" textLength="179" x="79.5" y="209.1592">400 Bad Request (Invalid input)</text><line style="stroke:#000000;stroke-width:1.0;stroke-dasharray:2.0,2.0;" x1="10" x2="1381.5" y1="223.0156" y2="223.0156"/><text fill="#000000" font-family="sans-serif" font-size="11" font-weight="bold" lengthAdjust="spacing" textLength="111" x="15" y="234.4346">[ModelState is valid]</text><polygon fill="#181818" points="616.5,256.2031,626.5,260.2031,616.5,264.2031,620.5,260.2031" style="stroke:#181818;stroke-width:1.0;"/><line style="stroke:#181818;stroke-width:1.0;" x1="374.5" x2="622.5" y1="260.2031" y2="260.2031"/><text fill="#000000" font-family="sans-serif" font-size="13" lengthAdjust="spacing" textLength="206" x="381.5" y="255.3467">UpdateOperationType(id, patchDoc)</text><polygon fill="#181818" points="833.5,286.5547,843.5,290.5547,833.5,294.5547,837.5,290.5547" style="stroke:#181818;stroke-width:1.0;"/><line style="stroke:#181818;stroke-width:1.0;" x1="638.5" x2="839.5" y1="290.5547" y2="290.5547"/><text fill="#000000" font-family="sans-serif" font-size="13" lengthAdjust="spacing" textLength="102" x="645.5" y="285.6982">GetByIdAsync(id)</text><polygon fill="#181818" points="1190,316.9063,1200,320.9063,1190,324.9063,1194,320.9063" style="stroke:#181818;stroke-width:1.0;"/><line style="stroke:#181818;stroke-width:1.0;" x1="855.5" x2="1196" y1="320.9063" y2="320.9063"/><text fill="#000000" font-family="sans-serif" font-size="13" lengthAdjust="spacing" textLength="35" x="862.5" y="316.0498">Query</text><polygon fill="#181818" points="866.5,347.2578,856.5,351.2578,866.5,355.2578,862.5,351.2578" style="stroke:#181818;stroke-width:1.0;"/><line style="stroke:#181818;stroke-width:1.0;stroke-dasharray:2.0,2.0;" x1="860.5" x2="1201" y1="351.2578" y2="351.2578"/><text fill="#000000" font-family="sans-serif" font-size="13" lengthAdjust="spacing" textLength="84" x="872.5" y="346.4014">OperationType</text><polygon fill="#181818" points="649.5,377.6094,639.5,381.6094,649.5,385.6094,645.5,381.6094" style="stroke:#181818;stroke-width:1.0;"/><line style="stroke:#181818;stroke-width:1.0;stroke-dasharray:2.0,2.0;" x1="643.5" x2="849.5" y1="381.6094" y2="381.6094"/><text fill="#000000" font-family="sans-serif" font-size="13" lengthAdjust="spacing" textLength="84" x="655.5" y="376.7529">OperationType</text><path d="M20,396.6094 L81,396.6094 L81,404.9609 L71,414.9609 L20,414.9609 L20,396.6094 " fill="#EEEEEE" style="stroke:#000000;stroke-width:1.5;"/><rect fill="none" height="834.4609" style="stroke:#000000;stroke-width:1.5;" width="1351.5" x="20" y="396.6094"/><text fill="#000000" font-family="sans-serif" font-size="13" font-weight="bold" lengthAdjust="spacing" textLength="16" x="35" y="411.1045">alt</text><text fill="#000000" font-family="sans-serif" font-size="11" font-weight="bold" lengthAdjust="spacing" textLength="145" x="96" y="410.0283">[OperationType not found]</text><polygon fill="#181818" points="385.5,433.3125,375.5,437.3125,385.5,441.3125,381.5,437.3125" style="stroke:#181818;stroke-width:1.0;"/><line style="stroke:#181818;stroke-width:1.0;stroke-dasharray:2.0,2.0;" x1="379.5" x2="627.5" y1="437.3125" y2="437.3125"/><text fill="#000000" font-family="sans-serif" font-size="13" lengthAdjust="spacing" textLength="230" x="391.5" y="432.4561">throw BusinessRuleValidationException</text><polygon fill="#181818" points="73.5,463.6641,63.5,467.6641,73.5,471.6641,69.5,467.6641" style="stroke:#181818;stroke-width:1.0;"/><line style="stroke:#181818;stroke-width:1.0;stroke-dasharray:2.0,2.0;" x1="67.5" x2="363.5" y1="467.6641" y2="467.6641"/><text fill="#000000" font-family="sans-serif" font-size="13" lengthAdjust="spacing" textLength="254" x="79.5" y="462.8076">400 Bad Request (Operation type not found)</text><line style="stroke:#000000;stroke-width:1.0;stroke-dasharray:2.0,2.0;" x1="20" x2="1371.5" y1="476.6641" y2="476.6641"/><text fill="#000000" font-family="sans-serif" font-size="11" font-weight="bold" lengthAdjust="spacing" textLength="124" x="25" y="488.083">[OperationType found]</text><line style="stroke:#181818;stroke-width:1.0;" x1="638.5" x2="680.5" y1="513.8516" y2="513.8516"/><line style="stroke:#181818;stroke-width:1.0;" x1="680.5" x2="680.5" y1="513.8516" y2="526.8516"/><line style="stroke:#181818;stroke-width:1.0;" x1="639.5" x2="680.5" y1="526.8516" y2="526.8516"/><polygon fill="#181818" points="649.5,522.8516,639.5,526.8516,649.5,530.8516,645.5,526.8516" style="stroke:#181818;stroke-width:1.0;"/><text fill="#000000" font-family="sans-serif" font-size="13" lengthAdjust="spacing" textLength="169" x="645.5" y="508.9951">ConvertToDto(OperationType)</text><line style="stroke:#181818;stroke-width:1.0;" x1="638.5" x2="680.5" y1="557.2031" y2="557.2031"/><line style="stroke:#181818;stroke-width:1.0;" x1="680.5" x2="680.5" y1="557.2031" y2="570.2031"/><line style="stroke:#181818;stroke-width:1.0;" x1="639.5" x2="680.5" y1="570.2031" y2="570.2031"/><polygon fill="#181818" points="649.5,566.2031,639.5,570.2031,649.5,574.2031,645.5,570.2031" style="stroke:#181818;stroke-width:1.0;"/><text fill="#000000" font-family="sans-serif" font-size="13" lengthAdjust="spacing" textLength="131" x="645.5" y="552.3467">Apply patchDoc to Dto</text><polygon fill="#181818" points="833.5,596.5547,843.5,600.5547,833.5,604.5547,837.5,600.5547" style="stroke:#181818;stroke-width:1.0;"/><line style="stroke:#181818;stroke-width:1.0;" x1="638.5" x2="839.5" y1="600.5547" y2="600.5547"/><text fill="#000000" font-family="sans-serif" font-size="13" lengthAdjust="spacing" textLength="188" x="645.5" y="595.6982">ExistsByNameAsync(dto.Name)</text><polygon fill="#181818" points="1190,626.9063,1200,630.9063,1190,634.9063,1194,630.9063" style="stroke:#181818;stroke-width:1.0;"/><line style="stroke:#181818;stroke-width:1.0;" x1="855.5" x2="1196" y1="630.9063" y2="630.9063"/><text fill="#000000" font-family="sans-serif" font-size="13" lengthAdjust="spacing" textLength="35" x="862.5" y="626.0498">Query</text><polygon fill="#181818" points="866.5,657.2578,856.5,661.2578,866.5,665.2578,862.5,661.2578" style="stroke:#181818;stroke-width:1.0;"/><line style="stroke:#181818;stroke-width:1.0;stroke-dasharray:2.0,2.0;" x1="860.5" x2="1201" y1="661.2578" y2="661.2578"/><text fill="#000000" font-family="sans-serif" font-size="13" lengthAdjust="spacing" textLength="24" x="872.5" y="656.4014">bool</text><polygon fill="#181818" points="649.5,687.6094,639.5,691.6094,649.5,695.6094,645.5,691.6094" style="stroke:#181818;stroke-width:1.0;"/><line style="stroke:#181818;stroke-width:1.0;stroke-dasharray:2.0,2.0;" x1="643.5" x2="849.5" y1="691.6094" y2="691.6094"/><text fill="#000000" font-family="sans-serif" font-size="13" lengthAdjust="spacing" textLength="24" x="655.5" y="686.7529">bool</text><path d="M30,706.6094 L91,706.6094 L91,714.9609 L81,724.9609 L30,724.9609 L30,706.6094 " fill="#EEEEEE" style="stroke:#000000;stroke-width:1.5;"/><rect fill="none" height="517.4609" style="stroke:#000000;stroke-width:1.5;" width="1331.5" x="30" y="706.6094"/><text fill="#000000" font-family="sans-serif" font-size="13" font-weight="bold" lengthAdjust="spacing" textLength="16" x="45" y="721.1045">alt</text><text fill="#000000" font-family="sans-serif" font-size="11" font-weight="bold" lengthAdjust="spacing" textLength="119" x="106" y="720.0283">[Name already exists]</text><polygon fill="#181818" points="385.5,743.3125,375.5,747.3125,385.5,751.3125,381.5,747.3125" style="stroke:#181818;stroke-width:1.0;"/><line style="stroke:#181818;stroke-width:1.0;stroke-dasharray:2.0,2.0;" x1="379.5" x2="627.5" y1="747.3125" y2="747.3125"/><text fill="#000000" font-family="sans-serif" font-size="13" lengthAdjust="spacing" textLength="230" x="391.5" y="742.4561">throw BusinessRuleValidationException</text><polygon fill="#181818" points="73.5,773.6641,63.5,777.6641,73.5,781.6641,69.5,777.6641" style="stroke:#181818;stroke-width:1.0;"/><line style="stroke:#181818;stroke-width:1.0;stroke-dasharray:2.0,2.0;" x1="67.5" x2="363.5" y1="777.6641" y2="777.6641"/><text fill="#000000" font-family="sans-serif" font-size="13" lengthAdjust="spacing" textLength="231" x="79.5" y="772.8076">400 Bad Request (Name already exists)</text><line style="stroke:#000000;stroke-width:1.0;stroke-dasharray:2.0,2.0;" x1="30" x2="1361.5" y1="786.6641" y2="786.6641"/><text fill="#000000" font-family="sans-serif" font-size="11" font-weight="bold" lengthAdjust="spacing" textLength="93" x="35" y="798.083">[Name is unique]</text><polygon fill="#181818" points="1286.5,819.8516,1296.5,823.8516,1286.5,827.8516,1290.5,823.8516" style="stroke:#181818;stroke-width:1.0;"/><line style="stroke:#181818;stroke-width:1.0;" x1="638.5" x2="1292.5" y1="823.8516" y2="823.8516"/><text fill="#000000" font-family="sans-serif" font-size="13" lengthAdjust="spacing" textLength="118" x="645.5" y="818.9951">SetName(dto.Name)</text><polygon fill="#181818" points="1286.5,850.2031,1296.5,854.2031,1286.5,858.2031,1290.5,854.2031" style="stroke:#181818;stroke-width:1.0;"/><line style="stroke:#181818;stroke-width:1.0;" x1="638.5" x2="1292.5" y1="854.2031" y2="854.2031"/><text fill="#000000" font-family="sans-serif" font-size="13" lengthAdjust="spacing" textLength="398" x="645.5" y="849.3467">SetRequiredStaffBySpecialization(dto.RequiredStaffBySpecialization)</text><polygon fill="#181818" points="1286.5,880.5547,1296.5,884.5547,1286.5,888.5547,1290.5,884.5547" style="stroke:#181818;stroke-width:1.0;"/><line style="stroke:#181818;stroke-width:1.0;" x1="638.5" x2="1292.5" y1="884.5547" y2="884.5547"/><text fill="#000000" font-family="sans-serif" font-size="13" lengthAdjust="spacing" textLength="443" x="645.5" y="879.6982">SetEstimatedDuration(dto.AnesthesiaPreparation, dto.Surgery, dto.Cleaning)</text><polygon fill="#181818" points="833.5,910.9063,843.5,914.9063,833.5,918.9063,837.5,914.9063" style="stroke:#181818;stroke-width:1.0;"/><line style="stroke:#181818;stroke-width:1.0;" x1="638.5" x2="839.5" y1="914.9063" y2="914.9063"/><text fill="#000000" font-family="sans-serif" font-size="13" lengthAdjust="spacing" textLength="167" x="645.5" y="910.0498">UpdateAsync(operationType)</text><polygon fill="#181818" points="1190,941.2578,1200,945.2578,1190,949.2578,1194,945.2578" style="stroke:#181818;stroke-width:1.0;"/><line style="stroke:#181818;stroke-width:1.0;" x1="855.5" x2="1196" y1="945.2578" y2="945.2578"/><text fill="#000000" font-family="sans-serif" font-size="13" lengthAdjust="spacing" textLength="41" x="862.5" y="940.4014">Update</text><polygon fill="#181818" points="866.5,971.6094,856.5,975.6094,866.5,979.6094,862.5,975.6094" style="stroke:#181818;stroke-width:1.0;"/><line style="stroke:#181818;stroke-width:1.0;stroke-dasharray:2.0,2.0;" x1="860.5" x2="1201" y1="975.6094" y2="975.6094"/><text fill="#000000" font-family="sans-serif" font-size="13" lengthAdjust="spacing" textLength="72" x="872.5" y="970.7529">Confirmation</text><polygon fill="#181818" points="649.5,1001.9609,639.5,1005.9609,649.5,1009.9609,645.5,1005.9609" style="stroke:#181818;stroke-width:1.0;"/><line style="stroke:#181818;stroke-width:1.0;stroke-dasharray:2.0,2.0;" x1="643.5" x2="849.5" y1="1005.9609" y2="1005.9609"/><text fill="#000000" font-family="sans-serif" font-size="13" lengthAdjust="spacing" textLength="136" x="655.5" y="1001.1045">Updated OperationType</text><polygon fill="#181818" points="976.5,1032.3125,986.5,1036.3125,976.5,1040.3125,980.5,1036.3125" style="stroke:#181818;stroke-width:1.0;"/><line style="stroke:#181818;stroke-width:1.0;" x1="638.5" x2="982.5" y1="1036.3125" y2="1036.3125"/><text fill="#000000" font-family="sans-serif" font-size="13" lengthAdjust="spacing" textLength="90" x="645.5" y="1031.4561">CommitAsync()</text><polygon fill="#181818" points="1190,1062.6641,1200,1066.6641,1190,1070.6641,1194,1066.6641" style="stroke:#181818;stroke-width:1.0;"/><line style="stroke:#181818;stroke-width:1.0;" x1="998.5" x2="1196" y1="1066.6641" y2="1066.6641"/><text fill="#000000" font-family="sans-serif" font-size="13" lengthAdjust="spacing" textLength="116" x="1005.5" y="1061.8076">Commit Transaction</text><polygon fill="#181818" points="1009.5,1093.0156,999.5,1097.0156,1009.5,1101.0156,1005.5,1097.0156" style="stroke:#181818;stroke-width:1.0;"/><line style="stroke:#181818;stroke-width:1.0;stroke-dasharray:2.0,2.0;" x1="1003.5" x2="1201" y1="1097.0156" y2="1097.0156"/><text fill="#000000" font-family="sans-serif" font-size="13" lengthAdjust="spacing" textLength="72" x="1015.5" y="1092.1592">Confirmation</text><polygon fill="#181818" points="649.5,1107.0156,639.5,1111.0156,649.5,1115.0156,645.5,1111.0156" style="stroke:#181818;stroke-width:1.0;"/><line style="stroke:#181818;stroke-width:1.0;stroke-dasharray:2.0,2.0;" x1="643.5" x2="992.5" y1="1111.0156" y2="1111.0156"/><polygon fill="#181818" points="1085.5,1137.3672,1095.5,1141.3672,1085.5,1145.3672,1089.5,1141.3672" style="stroke:#181818;stroke-width:1.0;"/><line style="stroke:#181818;stroke-width:1.0;" x1="638.5" x2="1091.5" y1="1141.3672" y2="1141.3672"/><text fill="#000000" font-family="sans-serif" font-size="13" lengthAdjust="spacing" textLength="263" x="645.5" y="1136.5107">LogInformation("Operation type updated: {id}")</text><polygon fill="#181818" points="649.5,1151.3672,639.5,1155.3672,649.5,1159.3672,645.5,1155.3672" style="stroke:#181818;stroke-width:1.0;"/><line style="stroke:#181818;stroke-width:1.0;stroke-dasharray:2.0,2.0;" x1="643.5" x2="1101.5" y1="1155.3672" y2="1155.3672"/><polygon fill="#181818" points="385.5,1181.7188,375.5,1185.7188,385.5,1189.7188,381.5,1185.7188" style="stroke:#181818;stroke-width:1.0;"/><line style="stroke:#181818;stroke-width:1.0;stroke-dasharray:2.0,2.0;" x1="379.5" x2="632.5" y1="1185.7188" y2="1185.7188"/><text fill="#000000" font-family="sans-serif" font-size="13" lengthAdjust="spacing" textLength="104" x="391.5" y="1180.8623">OperationTypeDto</text><polygon fill="#181818" points="73.5,1212.0703,63.5,1216.0703,73.5,1220.0703,69.5,1216.0703" style="stroke:#181818;stroke-width:1.0;"/><line style="stroke:#181818;stroke-width:1.0;stroke-dasharray:2.0,2.0;" x1="67.5" x2="363.5" y1="1216.0703" y2="1216.0703"/><text fill="#000000" font-family="sans-serif" font-size="13" lengthAdjust="spacing" textLength="160" x="79.5" y="1211.2139">200 OK (OperationTypeDto)</text><!--SRC=[hLPDRzim3BtxLn0vfK2x5iDEEHH8cc8Bzj6kIRUpOYcjC4Vo93gTD-o_Zv9intBij0LM8AW- -1uVHOeoIr4R64tvLgeHC0lCZPAS6PIfp9b26DtamZ2KMgtAN5nfXKPdcJ3UF6scHp1BONOo5HvWmpYsNaJcToBNLfAkqYCCJMFpUoNnPlDTcn_UeD1FyVud_V0WrKFRRKPBf37X3DcQMG6ZUJNostoT93voEBjinGGJk9skhZx0ESlbkQv58eay5rpYMRDqvjV-IFutOIdA7KFHFfkanTdry8rbaZlxpvgBR8aqJ5Y6hIb82qeZx9nb0lJNfYE-87q2xoukOCOut8cVXR08uuNo690gB_0a4PaL7Tv-piiwJqHwdpjrKOR6afz2pZ1zdElqnAERgEi4-zMQXGXT6edjlS1PkU1JMwgKQ3fWdsktugq9nTU4-Le8K_fbcfxjkI9DBLWa_z28YzXVa40d7fdw4z_eGeNJYQBffX0VZNw2MM6b4jRU5PceaafSrxzIaRj1G_FIv3Lo02CzuSnyBcF50shRfq7NToSChlGSzJX2dpJ0umpJFC_A9lc06eYg3r8bwVgNj6XdvHUs5I7h7FKRDzjxFCp_aHeuh8Errba75KcEzdkpNrU0aqK38nWlGNZbpVv_h83NL46FfFt1-IBm5dIL2oK9qw_t4dHKAXDO2dJ0dcmy3tJYf16SkiXcCokNkKWbXVlRctd6enQlSNLjKMufMNnUc3tzb4uP7uMLx9QIoCBEARYjPM6eqvTXSfK9fkWfY3qEkQ_AAJIyKAkw_ueC5-r1uGQsQ3-kNhgI6scsxA12UYevaF6UflPiUNTYfKVJ-zvk9OPG1w9phsjxmm7hs08SLeOfwm2T0AeuQrS3ONh2ACgXW9oKeNZ20qzWUlmNQgChJ-DHfuiMuGGduDxgqK3CrTT2Uw_YRmaTKbb_QhoeRqI9R3VI3cdqgZxJGjvI2xdv2ECkTwjjLC-4- -z-BKUjZvP_]--></g></svg>