<?xml version="1.0" encoding="us-ascii" standalone="no"?><svg xmlns="http://www.w3.org/2000/svg" xmlns:xlink="http://www.w3.org/1999/xlink" contentStyleType="text/css" height="1075px" preserveAspectRatio="none" style="width:1649px;height:1075px;background:#FFFFFF;" version="1.1" viewBox="0 0 1649 1075" width="1649px" zoomAndPan="magnify"><defs/><g><rect fill="#FFFFFF" height="867.9766" style="stroke:#181818;stroke-width:1.0;" width="10" x="339.5" y="114.9609"/><rect fill="#FFFFFF" height="670.3828" style="stroke:#181818;stroke-width:1.0;" width="10" x="603.5" y="260.2031"/><rect fill="#FFFFFF" height="91.0547" style="stroke:#181818;stroke-width:1.0;" width="10" x="820.5" y="290.5547"/><rect fill="#FFFFFF" height="91.0547" style="stroke:#181818;stroke-width:1.0;" width="10" x="820.5" y="659.7734"/><rect fill="#FFFFFF" height="32.6094" style="stroke:#181818;stroke-width:1.0;" width="10" x="1141.5" y="523.8516"/><rect fill="#FFFFFF" height="32.6094" style="stroke:#181818;stroke-width:1.0;" width="10" x="1268" y="596.8125"/><rect fill="#FFFFFF" height="74.7031" style="stroke:#181818;stroke-width:1.0;" width="10" x="1375.5" y="781.1797"/><rect fill="#FFFFFF" height="14" style="stroke:#181818;stroke-width:1.0;" width="10" x="1484.5" y="886.2344"/><rect fill="none" height="802.625" style="stroke:#000000;stroke-width:1.5;" width="1632.5" x="10" y="173.3125"/><rect fill="none" height="572.3281" style="stroke:#000000;stroke-width:1.5;" width="1612.5" x="20" y="396.6094"/><line style="stroke:#181818;stroke-width:0.5;stroke-dasharray:5.0,5.0;" x1="52" x2="52" y1="82.6094" y2="992.9375"/><line style="stroke:#181818;stroke-width:0.5;stroke-dasharray:5.0,5.0;" x1="344" x2="344" y1="82.6094" y2="992.9375"/><line style="stroke:#181818;stroke-width:0.5;stroke-dasharray:5.0,5.0;" x1="608.5" x2="608.5" y1="82.6094" y2="992.9375"/><line style="stroke:#181818;stroke-width:0.5;stroke-dasharray:5.0,5.0;" x1="825.5" x2="825.5" y1="82.6094" y2="992.9375"/><line style="stroke:#181818;stroke-width:0.5;stroke-dasharray:5.0,5.0;" x1="1146.5" x2="1146.5" y1="522.8047" y2="992.9375"/><line style="stroke:#181818;stroke-width:0.5;stroke-dasharray:5.0,5.0;" x1="1272.5" x2="1272.5" y1="595.7656" y2="992.9375"/><line style="stroke:#181818;stroke-width:0.5;stroke-dasharray:5.0,5.0;" x1="1380.5" x2="1380.5" y1="82.6094" y2="992.9375"/><line style="stroke:#181818;stroke-width:0.5;stroke-dasharray:5.0,5.0;" x1="1489.5" x2="1489.5" y1="82.6094" y2="992.9375"/><line style="stroke:#181818;stroke-width:0.5;stroke-dasharray:5.0,5.0;" x1="1588.5" x2="1588.5" y1="82.6094" y2="992.9375"/><text fill="#000000" font-family="sans-serif" font-size="14" lengthAdjust="spacing" textLength="39" x="30" y="79.5332">Admin</text><ellipse cx="52.5" cy="13.5" fill="#E2E2F0" rx="8" ry="8" style="stroke:#181818;stroke-width:0.5;"/><path d="M52.5,21.5 L52.5,48.5 M39.5,29.5 L65.5,29.5 M52.5,48.5 L39.5,63.5 M52.5,48.5 L65.5,63.5 " fill="none" style="stroke:#181818;stroke-width:0.5;"/><text fill="#000000" font-family="sans-serif" font-size="14" lengthAdjust="spacing" textLength="39" x="30" y="1006.4707">Admin</text><ellipse cx="52.5" cy="1018.0469" fill="#E2E2F0" rx="8" ry="8" style="stroke:#181818;stroke-width:0.5;"/><path d="M52.5,1026.0469 L52.5,1053.0469 M39.5,1034.0469 L65.5,1034.0469 M52.5,1053.0469 L39.5,1068.0469 M52.5,1053.0469 L65.5,1068.0469 " fill="none" style="stroke:#181818;stroke-width:0.5;"/><rect fill="#E2E2F0" height="31.6094" rx="2.5" ry="2.5" style="stroke:#181818;stroke-width:0.5;" width="171" x="259" y="50"/><text fill="#000000" font-family="sans-serif" font-size="14" lengthAdjust="spacing" textLength="157" x="266" y="71.5332">OperationTypeController</text><rect fill="#E2E2F0" height="31.6094" rx="2.5" ry="2.5" style="stroke:#181818;stroke-width:0.5;" width="171" x="259" y="991.9375"/><text fill="#000000" font-family="sans-serif" font-size="14" lengthAdjust="spacing" textLength="157" x="266" y="1013.4707">OperationTypeController</text><rect fill="#E2E2F0" height="31.6094" rx="2.5" ry="2.5" style="stroke:#181818;stroke-width:0.5;" width="156" x="530.5" y="50"/><text fill="#000000" font-family="sans-serif" font-size="14" lengthAdjust="spacing" textLength="142" x="537.5" y="71.5332">OperationTypeService</text><rect fill="#E2E2F0" height="31.6094" rx="2.5" ry="2.5" style="stroke:#181818;stroke-width:0.5;" width="156" x="530.5" y="991.9375"/><text fill="#000000" font-family="sans-serif" font-size="14" lengthAdjust="spacing" textLength="142" x="537.5" y="1013.4707">OperationTypeService</text><rect fill="#E2E2F0" height="31.6094" rx="2.5" ry="2.5" style="stroke:#181818;stroke-width:0.5;" width="180" x="735.5" y="50"/><text fill="#000000" font-family="sans-serif" font-size="14" lengthAdjust="spacing" textLength="166" x="742.5" y="71.5332">IOperationTypeRepository</text><rect fill="#E2E2F0" height="31.6094" rx="2.5" ry="2.5" style="stroke:#181818;stroke-width:0.5;" width="180" x="735.5" y="991.9375"/><text fill="#000000" font-family="sans-serif" font-size="14" lengthAdjust="spacing" textLength="166" x="742.5" y="1013.4707">IOperationTypeRepository</text><rect fill="#E2E2F0" height="31.6094" rx="2.5" ry="2.5" style="stroke:#181818;stroke-width:0.5;" width="124" x="1084.5" y="991.9375"/><text fill="#000000" font-family="sans-serif" font-size="14" lengthAdjust="spacing" textLength="110" x="1091.5" y="1013.4707">OperationPhases</text><rect fill="#E2E2F0" height="31.6094" rx="2.5" ry="2.5" style="stroke:#181818;stroke-width:0.5;" width="109" x="1218.5" y="991.9375"/><text fill="#000000" font-family="sans-serif" font-size="14" lengthAdjust="spacing" textLength="95" x="1225.5" y="1013.4707">OperationType</text><rect fill="#E2E2F0" height="31.6094" rx="2.5" ry="2.5" style="stroke:#181818;stroke-width:0.5;" width="86" x="1337.5" y="50"/><text fill="#000000" font-family="sans-serif" font-size="14" lengthAdjust="spacing" textLength="72" x="1344.5" y="71.5332">UnitOfWork</text><rect fill="#E2E2F0" height="31.6094" rx="2.5" ry="2.5" style="stroke:#181818;stroke-width:0.5;" width="86" x="1337.5" y="991.9375"/><text fill="#000000" font-family="sans-serif" font-size="14" lengthAdjust="spacing" textLength="72" x="1344.5" y="1013.4707">UnitOfWork</text><rect fill="#E2E2F0" height="31.6094" rx="2.5" ry="2.5" style="stroke:#181818;stroke-width:0.5;" width="112" x="1433.5" y="50"/><text fill="#000000" font-family="sans-serif" font-size="14" lengthAdjust="spacing" textLength="98" x="1440.5" y="71.5332">LoggingService</text><rect fill="#E2E2F0" height="31.6094" rx="2.5" ry="2.5" style="stroke:#181818;stroke-width:0.5;" width="112" x="1433.5" y="991.9375"/><text fill="#000000" font-family="sans-serif" font-size="14" lengthAdjust="spacing" textLength="98" x="1440.5" y="1013.4707">LoggingService</text><text fill="#000000" font-family="sans-serif" font-size="14" lengthAdjust="spacing" textLength="61" x="1555.5" y="79.5332">Database</text><path d="M1571,29 C1571,19 1589,19 1589,19 C1589,19 1607,19 1607,29 L1607,55 C1607,65 1589,65 1589,65 C1589,65 1571,65 1571,55 L1571,29 " fill="#E2E2F0" style="stroke:#181818;stroke-width:1.5;"/><path d="M1571,29 C1571,39 1589,39 1589,39 C1589,39 1607,39 1607,29 " fill="none" style="stroke:#181818;stroke-width:1.5;"/><text fill="#000000" font-family="sans-serif" font-size="14" lengthAdjust="spacing" textLength="61" x="1555.5" y="1006.4707">Database</text><path d="M1571,1019.5469 C1571,1009.5469 1589,1009.5469 1589,1009.5469 C1589,1009.5469 1607,1009.5469 1607,1019.5469 L1607,1045.5469 C1607,1055.5469 1589,1055.5469 1589,1055.5469 C1589,1055.5469 1571,1055.5469 1571,1045.5469 L1571,1019.5469 " fill="#E2E2F0" style="stroke:#181818;stroke-width:1.5;"/><path d="M1571,1019.5469 C1571,1029.5469 1589,1029.5469 1589,1029.5469 C1589,1029.5469 1607,1029.5469 1607,1019.5469 " fill="none" style="stroke:#181818;stroke-width:1.5;"/><rect fill="#FFFFFF" height="867.9766" style="stroke:#181818;stroke-width:1.0;" width="10" x="339.5" y="114.9609"/><rect fill="#FFFFFF" height="670.3828" style="stroke:#181818;stroke-width:1.0;" width="10" x="603.5" y="260.2031"/><rect fill="#FFFFFF" height="91.0547" style="stroke:#181818;stroke-width:1.0;" width="10" x="820.5" y="290.5547"/><rect fill="#FFFFFF" height="91.0547" style="stroke:#181818;stroke-width:1.0;" width="10" x="820.5" y="659.7734"/><rect fill="#FFFFFF" height="32.6094" style="stroke:#181818;stroke-width:1.0;" width="10" x="1141.5" y="523.8516"/><rect fill="#FFFFFF" height="32.6094" style="stroke:#181818;stroke-width:1.0;" width="10" x="1268" y="596.8125"/><rect fill="#FFFFFF" height="74.7031" style="stroke:#181818;stroke-width:1.0;" width="10" x="1375.5" y="781.1797"/><rect fill="#FFFFFF" height="14" style="stroke:#181818;stroke-width:1.0;" width="10" x="1484.5" y="886.2344"/><polygon fill="#181818" points="327.5,110.9609,337.5,114.9609,327.5,118.9609,331.5,114.9609" style="stroke:#181818;stroke-width:1.0;"/><line style="stroke:#181818;stroke-width:1.0;" x1="52.5" x2="333.5" y1="114.9609" y2="114.9609"/><text fill="#000000" font-family="sans-serif" font-size="13" lengthAdjust="spacing" textLength="268" x="59.5" y="110.1045">POST /api/operationtype/create-operation-type</text><line style="stroke:#181818;stroke-width:1.0;" x1="349.5" x2="391.5" y1="145.3125" y2="145.3125"/><line style="stroke:#181818;stroke-width:1.0;" x1="391.5" x2="391.5" y1="145.3125" y2="158.3125"/><line style="stroke:#181818;stroke-width:1.0;" x1="350.5" x2="391.5" y1="158.3125" y2="158.3125"/><polygon fill="#181818" points="360.5,154.3125,350.5,158.3125,360.5,162.3125,356.5,158.3125" style="stroke:#181818;stroke-width:1.0;"/><text fill="#000000" font-family="sans-serif" font-size="13" lengthAdjust="spacing" textLength="117" x="356.5" y="140.4561">Validate ModelState</text><path d="M10,173.3125 L71,173.3125 L71,181.6641 L61,191.6641 L10,191.6641 L10,173.3125 " fill="#EEEEEE" style="stroke:#000000;stroke-width:1.5;"/><rect fill="none" height="802.625" style="stroke:#000000;stroke-width:1.5;" width="1632.5" x="10" y="173.3125"/><text fill="#000000" font-family="sans-serif" font-size="13" font-weight="bold" lengthAdjust="spacing" textLength="16" x="25" y="187.8076">alt</text><text fill="#000000" font-family="sans-serif" font-size="11" font-weight="bold" lengthAdjust="spacing" textLength="132" x="86" y="186.7314">[ModelState is not valid]</text><polygon fill="#181818" points="63.5,210.0156,53.5,214.0156,63.5,218.0156,59.5,214.0156" style="stroke:#181818;stroke-width:1.0;"/><line style="stroke:#181818;stroke-width:1.0;stroke-dasharray:2.0,2.0;" x1="57.5" x2="338.5" y1="214.0156" y2="214.0156"/><text fill="#000000" font-family="sans-serif" font-size="13" lengthAdjust="spacing" textLength="100" x="69.5" y="209.1592">400 Bad Request</text><line style="stroke:#000000;stroke-width:1.0;stroke-dasharray:2.0,2.0;" x1="10" x2="1642.5" y1="223.0156" y2="223.0156"/><text fill="#000000" font-family="sans-serif" font-size="11" font-weight="bold" lengthAdjust="spacing" textLength="111" x="15" y="234.4346">[ModelState is valid]</text><polygon fill="#181818" points="591.5,256.2031,601.5,260.2031,591.5,264.2031,595.5,260.2031" style="stroke:#181818;stroke-width:1.0;"/><line style="stroke:#181818;stroke-width:1.0;" x1="349.5" x2="597.5" y1="260.2031" y2="260.2031"/><text fill="#000000" font-family="sans-serif" font-size="13" lengthAdjust="spacing" textLength="210" x="356.5" y="255.3467">AddAsync(CreateOperationTypeDto)</text><polygon fill="#181818" points="808.5,286.5547,818.5,290.5547,808.5,294.5547,812.5,290.5547" style="stroke:#181818;stroke-width:1.0;"/><line style="stroke:#181818;stroke-width:1.0;" x1="613.5" x2="814.5" y1="290.5547" y2="290.5547"/><text fill="#000000" font-family="sans-serif" font-size="13" lengthAdjust="spacing" textLength="188" x="620.5" y="285.6982">ExistsByNameAsync(dto.Name)</text><polygon fill="#181818" points="1577,316.9063,1587,320.9063,1577,324.9063,1581,320.9063" style="stroke:#181818;stroke-width:1.0;"/><line style="stroke:#181818;stroke-width:1.0;" x1="830.5" x2="1583" y1="320.9063" y2="320.9063"/><text fill="#000000" font-family="sans-serif" font-size="13" lengthAdjust="spacing" textLength="35" x="837.5" y="316.0498">Query</text><polygon fill="#181818" points="841.5,347.2578,831.5,351.2578,841.5,355.2578,837.5,351.2578" style="stroke:#181818;stroke-width:1.0;"/><line style="stroke:#181818;stroke-width:1.0;stroke-dasharray:2.0,2.0;" x1="835.5" x2="1588" y1="351.2578" y2="351.2578"/><text fill="#000000" font-family="sans-serif" font-size="13" lengthAdjust="spacing" textLength="37" x="847.5" y="346.4014">Result</text><polygon fill="#181818" points="624.5,377.6094,614.5,381.6094,624.5,385.6094,620.5,381.6094" style="stroke:#181818;stroke-width:1.0;"/><line style="stroke:#181818;stroke-width:1.0;stroke-dasharray:2.0,2.0;" x1="618.5" x2="824.5" y1="381.6094" y2="381.6094"/><text fill="#000000" font-family="sans-serif" font-size="13" lengthAdjust="spacing" textLength="24" x="630.5" y="376.7529">bool</text><path d="M20,396.6094 L81,396.6094 L81,404.9609 L71,414.9609 L20,414.9609 L20,396.6094 " fill="#EEEEEE" style="stroke:#000000;stroke-width:1.5;"/><rect fill="none" height="572.3281" style="stroke:#000000;stroke-width:1.5;" width="1612.5" x="20" y="396.6094"/><text fill="#000000" font-family="sans-serif" font-size="13" font-weight="bold" lengthAdjust="spacing" textLength="16" x="35" y="411.1045">alt</text><text fill="#000000" font-family="sans-serif" font-size="11" font-weight="bold" lengthAdjust="spacing" textLength="172" x="96" y="410.0283">[Operation Type already exists]</text><polygon fill="#181818" points="360.5,433.3125,350.5,437.3125,360.5,441.3125,356.5,437.3125" style="stroke:#181818;stroke-width:1.0;"/><line style="stroke:#181818;stroke-width:1.0;stroke-dasharray:2.0,2.0;" x1="354.5" x2="602.5" y1="437.3125" y2="437.3125"/><text fill="#000000" font-family="sans-serif" font-size="13" lengthAdjust="spacing" textLength="230" x="366.5" y="432.4561">throw BusinessRuleValidationException</text><polygon fill="#181818" points="63.5,463.6641,53.5,467.6641,63.5,471.6641,59.5,467.6641" style="stroke:#181818;stroke-width:1.0;"/><line style="stroke:#181818;stroke-width:1.0;stroke-dasharray:2.0,2.0;" x1="57.5" x2="338.5" y1="467.6641" y2="467.6641"/><text fill="#000000" font-family="sans-serif" font-size="13" lengthAdjust="spacing" textLength="100" x="69.5" y="462.8076">400 Bad Request</text><line style="stroke:#000000;stroke-width:1.0;stroke-dasharray:2.0,2.0;" x1="20" x2="1632.5" y1="476.6641" y2="476.6641"/><text fill="#000000" font-family="sans-serif" font-size="11" font-weight="bold" lengthAdjust="spacing" textLength="174" x="25" y="488.083">[Operation Type does not exist]</text><polygon fill="#181818" points="1072.5,509.8516,1082.5,513.8516,1072.5,517.8516,1076.5,513.8516" style="stroke:#181818;stroke-width:1.0;"/><line style="stroke:#181818;stroke-width:1.0;" x1="613.5" x2="1078.5" y1="513.8516" y2="513.8516"/><text fill="#000000" font-family="sans-serif" font-size="13" lengthAdjust="spacing" textLength="447" x="620.5" y="508.9951">new OperationPhases(dto.AnesthesiaPreparation, dto.Surgery, dto.Cleaning);</text><rect fill="#E2E2F0" height="31.6094" rx="2.5" ry="2.5" style="stroke:#181818;stroke-width:0.5;" width="124" x="1084.5" y="491.5"/><text fill="#000000" font-family="sans-serif" font-size="14" lengthAdjust="spacing" textLength="110" x="1091.5" y="513.0332">OperationPhases</text><polygon fill="#181818" points="624.5,552.4609,614.5,556.4609,624.5,560.4609,620.5,556.4609" style="stroke:#181818;stroke-width:1.0;"/><line style="stroke:#181818;stroke-width:1.0;stroke-dasharray:2.0,2.0;" x1="618.5" x2="1145.5" y1="556.4609" y2="556.4609"/><text fill="#000000" font-family="sans-serif" font-size="13" lengthAdjust="spacing" textLength="97" x="630.5" y="551.6045">operationPhases</text><polygon fill="#181818" points="1206.5,582.8125,1216.5,586.8125,1206.5,590.8125,1210.5,586.8125" style="stroke:#181818;stroke-width:1.0;"/><line style="stroke:#181818;stroke-width:1.0;" x1="613.5" x2="1212.5" y1="586.8125" y2="586.8125"/><text fill="#000000" font-family="sans-serif" font-size="13" lengthAdjust="spacing" textLength="516" x="620.5" y="581.9561">new OperationType(dto.Name, dto.RequiredStaffBySpecialization, dto.EstimatedDuration)</text><rect fill="#E2E2F0" height="31.6094" rx="2.5" ry="2.5" style="stroke:#181818;stroke-width:0.5;" width="109" x="1218.5" y="564.4609"/><text fill="#000000" font-family="sans-serif" font-size="14" lengthAdjust="spacing" textLength="95" x="1225.5" y="585.9941">OperationType</text><polygon fill="#181818" points="624.5,625.4219,614.5,629.4219,624.5,633.4219,620.5,629.4219" style="stroke:#181818;stroke-width:1.0;"/><line style="stroke:#181818;stroke-width:1.0;stroke-dasharray:2.0,2.0;" x1="618.5" x2="1272" y1="629.4219" y2="629.4219"/><text fill="#000000" font-family="sans-serif" font-size="13" lengthAdjust="spacing" textLength="81" x="630.5" y="624.5654">operationType</text><polygon fill="#181818" points="808.5,655.7734,818.5,659.7734,808.5,663.7734,812.5,659.7734" style="stroke:#181818;stroke-width:1.0;"/><line style="stroke:#181818;stroke-width:1.0;" x1="613.5" x2="814.5" y1="659.7734" y2="659.7734"/><text fill="#000000" font-family="sans-serif" font-size="13" lengthAdjust="spacing" textLength="149" x="620.5" y="654.917">AddAsync(operationType)</text><polygon fill="#181818" points="1577,686.125,1587,690.125,1577,694.125,1581,690.125" style="stroke:#181818;stroke-width:1.0;"/><line style="stroke:#181818;stroke-width:1.0;" x1="830.5" x2="1583" y1="690.125" y2="690.125"/><text fill="#000000" font-family="sans-serif" font-size="13" lengthAdjust="spacing" textLength="32" x="837.5" y="685.2686">Insert</text><polygon fill="#181818" points="841.5,716.4766,831.5,720.4766,841.5,724.4766,837.5,720.4766" style="stroke:#181818;stroke-width:1.0;"/><line style="stroke:#181818;stroke-width:1.0;stroke-dasharray:2.0,2.0;" x1="835.5" x2="1588" y1="720.4766" y2="720.4766"/><text fill="#000000" font-family="sans-serif" font-size="13" lengthAdjust="spacing" textLength="72" x="847.5" y="715.6201">Confirmation</text><polygon fill="#181818" points="624.5,746.8281,614.5,750.8281,624.5,754.8281,620.5,750.8281" style="stroke:#181818;stroke-width:1.0;"/><line style="stroke:#181818;stroke-width:1.0;stroke-dasharray:2.0,2.0;" x1="618.5" x2="824.5" y1="750.8281" y2="750.8281"/><text fill="#000000" font-family="sans-serif" font-size="13" lengthAdjust="spacing" textLength="81" x="630.5" y="745.9717">operationType</text><polygon fill="#181818" points="1363.5,777.1797,1373.5,781.1797,1363.5,785.1797,1367.5,781.1797" style="stroke:#181818;stroke-width:1.0;"/><line style="stroke:#181818;stroke-width:1.0;" x1="613.5" x2="1369.5" y1="781.1797" y2="781.1797"/><text fill="#000000" font-family="sans-serif" font-size="13" lengthAdjust="spacing" textLength="90" x="620.5" y="776.3232">CommitAsync()</text><polygon fill="#181818" points="1577,807.5313,1587,811.5313,1577,815.5313,1581,811.5313" style="stroke:#181818;stroke-width:1.0;"/><line style="stroke:#181818;stroke-width:1.0;" x1="1385.5" x2="1583" y1="811.5313" y2="811.5313"/><text fill="#000000" font-family="sans-serif" font-size="13" lengthAdjust="spacing" textLength="116" x="1392.5" y="806.6748">Commit Transaction</text><polygon fill="#181818" points="1396.5,837.8828,1386.5,841.8828,1396.5,845.8828,1392.5,841.8828" style="stroke:#181818;stroke-width:1.0;"/><line style="stroke:#181818;stroke-width:1.0;stroke-dasharray:2.0,2.0;" x1="1390.5" x2="1588" y1="841.8828" y2="841.8828"/><text fill="#000000" font-family="sans-serif" font-size="13" lengthAdjust="spacing" textLength="72" x="1402.5" y="837.0264">Confirmation</text><polygon fill="#181818" points="624.5,851.8828,614.5,855.8828,624.5,859.8828,620.5,855.8828" style="stroke:#181818;stroke-width:1.0;"/><line style="stroke:#181818;stroke-width:1.0;stroke-dasharray:2.0,2.0;" x1="618.5" x2="1379.5" y1="855.8828" y2="855.8828"/><polygon fill="#181818" points="1472.5,882.2344,1482.5,886.2344,1472.5,890.2344,1476.5,886.2344" style="stroke:#181818;stroke-width:1.0;"/><line style="stroke:#181818;stroke-width:1.0;" x1="613.5" x2="1478.5" y1="886.2344" y2="886.2344"/><text fill="#000000" font-family="sans-serif" font-size="13" lengthAdjust="spacing" textLength="286" x="620.5" y="881.3779">LogInformation("New operation type created: {id}")</text><polygon fill="#181818" points="624.5,896.2344,614.5,900.2344,624.5,904.2344,620.5,900.2344" style="stroke:#181818;stroke-width:1.0;"/><line style="stroke:#181818;stroke-width:1.0;stroke-dasharray:2.0,2.0;" x1="618.5" x2="1488.5" y1="900.2344" y2="900.2344"/><polygon fill="#181818" points="360.5,926.5859,350.5,930.5859,360.5,934.5859,356.5,930.5859" style="stroke:#181818;stroke-width:1.0;"/><line style="stroke:#181818;stroke-width:1.0;stroke-dasharray:2.0,2.0;" x1="354.5" x2="607.5" y1="930.5859" y2="930.5859"/><text fill="#000000" font-family="sans-serif" font-size="13" lengthAdjust="spacing" textLength="104" x="366.5" y="925.7295">OperationTypeDto</text><polygon fill="#181818" points="63.5,956.9375,53.5,960.9375,63.5,964.9375,59.5,960.9375" style="stroke:#181818;stroke-width:1.0;"/><line style="stroke:#181818;stroke-width:1.0;stroke-dasharray:2.0,2.0;" x1="57.5" x2="338.5" y1="960.9375" y2="960.9375"/><text fill="#000000" font-family="sans-serif" font-size="13" lengthAdjust="spacing" textLength="160" x="69.5" y="956.0811">200 OK (OperationTypeDto)</text><!--SRC=[ZLLDJnin4BtlhnZb1AWfgEg9IaW9S41j2Kr2UtRM4x2wiRUs5zXM_UyTs_lbZGcD56azddb-RyOpPhbL6YOplXDo0im0SrzPoRGLkIYPj31PbAYP5Kgkwn8lbRHQ5GLgxvvtomCnAzHF8aSVOC9tx7qJkI-nL4OGhzf7Q5g-0dxto0mQxwLQsm4UiQEpnCxtKjZ5zeVIFxrdfPxZ_I_guK78Xw6SWaoaFUFCiWsHWSbLy-Mt-IRBV4PXUZ785Pp3tMArXbDMYjEEa2L2fxb6Pd7Q6QVEch7SYYUo3_ET3V36wDzP8RZp_weu5YjBdqIai8Cr20DIMNXohXdGRuX7W87tENmyEuCvux34NnKQcs5XS8IJnhXeYqqWCyvdffRvqQNN5vNbogfZ7zofR2-9jxOWXEUk0e5TlmXZpRo-PJiCgDogzsurml5Nnrby807m3OL_gr3NtapBQG-xH5CLTk0VATWeLOGWZF73aPJRJXGuLMGYgRm6z6ozLoHdN3FxgDKpp2iZ91gph0figaY8royvblvsjp3_MIpdwWis8iSLXl9xTllaBle-WPCJ0fRu3AE-yrcV4LdxY4QmEye62_llm6sjAaszKOV5PO5CKlCSV-eEwzBOzswxrHyU5q7533h_GKtsmLAYV1BsXJbpTva2SPT9eP7JPTzkv_Mgn5nGNNuFX5uRAtPqDh-g0ipn0Or-xEpfz7nUqHf5f9HwXvJSvc9tpHT594Xs_RBNCpUIOFjx4ZSElGbReNTnrXCjzAQYlfz6GcWK-tDsEs63b0HxDwzRemjekOSmM6icZNCUa6nqjF096HueKf4YxevEyGxF0mNHqt4Zjwf1FvhSqgthBxcRyH0cFp-7FuB_dIJqDMzDQs-m1-HIpDe7witnCnx9AR1eBX-OGXze2Yq-mr5wpAFacViFW0VFsZy0]--></g></svg>